<svg width="836" height="486" viewBox="0 0 836 486" fill="none" xmlns="http://www.w3.org/2000/svg">
<g clip-path="url(#clip0_3_870)">
<rect x="125" y="78" width="309" height="216" fill="white"/>
<rect x="334" y="201" width="309" height="101" fill="white"/>
<path d="M156.344 202.704C165.496 202.704 172.568 204.816 177.56 209.04C182.552 213.2 185.048 219.12 185.048 226.8C185.048 234.928 182.552 241.264 177.56 245.808C172.568 250.288 165.496 252.528 156.344 252.528H146.072V270H123.8V202.704H156.344ZM156.344 235.632C158.776 235.632 160.632 234.928 161.912 233.52C163.256 232.048 163.928 230.032 163.928 227.472C163.928 224.976 163.256 223.056 161.912 221.712C160.632 220.304 158.776 219.6 156.344 219.6H146.072V235.632H156.344ZM150.68 244.56H172.184L187.64 270H162.488L150.68 244.56ZM190.483 202.704H247.411V219.6H212.755V227.856H244.243V244.752H212.755V253.104H248.275V270H190.483V202.704ZM304.284 226.032C302.044 224.688 299.484 223.408 296.604 222.192C293.724 220.976 290.908 219.984 288.156 219.216C285.468 218.448 283.132 218.064 281.148 218.064C279.932 218.064 278.94 218.288 278.172 218.736C277.404 219.184 277.02 219.952 277.02 221.04C277.02 222.32 277.628 223.376 278.844 224.208C280.124 224.976 281.788 225.648 283.836 226.224C285.948 226.8 288.252 227.44 290.748 228.144C293.244 228.784 295.708 229.616 298.14 230.64C300.636 231.6 302.908 232.848 304.956 234.384C307.068 235.92 308.732 237.904 309.948 240.336C311.228 242.768 311.868 245.744 311.868 249.264C311.868 254.32 310.556 258.48 307.932 261.744C305.308 264.944 301.852 267.344 297.564 268.944C293.276 270.48 288.604 271.248 283.548 271.248C279.644 271.248 275.644 270.832 271.548 270C267.516 269.104 263.644 267.856 259.932 266.256C256.22 264.592 252.86 262.608 249.852 260.304L258.108 243.504C260.412 245.488 263.132 247.28 266.268 248.88C269.404 250.48 272.54 251.76 275.676 252.72C278.812 253.68 281.5 254.16 283.74 254.16C285.404 254.16 286.716 253.872 287.676 253.296C288.636 252.656 289.116 251.696 289.116 250.416C289.116 249.136 288.476 248.112 287.196 247.344C285.98 246.512 284.316 245.808 282.204 245.232C280.156 244.656 277.884 244.08 275.388 243.504C272.892 242.864 270.396 242.096 267.9 241.2C265.468 240.24 263.196 239.024 261.084 237.552C259.036 236.016 257.372 234.096 256.092 231.792C254.876 229.488 254.268 226.608 254.268 223.152C254.268 218.608 255.452 214.672 257.82 211.344C260.188 208.016 263.516 205.456 267.804 203.664C272.156 201.872 277.244 200.976 283.068 200.976C288.38 200.976 293.628 201.712 298.812 203.184C304.06 204.656 308.572 206.608 312.348 209.04L304.284 226.032ZM346.338 202.704C355.106 202.704 361.89 204.816 366.69 209.04C371.49 213.2 373.89 219.12 373.89 226.8C373.89 234.928 371.49 241.264 366.69 245.808C361.89 250.288 355.106 252.528 346.338 252.528H327.33L337.026 242.832V270H314.754V202.704H346.338ZM345.186 235.632C347.618 235.632 349.474 234.928 350.754 233.52C352.098 232.048 352.77 230.032 352.77 227.472C352.77 224.976 352.098 223.056 350.754 221.712C349.474 220.304 347.618 219.6 345.186 219.6H327.33L337.026 209.904V245.328L327.33 235.632H345.186ZM411.286 201.264C416.662 201.264 421.59 202.128 426.07 203.856C430.55 205.584 434.454 208.016 437.782 211.152C441.11 214.288 443.67 218 445.462 222.288C447.318 226.512 448.246 231.152 448.246 236.208C448.246 241.264 447.318 245.968 445.462 250.32C443.67 254.608 441.11 258.352 437.782 261.552C434.454 264.688 430.55 267.152 426.07 268.944C421.59 270.672 416.662 271.536 411.286 271.536C405.91 271.536 400.982 270.672 396.502 268.944C392.022 267.152 388.118 264.688 384.79 261.552C381.462 258.352 378.87 254.608 377.014 250.32C375.222 246.032 374.326 241.328 374.326 236.208C374.326 231.088 375.222 226.416 377.014 222.192C378.87 217.904 381.462 214.224 384.79 211.152C388.118 208.016 392.022 205.584 396.502 203.856C400.982 202.128 405.91 201.264 411.286 201.264ZM411.574 219.792C409.654 219.792 407.798 220.208 406.006 221.04C404.278 221.808 402.742 222.96 401.398 224.496C400.118 225.968 399.094 227.696 398.326 229.68C397.558 231.664 397.174 233.872 397.174 236.304C397.174 238.672 397.558 240.88 398.326 242.928C399.094 244.976 400.15 246.768 401.494 248.304C402.838 249.776 404.374 250.928 406.102 251.76C407.83 252.592 409.654 253.008 411.574 253.008C413.494 253.008 415.286 252.592 416.95 251.76C418.614 250.928 420.086 249.776 421.366 248.304C422.646 246.768 423.638 244.976 424.342 242.928C425.046 240.88 425.398 238.672 425.398 236.304C425.398 233.872 425.046 231.664 424.342 229.68C423.638 227.696 422.646 225.968 421.366 224.496C420.086 222.96 418.614 221.808 416.95 221.04C415.286 220.208 413.494 219.792 411.574 219.792ZM451.588 202.704H470.212L502.756 244.944L496.804 246.96V202.704H516.964V270H498.34L465.892 227.952L471.844 225.936V270H451.588V202.704ZM574.108 226.032C571.868 224.688 569.308 223.408 566.428 222.192C563.548 220.976 560.732 219.984 557.98 219.216C555.292 218.448 552.956 218.064 550.972 218.064C549.756 218.064 548.764 218.288 547.996 218.736C547.228 219.184 546.844 219.952 546.844 221.04C546.844 222.32 547.452 223.376 548.668 224.208C549.948 224.976 551.612 225.648 553.66 226.224C555.772 226.8 558.076 227.44 560.572 228.144C563.068 228.784 565.532 229.616 567.964 230.64C570.46 231.6 572.732 232.848 574.78 234.384C576.892 235.92 578.556 237.904 579.772 240.336C581.052 242.768 581.692 245.744 581.692 249.264C581.692 254.32 580.38 258.48 577.756 261.744C575.132 264.944 571.676 267.344 567.388 268.944C563.1 270.48 558.428 271.248 553.372 271.248C549.468 271.248 545.468 270.832 541.372 270C537.34 269.104 533.468 267.856 529.756 266.256C526.044 264.592 522.684 262.608 519.676 260.304L527.932 243.504C530.236 245.488 532.956 247.28 536.092 248.88C539.228 250.48 542.364 251.76 545.5 252.72C548.636 253.68 551.324 254.16 553.564 254.16C555.228 254.16 556.54 253.872 557.5 253.296C558.46 252.656 558.94 251.696 558.94 250.416C558.94 249.136 558.3 248.112 557.02 247.344C555.804 246.512 554.14 245.808 552.028 245.232C549.98 244.656 547.708 244.08 545.212 243.504C542.716 242.864 540.22 242.096 537.724 241.2C535.292 240.24 533.02 239.024 530.908 237.552C528.86 236.016 527.196 234.096 525.916 231.792C524.7 229.488 524.092 226.608 524.092 223.152C524.092 218.608 525.276 214.672 527.644 211.344C530.012 208.016 533.34 205.456 537.628 203.664C541.98 201.872 547.068 200.976 552.892 200.976C558.204 200.976 563.452 201.712 568.636 203.184C573.884 204.656 578.396 206.608 582.172 209.04L574.108 226.032ZM584.577 202.704H641.505V219.6H606.849V227.856H638.337V244.752H606.849V253.104H642.369V270H584.577V202.704Z" fill="black"/>
<path d="M177.56 209.04L168.517 219.727C168.544 219.75 168.57 219.773 168.597 219.795L177.56 209.04ZM177.56 245.808L186.911 256.227C186.935 256.205 186.96 256.183 186.984 256.161L177.56 245.808ZM146.072 252.528V238.528C138.34 238.528 132.072 244.796 132.072 252.528H146.072ZM146.072 270V284C153.804 284 160.072 277.732 160.072 270H146.072ZM123.8 270H109.8C109.8 277.732 116.068 284 123.8 284V270ZM123.8 202.704V188.704C116.068 188.704 109.8 194.972 109.8 202.704H123.8ZM161.912 233.52L151.573 224.08C151.566 224.088 151.56 224.095 151.553 224.103L161.912 233.52ZM161.912 221.712L151.553 231.129C151.702 231.294 151.855 231.454 152.013 231.611L161.912 221.712ZM146.072 219.6V205.6C138.34 205.6 132.072 211.868 132.072 219.6H146.072ZM146.072 235.632H132.072C132.072 243.364 138.34 249.632 146.072 249.632V235.632ZM150.68 244.56V230.56C145.9 230.56 141.451 232.998 138.879 237.027C136.307 241.056 135.969 246.119 137.981 250.454L150.68 244.56ZM172.184 244.56L184.149 237.291C181.61 233.112 177.074 230.56 172.184 230.56V244.56ZM187.64 270V284C192.698 284 197.362 281.272 199.842 276.864C202.322 272.456 202.231 267.053 199.605 262.731L187.64 270ZM162.488 270L149.789 275.894C152.084 280.837 157.038 284 162.488 284V270ZM156.344 202.704V216.704C163.496 216.704 166.9 218.359 168.517 219.727L177.56 209.04L186.603 198.353C178.236 191.273 167.496 188.704 156.344 188.704V202.704ZM177.56 209.04L168.597 219.795C169.805 220.802 171.048 222.437 171.048 226.8H185.048H199.048C199.048 215.803 195.299 205.598 186.523 198.285L177.56 209.04ZM185.048 226.8H171.048C171.048 231.86 169.625 234.1 168.136 235.455L177.56 245.808L186.984 256.161C195.479 248.428 199.048 237.996 199.048 226.8H185.048ZM177.56 245.808L168.209 235.389C166.595 236.837 163.313 238.528 156.344 238.528V252.528V266.528C167.679 266.528 178.541 263.739 186.911 256.227L177.56 245.808ZM156.344 252.528V238.528H146.072V252.528V266.528H156.344V252.528ZM146.072 252.528H132.072V270H146.072H160.072V252.528H146.072ZM146.072 270V256H123.8V270V284H146.072V270ZM123.8 270H137.8V202.704H123.8H109.8V270H123.8ZM123.8 202.704V216.704H156.344V202.704V188.704H123.8V202.704ZM156.344 235.632V249.632C161.553 249.632 167.643 248.029 172.271 242.937L161.912 233.52L151.553 224.103C152.461 223.103 153.553 222.409 154.595 222.014C155.565 221.646 156.233 221.632 156.344 221.632V235.632ZM161.912 233.52L172.251 242.96C176.561 238.24 177.928 232.5 177.928 227.472H163.928H149.928C149.928 227.545 149.917 227.154 150.142 226.477C150.384 225.751 150.838 224.885 151.573 224.08L161.912 233.52ZM163.928 227.472H177.928C177.928 222.471 176.527 216.528 171.811 211.813L161.912 221.712L152.013 231.611C151.095 230.693 150.519 229.667 150.21 228.785C150.065 228.371 149.995 228.037 149.961 227.814C149.928 227.594 149.928 227.472 149.928 227.472H163.928ZM161.912 221.712L172.271 212.295C167.643 207.203 161.553 205.6 156.344 205.6V219.6V233.6C156.233 233.6 155.565 233.586 154.595 233.218C153.553 232.823 152.461 232.129 151.553 231.129L161.912 221.712ZM156.344 219.6V205.6H146.072V219.6V233.6H156.344V219.6ZM146.072 219.6H132.072V235.632H146.072H160.072V219.6H146.072ZM146.072 235.632V249.632H156.344V235.632V221.632H146.072V235.632ZM150.68 244.56V258.56H172.184V244.56V230.56H150.68V244.56ZM172.184 244.56L160.219 251.829L175.675 277.269L187.64 270L199.605 262.731L184.149 237.291L172.184 244.56ZM187.64 270V256H162.488V270V284H187.64V270ZM162.488 270L175.187 264.106L163.379 238.666L150.68 244.56L137.981 250.454L149.789 275.894L162.488 270ZM190.483 202.704V188.704C182.751 188.704 176.483 194.972 176.483 202.704H190.483ZM247.411 202.704H261.411C261.411 194.972 255.142 188.704 247.411 188.704V202.704ZM247.411 219.6V233.6C255.142 233.6 261.411 227.332 261.411 219.6H247.411ZM212.755 219.6V205.6C205.023 205.6 198.755 211.868 198.755 219.6H212.755ZM212.755 227.856H198.755C198.755 235.588 205.023 241.856 212.755 241.856V227.856ZM244.243 227.856H258.243C258.243 220.124 251.974 213.856 244.243 213.856V227.856ZM244.243 244.752V258.752C251.974 258.752 258.243 252.484 258.243 244.752H244.243ZM212.755 244.752V230.752C205.023 230.752 198.755 237.02 198.755 244.752H212.755ZM212.755 253.104H198.755C198.755 260.836 205.023 267.104 212.755 267.104V253.104ZM248.275 253.104H262.275C262.275 245.372 256.006 239.104 248.275 239.104V253.104ZM248.275 270V284C256.006 284 262.275 277.732 262.275 270H248.275ZM190.483 270H176.483C176.483 277.732 182.751 284 190.483 284V270ZM190.483 202.704V216.704H247.411V202.704V188.704H190.483V202.704ZM247.411 202.704H233.411V219.6H247.411H261.411V202.704H247.411ZM247.411 219.6V205.6H212.755V219.6V233.6H247.411V219.6ZM212.755 219.6H198.755V227.856H212.755H226.755V219.6H212.755ZM212.755 227.856V241.856H244.243V227.856V213.856H212.755V227.856ZM244.243 227.856H230.243V244.752H244.243H258.243V227.856H244.243ZM244.243 244.752V230.752H212.755V244.752V258.752H244.243V244.752ZM212.755 244.752H198.755V253.104H212.755H226.755V244.752H212.755ZM212.755 253.104V267.104H248.275V253.104V239.104H212.755V253.104ZM248.275 253.104H234.275V270H248.275H262.275V253.104H248.275ZM248.275 270V256H190.483V270V284H248.275V270ZM190.483 270H204.483V202.704H190.483H176.483V270H190.483ZM304.284 226.032L297.081 238.037C300.468 240.069 304.555 240.576 308.336 239.433C312.116 238.29 315.238 235.603 316.932 232.034L304.284 226.032ZM296.604 222.192L302.049 209.295L302.049 209.295L296.604 222.192ZM288.156 219.216L284.31 232.677C284.337 232.685 284.365 232.693 284.393 232.701L288.156 219.216ZM278.172 218.736L271.118 206.643L271.118 206.643L278.172 218.736ZM278.844 224.208L270.938 235.762C271.168 235.919 271.402 236.07 271.641 236.213L278.844 224.208ZM283.836 226.224L280.045 239.701C280.081 239.711 280.116 239.721 280.152 239.731L283.836 226.224ZM290.748 228.144L286.947 241.618C287.055 241.649 287.162 241.678 287.271 241.705L290.748 228.144ZM298.14 230.64L292.707 243.543C292.842 243.6 292.978 243.654 293.114 243.707L298.14 230.64ZM304.956 234.384L296.556 245.584C296.611 245.625 296.666 245.666 296.721 245.706L304.956 234.384ZM309.948 240.336L297.426 246.597C297.469 246.684 297.514 246.77 297.559 246.856L309.948 240.336ZM307.932 261.744L318.758 270.621C318.786 270.586 318.815 270.551 318.843 270.516L307.932 261.744ZM297.564 268.944L302.285 282.124C302.343 282.103 302.4 282.082 302.458 282.061L297.564 268.944ZM271.548 270L268.511 283.667C268.594 283.685 268.677 283.703 268.761 283.72L271.548 270ZM259.932 266.256L254.205 279.031C254.266 279.059 254.328 279.086 254.39 279.113L259.932 266.256ZM249.852 260.304L237.287 254.129C234.342 260.121 236.039 267.359 241.339 271.418L249.852 260.304ZM258.108 243.504L267.243 232.895C263.959 230.067 259.551 228.92 255.305 229.787C251.059 230.655 247.454 233.44 245.543 237.329L258.108 243.504ZM266.268 248.88L272.63 236.409L272.63 236.409L266.268 248.88ZM287.676 253.296L294.879 265.301C295.069 265.187 295.257 265.068 295.442 264.945L287.676 253.296ZM287.196 247.344L279.29 258.898C279.52 259.055 279.754 259.206 279.993 259.349L287.196 247.344ZM282.204 245.232L278.413 258.709C278.449 258.719 278.484 258.729 278.52 258.739L282.204 245.232ZM275.388 243.504L271.911 257.065C272.02 257.093 272.13 257.12 272.24 257.145L275.388 243.504ZM267.9 241.2L262.759 254.222C262.895 254.276 263.032 254.327 263.17 254.377L267.9 241.2ZM261.084 237.552L252.684 248.752C252.814 248.849 252.945 248.945 253.079 249.038L261.084 237.552ZM256.092 231.792L243.71 238.327C243.757 238.415 243.805 238.503 243.854 238.591L256.092 231.792ZM257.82 211.344L269.227 219.461L269.227 219.461L257.82 211.344ZM267.804 203.664L262.473 190.719C262.451 190.728 262.428 190.737 262.405 190.747L267.804 203.664ZM298.812 203.184L294.988 216.652C295.002 216.656 295.016 216.66 295.031 216.664L298.812 203.184ZM312.348 209.04L324.996 215.042C328.012 208.687 325.843 201.079 319.928 197.27L312.348 209.04ZM304.284 226.032L311.487 214.027C308.586 212.287 305.422 210.718 302.049 209.295L296.604 222.192L291.158 235.089C293.546 236.098 295.502 237.089 297.081 238.037L304.284 226.032ZM296.604 222.192L302.049 209.295C298.672 207.869 295.294 206.673 291.919 205.731L288.156 219.216L284.393 232.701C286.521 233.295 288.775 234.083 291.158 235.089L296.604 222.192ZM288.156 219.216L292.002 205.755C288.531 204.763 284.843 204.064 281.148 204.064V218.064V232.064C281.421 232.064 282.405 232.133 284.31 232.677L288.156 219.216ZM281.148 218.064V204.064C278.327 204.064 274.673 204.569 271.118 206.643L278.172 218.736L285.226 230.829C283.207 232.007 281.537 232.064 281.148 232.064V218.064ZM278.172 218.736L271.118 206.643C265.03 210.194 263.02 216.277 263.02 221.04H277.02H291.02C291.02 222.105 290.834 223.9 289.83 225.909C288.76 228.049 287.105 229.733 285.226 230.829L278.172 218.736ZM277.02 221.04H263.02C263.02 227.695 266.576 232.777 270.938 235.762L278.844 224.208L286.749 212.654C287.518 213.18 288.668 214.173 289.608 215.807C290.59 217.512 291.02 219.357 291.02 221.04H277.02ZM278.844 224.208L271.641 236.213C274.334 237.829 277.262 238.918 280.045 239.701L283.836 226.224L287.626 212.747C287.008 212.573 286.574 212.42 286.294 212.307C286.009 212.192 285.949 212.145 286.047 212.203L278.844 224.208ZM283.836 226.224L280.152 239.731C282.219 240.294 284.483 240.923 286.947 241.618L290.748 228.144L294.548 214.67C292.02 213.957 289.677 213.306 287.519 212.717L283.836 226.224ZM290.748 228.144L287.271 241.705C289.084 242.17 290.894 242.78 292.707 243.543L298.14 230.64L303.573 217.737C300.521 216.452 297.404 215.398 294.225 214.583L290.748 228.144ZM298.14 230.64L293.114 243.707C294.459 244.224 295.586 244.857 296.556 245.584L304.956 234.384L313.356 223.184C310.229 220.839 306.813 218.976 303.165 217.573L298.14 230.64ZM304.956 234.384L296.721 245.706C296.944 245.868 297.17 246.086 297.426 246.597L309.948 240.336L322.47 234.075C320.293 229.722 317.192 225.972 313.19 223.062L304.956 234.384ZM309.948 240.336L297.559 246.856C297.525 246.792 297.868 247.395 297.868 249.264H311.868H325.868C325.868 244.093 324.93 238.744 322.337 233.816L309.948 240.336ZM311.868 249.264H297.868C297.868 251.814 297.255 252.681 297.02 252.972L307.932 261.744L318.843 270.516C323.857 264.279 325.868 256.826 325.868 249.264H311.868ZM307.932 261.744L297.106 252.867C296.212 253.957 294.893 254.998 292.669 255.827L297.564 268.944L302.458 282.061C308.811 279.69 314.403 275.931 318.758 270.621L307.932 261.744ZM297.564 268.944L292.843 255.764C290.227 256.701 287.171 257.248 283.548 257.248V271.248V285.248C290.037 285.248 296.325 284.259 302.285 282.124L297.564 268.944ZM283.548 271.248V257.248C280.643 257.248 277.577 256.939 274.335 256.28L271.548 270L268.761 283.72C273.71 284.725 278.645 285.248 283.548 285.248V271.248ZM271.548 270L274.585 256.333C271.392 255.624 268.36 254.644 265.473 253.399L259.932 266.256L254.39 279.113C258.927 281.068 263.639 282.584 268.511 283.667L271.548 270ZM259.932 266.256L265.659 253.481C262.864 252.228 260.451 250.788 258.365 249.19L249.852 260.304L241.339 271.418C245.269 274.428 249.575 276.956 254.205 279.031L259.932 266.256ZM249.852 260.304L262.417 266.479L270.673 249.679L258.108 243.504L245.543 237.329L237.287 254.129L249.852 260.304ZM258.108 243.504L248.972 254.113C252.244 256.93 255.927 259.321 259.905 261.351L266.268 248.88L272.63 236.409C270.337 235.239 268.58 234.046 267.243 232.895L258.108 243.504ZM266.268 248.88L259.905 261.351C263.715 263.295 267.607 264.891 271.578 266.107L275.676 252.72L279.774 239.333C277.472 238.629 275.092 237.665 272.63 236.409L266.268 248.88ZM275.676 252.72L271.578 266.107C275.485 267.303 279.629 268.16 283.74 268.16V254.16V240.16C283.37 240.16 282.138 240.057 279.774 239.333L275.676 252.72ZM283.74 254.16V268.16C286.791 268.16 290.932 267.669 294.879 265.301L287.676 253.296L280.473 241.291C281.524 240.661 282.431 240.388 282.97 240.27C283.501 240.153 283.791 240.16 283.74 240.16V254.16ZM287.676 253.296L295.442 264.945C300.772 261.391 303.116 255.774 303.116 250.416H289.116H275.116C275.116 249.298 275.332 247.639 276.234 245.835C277.165 243.973 278.52 242.574 279.91 241.647L287.676 253.296ZM289.116 250.416H303.116C303.116 243.323 299.067 238.14 294.399 235.339L287.196 247.344L279.993 259.349C279.176 258.859 277.861 257.863 276.764 256.108C275.608 254.259 275.116 252.235 275.116 250.416H289.116ZM287.196 247.344L295.101 235.79C292.133 233.759 288.846 232.532 285.887 231.725L282.204 245.232L278.52 258.739C279.094 258.895 279.43 259.022 279.581 259.086C279.738 259.152 279.602 259.112 279.29 258.898L287.196 247.344ZM282.204 245.232L285.994 231.755C283.696 231.108 281.205 230.479 278.536 229.863L275.388 243.504L272.24 257.145C274.562 257.681 276.616 258.204 278.413 258.709L282.204 245.232ZM275.388 243.504L278.865 229.943C276.805 229.414 274.726 228.776 272.63 228.023L267.9 241.2L263.17 254.377C266.065 255.416 268.979 256.314 271.911 257.065L275.388 243.504ZM267.9 241.2L273.04 228.178C271.604 227.611 270.295 226.907 269.089 226.066L261.084 237.552L253.079 249.038C256.097 251.141 259.332 252.869 262.759 254.222L267.9 241.2ZM261.084 237.552L269.484 226.352C269.057 226.032 268.683 225.629 268.33 224.993L256.092 231.792L243.854 238.591C246.06 242.563 249.014 246 252.684 248.752L261.084 237.552ZM256.092 231.792L268.473 225.257C268.61 225.517 268.268 225.046 268.268 223.152H254.268H240.268C240.268 228.17 241.141 233.459 243.71 238.327L256.092 231.792ZM254.268 223.152H268.268C268.268 221.175 268.734 220.154 269.227 219.461L257.82 211.344L246.413 203.227C242.17 209.19 240.268 216.041 240.268 223.152H254.268ZM257.82 211.344L269.227 219.461C269.879 218.544 270.985 217.508 273.202 216.581L267.804 203.664L262.405 190.747C256.046 193.404 250.497 197.488 246.413 203.227L257.82 211.344ZM267.804 203.664L273.134 216.609C275.446 215.658 278.652 214.976 283.068 214.976V200.976V186.976C275.836 186.976 268.866 188.086 262.473 190.719L267.804 203.664ZM283.068 200.976V214.976C287.068 214.976 291.029 215.528 294.988 216.652L298.812 203.184L302.636 189.716C296.226 187.896 289.692 186.976 283.068 186.976V200.976ZM298.812 203.184L295.031 216.664C299.211 217.836 302.385 219.276 304.767 220.81L312.348 209.04L319.928 197.27C314.759 193.94 308.909 191.476 302.593 189.704L298.812 203.184ZM312.348 209.04L299.7 203.038L291.636 220.03L304.284 226.032L316.932 232.034L324.996 215.042L312.348 209.04ZM366.69 209.04L357.441 219.55C357.467 219.573 357.494 219.597 357.521 219.62L366.69 209.04ZM366.69 245.808L376.242 256.043C376.266 256.02 376.29 255.998 376.314 255.975L366.69 245.808ZM327.33 252.528L317.43 242.629C313.426 246.632 312.229 252.654 314.395 257.886C316.562 263.117 321.667 266.528 327.33 266.528V252.528ZM337.026 242.832H351.026C351.026 237.17 347.615 232.065 342.383 229.898C337.152 227.731 331.13 228.929 327.126 232.933L337.026 242.832ZM337.026 270V284C344.758 284 351.026 277.732 351.026 270H337.026ZM314.754 270H300.754C300.754 277.732 307.022 284 314.754 284V270ZM314.754 202.704V188.704C307.022 188.704 300.754 194.972 300.754 202.704H314.754ZM350.754 233.52L340.415 224.08C340.408 224.088 340.401 224.095 340.395 224.103L350.754 233.52ZM350.754 221.712L340.395 231.129C340.544 231.294 340.697 231.454 340.854 231.611L350.754 221.712ZM327.33 219.6L317.43 209.701C313.426 213.704 312.229 219.726 314.395 224.958C316.562 230.189 321.667 233.6 327.33 233.6V219.6ZM337.026 209.904H351.026C351.026 204.242 347.615 199.137 342.383 196.97C337.152 194.803 331.13 196.001 327.126 200.005L337.026 209.904ZM337.026 245.328L327.126 255.227C331.13 259.231 337.152 260.429 342.383 258.262C347.615 256.095 351.026 250.99 351.026 245.328H337.026ZM327.33 235.632V221.632C321.667 221.632 316.562 225.043 314.395 230.274C312.229 235.506 313.426 241.528 317.43 245.531L327.33 235.632ZM346.338 202.704V216.704C352.97 216.704 356.011 218.292 357.441 219.55L366.69 209.04L375.939 198.53C367.768 191.34 357.242 188.704 346.338 188.704V202.704ZM366.69 209.04L357.521 219.62C358.614 220.568 359.89 222.252 359.89 226.8H373.89H387.89C387.89 215.988 384.365 205.832 375.859 198.46L366.69 209.04ZM373.89 226.8H359.89C359.89 232.028 358.452 234.328 357.065 235.641L366.69 245.808L376.314 255.975C384.527 248.2 387.89 237.828 387.89 226.8H373.89ZM366.69 245.808L357.137 235.573C355.699 236.915 352.775 238.528 346.338 238.528V252.528V266.528C357.437 266.528 368.08 263.661 376.242 256.043L366.69 245.808ZM346.338 252.528V238.528H327.33V252.528V266.528H346.338V252.528ZM327.33 252.528L337.229 262.427L346.925 252.731L337.026 242.832L327.126 232.933L317.43 242.629L327.33 252.528ZM337.026 242.832H323.026V270H337.026H351.026V242.832H337.026ZM337.026 270V256H314.754V270V284H337.026V270ZM314.754 270H328.754V202.704H314.754H300.754V270H314.754ZM314.754 202.704V216.704H346.338V202.704V188.704H314.754V202.704ZM345.186 235.632V249.632C350.394 249.632 356.484 248.029 361.113 242.937L350.754 233.52L340.395 224.103C341.303 223.103 342.394 222.409 343.437 222.014C344.407 221.646 345.075 221.632 345.186 221.632V235.632ZM350.754 233.52L361.093 242.96C365.402 238.24 366.77 232.5 366.77 227.472H352.77H338.77C338.77 227.545 338.758 227.154 338.984 226.477C339.226 225.751 339.68 224.885 340.415 224.08L350.754 233.52ZM352.77 227.472H366.77C366.77 222.471 365.369 216.528 360.653 211.813L350.754 221.712L340.854 231.611C339.936 230.693 339.361 229.667 339.052 228.785C338.907 228.371 338.837 228.037 338.803 227.814C338.77 227.594 338.77 227.472 338.77 227.472H352.77ZM350.754 221.712L361.113 212.295C356.484 207.203 350.394 205.6 345.186 205.6V219.6V233.6C345.075 233.6 344.407 233.586 343.437 233.218C342.394 232.823 341.303 232.129 340.395 231.129L350.754 221.712ZM345.186 219.6V205.6H327.33V219.6V233.6H345.186V219.6ZM327.33 219.6L337.229 229.499L346.925 219.803L337.026 209.904L327.126 200.005L317.43 209.701L327.33 219.6ZM337.026 209.904H323.026V245.328H337.026H351.026V209.904H337.026ZM337.026 245.328L346.925 235.429L337.229 225.733L327.33 235.632L317.43 245.531L327.126 255.227L337.026 245.328ZM327.33 235.632V249.632H345.186V235.632V221.632H327.33V235.632ZM426.07 203.856L421.032 216.918L421.032 216.918L426.07 203.856ZM437.782 211.152L447.383 200.963L447.383 200.963L437.782 211.152ZM445.462 222.288L432.545 227.686C432.578 227.764 432.611 227.842 432.645 227.92L445.462 222.288ZM445.462 250.32L432.584 244.828C432.571 244.859 432.558 244.89 432.545 244.922L445.462 250.32ZM437.782 261.552L447.383 271.741C447.418 271.709 447.452 271.676 447.486 271.644L437.782 261.552ZM426.07 268.944L431.108 282.006C431.162 281.985 431.216 281.964 431.27 281.943L426.07 268.944ZM396.502 268.944L391.303 281.943C391.356 281.964 391.41 281.985 391.464 282.006L396.502 268.944ZM384.79 261.552L375.087 271.644C375.121 271.676 375.155 271.709 375.189 271.741L384.79 261.552ZM377.014 250.32L364.097 255.718C364.12 255.773 364.143 255.827 364.166 255.881L377.014 250.32ZM377.014 222.192L364.166 216.631C364.153 216.662 364.139 216.693 364.126 216.724L377.014 222.192ZM384.79 211.152L394.286 221.439C394.321 221.407 394.357 221.374 394.391 221.341L384.79 211.152ZM396.502 203.856L401.54 216.918L401.54 216.918L396.502 203.856ZM406.006 221.04L411.692 233.833C411.762 233.802 411.832 233.77 411.902 233.738L406.006 221.04ZM401.398 224.496L390.862 215.277C390.853 215.288 390.843 215.299 390.834 215.309L401.398 224.496ZM398.326 229.68L411.382 234.734L411.382 234.734L398.326 229.68ZM401.494 248.304L390.958 257.523C391.023 257.597 391.089 257.671 391.155 257.744L401.494 248.304ZM406.102 251.76L412.176 239.146L412.176 239.146L406.102 251.76ZM416.95 251.76L410.689 239.238L410.689 239.238L416.95 251.76ZM421.366 248.304L431.931 257.49C431.995 257.417 432.059 257.342 432.121 257.267L421.366 248.304ZM424.342 242.928L411.103 238.377L411.103 238.377L424.342 242.928ZM424.342 229.68L411.148 234.362L411.148 234.362L424.342 229.68ZM421.366 224.496L410.611 233.459C410.674 233.534 410.737 233.609 410.802 233.683L421.366 224.496ZM416.95 221.04L410.689 233.562C410.82 233.627 410.951 233.69 411.083 233.751L416.95 221.04ZM411.286 201.264V215.264C415.145 215.264 418.34 215.88 421.032 216.918L426.07 203.856L431.108 190.794C424.84 188.376 418.18 187.264 411.286 187.264V201.264ZM426.07 203.856L421.032 216.918C423.905 218.026 426.239 219.511 428.181 221.341L437.782 211.152L447.383 200.963C442.669 196.521 437.195 193.142 431.108 190.794L426.07 203.856ZM437.782 211.152L428.181 221.341C430.056 223.108 431.497 225.18 432.545 227.686L445.462 222.288L458.38 216.89C455.843 210.82 452.164 205.468 447.383 200.963L437.782 211.152ZM445.462 222.288L432.645 227.92C433.649 230.205 434.246 232.904 434.246 236.208H448.246H462.246C462.246 229.4 460.988 222.819 458.28 216.656L445.462 222.288ZM448.246 236.208H434.246C434.246 239.508 433.65 242.329 432.584 244.828L445.462 250.32L458.34 255.812C460.986 249.607 462.246 243.02 462.246 236.208H448.246ZM445.462 250.32L432.545 244.922C431.487 247.454 430.016 249.597 428.079 251.46L437.782 261.552L447.486 271.644C452.204 267.107 455.854 261.762 458.38 255.718L445.462 250.32ZM437.782 261.552L428.181 251.363C426.201 253.229 423.811 254.769 420.871 255.945L426.07 268.944L431.27 281.943C437.289 279.535 442.708 276.147 447.383 271.741L437.782 261.552ZM426.07 268.944L421.032 255.882C418.34 256.92 415.145 257.536 411.286 257.536V271.536V285.536C418.18 285.536 424.84 284.424 431.108 282.006L426.07 268.944ZM411.286 271.536V257.536C407.428 257.536 404.232 256.92 401.54 255.882L396.502 268.944L391.464 282.006C397.732 284.424 404.393 285.536 411.286 285.536V271.536ZM396.502 268.944L401.702 255.945C398.761 254.769 396.372 253.229 394.391 251.363L384.79 261.552L375.189 271.741C379.865 276.147 385.283 279.535 391.303 281.943L396.502 268.944ZM384.79 261.552L394.494 251.46C392.52 249.563 390.99 247.364 389.862 244.759L377.014 250.32L364.166 255.881C366.75 261.852 370.404 267.141 375.087 271.644L384.79 261.552ZM377.014 250.32L389.932 244.922C388.924 242.51 388.326 239.664 388.326 236.208H374.326H360.326C360.326 242.992 361.521 249.554 364.097 255.718L377.014 250.32ZM374.326 236.208H388.326C388.326 232.749 388.925 229.964 389.902 227.66L377.014 222.192L364.126 216.724C361.52 222.868 360.326 229.427 360.326 236.208H374.326ZM377.014 222.192L389.862 227.753C390.968 225.199 392.439 223.145 394.286 221.439L384.79 211.152L375.294 200.865C370.486 205.303 366.773 210.609 364.166 216.631L377.014 222.192ZM384.79 211.152L394.391 221.341C396.333 219.511 398.667 218.026 401.54 216.918L396.502 203.856L391.464 190.794C385.377 193.142 379.903 196.521 375.189 200.963L384.79 211.152ZM396.502 203.856L401.54 216.918C404.232 215.88 407.428 215.264 411.286 215.264V201.264V187.264C404.393 187.264 397.732 188.376 391.464 190.794L396.502 203.856ZM411.574 219.792V205.792C407.558 205.792 403.695 206.678 400.111 208.342L406.006 221.04L411.902 233.738C411.925 233.727 411.889 233.746 411.804 233.765C411.718 233.784 411.634 233.792 411.574 233.792V219.792ZM406.006 221.04L400.32 208.247C396.591 209.904 393.437 212.335 390.862 215.277L401.398 224.496L411.934 233.715C412.005 233.634 412.016 233.636 411.958 233.68C411.897 233.726 411.805 233.783 411.692 233.833L406.006 221.04ZM401.398 224.496L390.834 215.309C388.398 218.111 386.57 221.268 385.27 224.626L398.326 229.68L411.382 234.734C411.618 234.124 411.838 233.825 411.963 233.683L401.398 224.496ZM398.326 229.68L385.27 224.626C383.796 228.436 383.174 232.388 383.174 236.304H397.174H411.174C411.174 235.356 411.321 234.892 411.382 234.734L398.326 229.68ZM397.174 236.304H383.174C383.174 240.212 383.813 244.099 385.218 247.844L398.326 242.928L411.435 238.012C411.303 237.661 411.174 237.132 411.174 236.304H397.174ZM398.326 242.928L385.218 247.844C386.535 251.355 388.427 254.631 390.958 257.523L401.494 248.304L412.03 239.085C411.873 238.905 411.654 238.597 411.435 238.012L398.326 242.928ZM401.494 248.304L391.155 257.744C393.657 260.484 396.626 262.736 400.029 264.374L406.102 251.76L412.176 239.146C412.122 239.12 412.019 239.068 411.833 238.864L401.494 248.304ZM406.102 251.76L400.029 264.374C403.654 266.119 407.554 267.008 411.574 267.008V253.008V239.008C411.634 239.008 411.743 239.016 411.879 239.046C412.015 239.077 412.119 239.119 412.176 239.146L406.102 251.76ZM411.574 253.008V267.008C415.596 267.008 419.54 266.118 423.211 264.282L416.95 251.76L410.689 239.238C410.83 239.167 411.004 239.102 411.192 239.059C411.379 239.015 411.515 239.008 411.574 239.008V253.008ZM416.95 251.76L423.211 264.282C426.593 262.591 429.508 260.277 431.931 257.49L421.366 248.304L410.802 239.118C410.722 239.21 410.678 239.244 410.674 239.247C410.671 239.249 410.672 239.248 410.677 239.245C410.682 239.242 410.687 239.239 410.689 239.238L416.95 251.76ZM421.366 248.304L432.121 257.267C434.578 254.318 436.371 251.002 437.582 247.479L424.342 242.928L411.103 238.377C410.906 238.95 410.714 239.218 410.611 239.341L421.366 248.304ZM424.342 242.928L437.582 247.479C438.834 243.836 439.398 240.076 439.398 236.304H425.398H411.398C411.398 237.268 411.258 237.924 411.103 238.377L424.342 242.928ZM425.398 236.304H439.398C439.398 232.52 438.849 228.699 437.536 224.998L424.342 229.68L411.148 234.362C411.243 234.629 411.398 235.224 411.398 236.304H425.398ZM424.342 229.68L437.536 224.998C436.292 221.493 434.45 218.207 431.931 215.309L421.366 224.496L410.802 233.683C410.842 233.729 410.984 233.899 411.148 234.362L424.342 229.68ZM421.366 224.496L432.121 215.533C429.633 212.548 426.535 210.045 422.817 208.329L416.95 221.04L411.083 233.751C410.913 233.673 410.773 233.583 410.674 233.505C410.578 233.43 410.561 233.399 410.611 233.459L421.366 224.496ZM416.95 221.04L423.211 208.518C419.54 206.682 415.596 205.792 411.574 205.792V219.792V233.792C411.515 233.792 411.379 233.785 411.192 233.741C411.004 233.698 410.83 233.633 410.689 233.562L416.95 221.04ZM451.588 202.704V188.704C443.856 188.704 437.588 194.972 437.588 202.704H451.588ZM470.212 202.704L481.302 194.16C478.651 190.719 474.554 188.704 470.212 188.704V202.704ZM502.756 244.944L507.247 258.204C511.528 256.754 514.846 253.326 516.155 248.999C517.465 244.673 516.605 239.98 513.846 236.4L502.756 244.944ZM496.804 246.96H482.804C482.804 251.472 484.978 255.708 488.645 258.337C492.312 260.967 497.021 261.668 501.295 260.22L496.804 246.96ZM496.804 202.704V188.704C489.072 188.704 482.804 194.972 482.804 202.704H496.804ZM516.964 202.704H530.964C530.964 194.972 524.695 188.704 516.964 188.704V202.704ZM516.964 270V284C524.695 284 530.964 277.732 530.964 270H516.964ZM498.34 270L487.256 278.553C489.907 281.988 494.001 284 498.34 284V270ZM465.892 227.952L461.4 214.692C457.117 216.143 453.798 219.573 452.49 223.902C451.182 228.231 452.045 232.925 454.808 236.505L465.892 227.952ZM471.844 225.936H485.844C485.844 221.424 483.669 217.188 480.002 214.559C476.335 211.929 471.626 211.228 467.352 212.676L471.844 225.936ZM471.844 270V284C479.575 284 485.844 277.732 485.844 270H471.844ZM451.588 270H437.588C437.588 277.732 443.856 284 451.588 284V270ZM451.588 202.704V216.704H470.212V202.704V188.704H451.588V202.704ZM470.212 202.704L459.121 211.248L491.665 253.488L502.756 244.944L513.846 236.4L481.302 194.16L470.212 202.704ZM502.756 244.944L498.264 231.684L492.312 233.7L496.804 246.96L501.295 260.22L507.247 258.204L502.756 244.944ZM496.804 246.96H510.804V202.704H496.804H482.804V246.96H496.804ZM496.804 202.704V216.704H516.964V202.704V188.704H496.804V202.704ZM516.964 202.704H502.964V270H516.964H530.964V202.704H516.964ZM516.964 270V256H498.34V270V284H516.964V270ZM498.34 270L509.423 261.447L476.975 219.399L465.892 227.952L454.808 236.505L487.256 278.553L498.34 270ZM465.892 227.952L470.383 241.212L476.335 239.196L471.844 225.936L467.352 212.676L461.4 214.692L465.892 227.952ZM471.844 225.936H457.844V270H471.844H485.844V225.936H471.844ZM471.844 270V256H451.588V270V284H471.844V270ZM451.588 270H465.588V202.704H451.588H437.588V270H451.588ZM574.108 226.032L566.905 238.037C570.291 240.069 574.379 240.576 578.16 239.433C581.94 238.29 585.062 235.603 586.755 232.034L574.108 226.032ZM566.428 222.192L571.873 209.295L571.873 209.295L566.428 222.192ZM557.98 219.216L554.133 232.677C554.161 232.685 554.189 232.693 554.216 232.701L557.98 219.216ZM547.996 218.736L540.941 206.643L540.941 206.643L547.996 218.736ZM548.668 224.208L540.762 235.762C540.992 235.919 541.226 236.07 541.465 236.213L548.668 224.208ZM553.66 226.224L549.869 239.701C549.905 239.711 549.94 239.721 549.976 239.731L553.66 226.224ZM560.572 228.144L556.771 241.618C556.878 241.649 556.986 241.678 557.094 241.705L560.572 228.144ZM567.964 230.64L562.531 243.543C562.666 243.6 562.801 243.654 562.938 243.707L567.964 230.64ZM574.78 234.384L566.38 245.584C566.434 245.625 566.49 245.666 566.545 245.706L574.78 234.384ZM579.772 240.336L567.25 246.597C567.293 246.684 567.337 246.77 567.383 246.856L579.772 240.336ZM577.756 261.744L588.581 270.621C588.61 270.586 588.638 270.551 588.667 270.516L577.756 261.744ZM567.388 268.944L572.109 282.124C572.167 282.103 572.224 282.082 572.282 282.061L567.388 268.944ZM541.372 270L538.334 283.667C538.418 283.685 538.501 283.703 538.585 283.72L541.372 270ZM529.756 266.256L524.029 279.031C524.09 279.059 524.152 279.086 524.214 279.113L529.756 266.256ZM519.676 260.304L507.111 254.129C504.166 260.121 505.862 267.359 511.162 271.418L519.676 260.304ZM527.932 243.504L537.067 232.895C533.783 230.067 529.375 228.92 525.129 229.787C520.883 230.655 517.278 233.44 515.367 237.329L527.932 243.504ZM536.092 248.88L542.454 236.409L542.454 236.409L536.092 248.88ZM557.5 253.296L564.702 265.301C564.893 265.187 565.081 265.068 565.265 264.945L557.5 253.296ZM557.02 247.344L549.114 258.898C549.344 259.055 549.578 259.206 549.817 259.349L557.02 247.344ZM552.028 245.232L548.237 258.709C548.273 258.719 548.308 258.729 548.344 258.739L552.028 245.232ZM545.212 243.504L541.734 257.065C541.844 257.093 541.953 257.12 542.063 257.145L545.212 243.504ZM537.724 241.2L532.583 254.222C532.719 254.276 532.856 254.327 532.993 254.377L537.724 241.2ZM530.908 237.552L522.508 248.752C522.637 248.849 522.769 248.945 522.902 249.038L530.908 237.552ZM525.916 231.792L513.534 238.327C513.581 238.415 513.629 238.503 513.677 238.591L525.916 231.792ZM527.644 211.344L539.051 219.461L539.051 219.461L527.644 211.344ZM537.628 203.664L532.297 190.719C532.274 190.728 532.252 190.737 532.229 190.747L537.628 203.664ZM568.636 203.184L564.811 216.652C564.826 216.656 564.84 216.66 564.855 216.664L568.636 203.184ZM582.172 209.04L594.819 215.042C597.836 208.687 595.667 201.079 589.752 197.27L582.172 209.04ZM574.108 226.032L581.31 214.027C578.409 212.287 575.245 210.718 571.873 209.295L566.428 222.192L560.982 235.089C563.37 236.098 565.326 237.089 566.905 238.037L574.108 226.032ZM566.428 222.192L571.873 209.295C568.496 207.869 565.118 206.673 561.743 205.731L557.98 219.216L554.216 232.701C556.345 233.295 558.599 234.083 560.982 235.089L566.428 222.192ZM557.98 219.216L561.826 205.755C558.354 204.763 554.666 204.064 550.972 204.064V218.064V232.064C551.245 232.064 552.229 232.133 554.133 232.677L557.98 219.216ZM550.972 218.064V204.064C548.151 204.064 544.497 204.569 540.941 206.643L547.996 218.736L555.05 230.829C553.03 232.007 551.36 232.064 550.972 232.064V218.064ZM547.996 218.736L540.941 206.643C534.854 210.194 532.844 216.277 532.844 221.04H546.844H560.844C560.844 222.105 560.658 223.9 559.653 225.909C558.584 228.049 556.928 229.733 555.05 230.829L547.996 218.736ZM546.844 221.04H532.844C532.844 227.695 536.399 232.777 540.762 235.762L548.668 224.208L556.573 212.654C557.342 213.18 558.491 214.173 559.432 215.807C560.414 217.512 560.844 219.357 560.844 221.04H546.844ZM548.668 224.208L541.465 236.213C544.157 237.829 547.086 238.918 549.869 239.701L553.66 226.224L557.45 212.747C556.831 212.573 556.398 212.42 556.118 212.307C555.833 212.192 555.773 212.145 555.87 212.203L548.668 224.208ZM553.66 226.224L549.976 239.731C552.043 240.294 554.307 240.923 556.771 241.618L560.572 228.144L564.372 214.67C561.844 213.957 559.5 213.306 557.343 212.717L553.66 226.224ZM560.572 228.144L557.094 241.705C558.907 242.17 560.718 242.78 562.531 243.543L567.964 230.64L573.396 217.737C570.345 216.452 567.228 215.398 564.049 214.583L560.572 228.144ZM567.964 230.64L562.938 243.707C564.282 244.224 565.41 244.857 566.38 245.584L574.78 234.384L583.179 223.184C580.053 220.839 576.637 218.976 572.989 217.573L567.964 230.64ZM574.78 234.384L566.545 245.706C566.767 245.868 566.994 246.086 567.25 246.597L579.772 240.336L592.293 234.075C590.117 229.722 587.016 225.972 583.014 223.062L574.78 234.384ZM579.772 240.336L567.383 246.856C567.349 246.792 567.692 247.395 567.692 249.264H581.692H595.692C595.692 244.093 594.754 238.744 592.16 233.816L579.772 240.336ZM581.692 249.264H567.692C567.692 251.814 567.079 252.681 566.844 252.972L577.756 261.744L588.667 270.516C593.68 264.279 595.692 256.826 595.692 249.264H581.692ZM577.756 261.744L566.93 252.867C566.036 253.957 564.716 254.998 562.493 255.827L567.388 268.944L572.282 282.061C578.635 279.69 584.227 275.931 588.581 270.621L577.756 261.744ZM567.388 268.944L562.666 255.764C560.051 256.701 556.994 257.248 553.372 257.248V271.248V285.248C559.861 285.248 566.148 284.259 572.109 282.124L567.388 268.944ZM553.372 271.248V257.248C550.467 257.248 547.401 256.939 544.158 256.28L541.372 270L538.585 283.72C543.534 284.725 548.468 285.248 553.372 285.248V271.248ZM541.372 270L544.409 256.333C541.216 255.624 538.184 254.644 535.297 253.399L529.756 266.256L524.214 279.113C528.751 281.068 533.463 282.584 538.334 283.667L541.372 270ZM529.756 266.256L535.482 253.481C532.688 252.228 530.275 250.788 528.189 249.19L519.676 260.304L511.162 271.418C515.092 274.428 519.399 276.956 524.029 279.031L529.756 266.256ZM519.676 260.304L532.24 266.479L540.496 249.679L527.932 243.504L515.367 237.329L507.111 254.129L519.676 260.304ZM527.932 243.504L518.796 254.113C522.067 256.93 525.75 259.321 529.729 261.351L536.092 248.88L542.454 236.409C540.161 235.239 538.404 234.046 537.067 232.895L527.932 243.504ZM536.092 248.88L529.729 261.351C533.539 263.295 537.431 264.891 541.402 266.107L545.5 252.72L549.598 239.333C547.296 238.629 544.916 237.665 542.454 236.409L536.092 248.88ZM545.5 252.72L541.402 266.107C545.309 267.303 549.453 268.16 553.564 268.16V254.16V240.16C553.194 240.16 551.962 240.057 549.598 239.333L545.5 252.72ZM553.564 254.16V268.16C556.615 268.16 560.756 267.669 564.702 265.301L557.5 253.296L550.297 241.291C551.347 240.661 552.255 240.388 552.794 240.27C553.325 240.153 553.615 240.16 553.564 240.16V254.16ZM557.5 253.296L565.265 264.945C570.596 261.391 572.94 255.774 572.94 250.416H558.94H544.94C544.94 249.298 545.156 247.639 546.058 245.835C546.988 243.973 548.343 242.574 549.734 241.647L557.5 253.296ZM558.94 250.416H572.94C572.94 243.323 568.89 238.14 564.222 235.339L557.02 247.344L549.817 259.349C549 258.859 547.684 257.863 546.588 256.108C545.432 254.259 544.94 252.235 544.94 250.416H558.94ZM557.02 247.344L564.925 235.79C561.957 233.759 558.67 232.532 555.711 231.725L552.028 245.232L548.344 258.739C548.918 258.895 549.254 259.022 549.405 259.086C549.562 259.152 549.426 259.112 549.114 258.898L557.02 247.344ZM552.028 245.232L555.818 231.755C553.52 231.108 551.029 230.479 548.36 229.863L545.212 243.504L542.063 257.145C544.386 257.681 546.439 258.204 548.237 258.709L552.028 245.232ZM545.212 243.504L548.689 229.943C546.628 229.414 544.55 228.776 542.454 228.023L537.724 241.2L532.993 254.377C535.889 255.416 538.803 256.314 541.734 257.065L545.212 243.504ZM537.724 241.2L542.864 228.178C541.427 227.611 540.119 226.907 538.913 226.066L530.908 237.552L522.902 249.038C525.92 251.141 529.156 252.869 532.583 254.222L537.724 241.2ZM530.908 237.552L539.307 226.352C538.881 226.032 538.507 225.629 538.154 224.993L525.916 231.792L513.677 238.591C515.884 242.563 518.838 246 522.508 248.752L530.908 237.552ZM525.916 231.792L538.297 225.257C538.434 225.517 538.092 225.046 538.092 223.152H524.092H510.092C510.092 228.17 510.965 233.459 513.534 238.327L525.916 231.792ZM524.092 223.152H538.092C538.092 221.175 538.557 220.154 539.051 219.461L527.644 211.344L516.236 203.227C511.994 209.19 510.092 216.041 510.092 223.152H524.092ZM527.644 211.344L539.051 219.461C539.703 218.544 540.809 217.508 543.026 216.581L537.628 203.664L532.229 190.747C525.87 193.404 520.32 197.488 516.236 203.227L527.644 211.344ZM537.628 203.664L542.958 216.609C545.269 215.658 548.476 214.976 552.892 214.976V200.976V186.976C545.659 186.976 538.69 188.086 532.297 190.719L537.628 203.664ZM552.892 200.976V214.976C556.892 214.976 560.853 215.528 564.811 216.652L568.636 203.184L572.46 189.716C566.05 187.896 559.515 186.976 552.892 186.976V200.976ZM568.636 203.184L564.855 216.664C569.034 217.836 572.208 219.276 574.591 220.81L582.172 209.04L589.752 197.27C584.583 193.94 578.733 191.476 572.416 189.704L568.636 203.184ZM582.172 209.04L569.524 203.038L561.46 220.03L574.108 226.032L586.755 232.034L594.819 215.042L582.172 209.04ZM584.577 202.704V188.704C576.846 188.704 570.577 194.972 570.577 202.704H584.577ZM641.505 202.704H655.505C655.505 194.972 649.237 188.704 641.505 188.704V202.704ZM641.505 219.6V233.6C649.237 233.6 655.505 227.332 655.505 219.6H641.505ZM606.849 219.6V205.6C599.118 205.6 592.849 211.868 592.849 219.6H606.849ZM606.849 227.856H592.849C592.849 235.588 599.118 241.856 606.849 241.856V227.856ZM638.337 227.856H652.337C652.337 220.124 646.069 213.856 638.337 213.856V227.856ZM638.337 244.752V258.752C646.069 258.752 652.337 252.484 652.337 244.752H638.337ZM606.849 244.752V230.752C599.118 230.752 592.849 237.02 592.849 244.752H606.849ZM606.849 253.104H592.849C592.849 260.836 599.118 267.104 606.849 267.104V253.104ZM642.369 253.104H656.369C656.369 245.372 650.101 239.104 642.369 239.104V253.104ZM642.369 270V284C650.101 284 656.369 277.732 656.369 270H642.369ZM584.577 270H570.577C570.577 277.732 576.846 284 584.577 284V270ZM584.577 202.704V216.704H641.505V202.704V188.704H584.577V202.704ZM641.505 202.704H627.505V219.6H641.505H655.505V202.704H641.505ZM641.505 219.6V205.6H606.849V219.6V233.6H641.505V219.6ZM606.849 219.6H592.849V227.856H606.849H620.849V219.6H606.849ZM606.849 227.856V241.856H638.337V227.856V213.856H606.849V227.856ZM638.337 227.856H624.337V244.752H638.337H652.337V227.856H638.337ZM638.337 244.752V230.752H606.849V244.752V258.752H638.337V244.752ZM606.849 244.752H592.849V253.104H606.849H620.849V244.752H606.849ZM606.849 253.104V267.104H642.369V253.104V239.104H606.849V253.104ZM642.369 253.104H628.369V270H642.369H656.369V253.104H642.369ZM642.369 270V256H584.577V270V284H642.369V270ZM584.577 270H598.577V202.704H584.577H570.577V270H584.577Z" fill="white"/>
<path d="M124.6 191V61.4H180.6V80.76H153.24V113.4H177.08V133.4H153.24V191H124.6ZM187.735 191V61.4H216.375V191H187.735ZM229.3 191V61.4H264.98C273.727 61.4 281.3 62.36 287.7 64.28C294.1 66.2 299.06 69.6667 302.58 74.68C306.207 79.5867 308.02 86.5733 308.02 95.64C308.02 100.973 307.593 105.72 306.74 109.88C305.887 114.04 304.287 117.667 301.94 120.76C299.7 123.747 296.447 126.253 292.18 128.28L309.94 191H280.34L266.1 132.92H257.94V191H229.3ZM257.94 116.44H265.94C269.993 116.44 273.14 115.747 275.38 114.36C277.62 112.867 279.167 110.787 280.02 108.12C280.98 105.347 281.46 102.04 281.46 98.2C281.46 92.6533 280.447 88.3333 278.42 85.24C276.393 82.1467 272.66 80.6 267.22 80.6H257.94V116.44ZM352.613 192.92C344.506 192.92 337.733 191.48 332.293 188.6C326.853 185.72 322.746 181.293 319.973 175.32C317.199 169.24 315.653 161.4 315.333 151.8L339.813 148.12C339.919 153.667 340.399 158.147 341.253 161.56C342.213 164.973 343.493 167.427 345.093 168.92C346.799 170.413 348.826 171.16 351.173 171.16C354.159 171.16 356.079 170.147 356.933 168.12C357.893 166.093 358.373 163.96 358.373 161.72C358.373 156.387 357.093 151.907 354.533 148.28C351.973 144.547 348.506 140.813 344.133 137.08L332.933 127.32C328.026 123.16 323.866 118.467 320.453 113.24C317.146 107.907 315.493 101.347 315.493 93.56C315.493 82.5733 318.746 74.2 325.253 68.44C331.759 62.5733 340.613 59.64 351.813 59.64C358.746 59.64 364.293 60.8133 368.453 63.16C372.719 65.5067 375.919 68.6 378.053 72.44C380.293 76.1733 381.786 80.1733 382.533 84.44C383.386 88.6 383.866 92.6 383.973 96.44L359.333 99.48C359.226 95.64 358.959 92.3333 358.533 89.56C358.213 86.68 357.466 84.4933 356.293 83C355.119 81.4 353.306 80.6 350.853 80.6C348.186 80.6 346.213 81.72 344.933 83.96C343.759 86.2 343.173 88.44 343.173 90.68C343.173 95.48 344.293 99.4267 346.533 102.52C348.879 105.507 351.919 108.653 355.653 111.96L366.373 121.4C372.026 126.2 376.773 131.64 380.613 137.72C384.559 143.8 386.533 151.32 386.533 160.28C386.533 166.36 385.146 171.907 382.373 176.92C379.599 181.827 375.653 185.72 370.533 188.6C365.519 191.48 359.546 192.92 352.613 192.92ZM405.68 191V82.68H386.16V61.4H453.84V82.68H434.48V191H405.68Z" fill="#FF1821"/>
<path d="M124.6 191H110.6C110.6 198.732 116.868 205 124.6 205V191ZM124.6 61.4V47.4C116.868 47.4 110.6 53.668 110.6 61.4H124.6ZM180.6 61.4H194.6C194.6 53.668 188.332 47.4 180.6 47.4V61.4ZM180.6 80.76V94.76C188.332 94.76 194.6 88.492 194.6 80.76H180.6ZM153.24 80.76V66.76C145.508 66.76 139.24 73.028 139.24 80.76H153.24ZM153.24 113.4H139.24C139.24 121.132 145.508 127.4 153.24 127.4V113.4ZM177.08 113.4H191.08C191.08 105.668 184.812 99.4 177.08 99.4V113.4ZM177.08 133.4V147.4C184.812 147.4 191.08 141.132 191.08 133.4H177.08ZM153.24 133.4V119.4C145.508 119.4 139.24 125.668 139.24 133.4H153.24ZM153.24 191V205C160.972 205 167.24 198.732 167.24 191H153.24ZM124.6 191H138.6V61.4H124.6H110.6V191H124.6ZM124.6 61.4V75.4H180.6V61.4V47.4H124.6V61.4ZM180.6 61.4H166.6V80.76H180.6H194.6V61.4H180.6ZM180.6 80.76V66.76H153.24V80.76V94.76H180.6V80.76ZM153.24 80.76H139.24V113.4H153.24H167.24V80.76H153.24ZM153.24 113.4V127.4H177.08V113.4V99.4H153.24V113.4ZM177.08 113.4H163.08V133.4H177.08H191.08V113.4H177.08ZM177.08 133.4V119.4H153.24V133.4V147.4H177.08V133.4ZM153.24 133.4H139.24V191H153.24H167.24V133.4H153.24ZM153.24 191V177H124.6V191V205H153.24V191ZM187.735 191H173.735C173.735 198.732 180.003 205 187.735 205V191ZM187.735 61.4V47.4C180.003 47.4 173.735 53.668 173.735 61.4H187.735ZM216.375 61.4H230.375C230.375 53.668 224.107 47.4 216.375 47.4V61.4ZM216.375 191V205C224.107 205 230.375 198.732 230.375 191H216.375ZM187.735 191H201.735V61.4H187.735H173.735V191H187.735ZM187.735 61.4V75.4H216.375V61.4V47.4H187.735V61.4ZM216.375 61.4H202.375V191H216.375H230.375V61.4H216.375ZM216.375 191V177H187.735V191V205H216.375V191ZM229.3 191H215.3C215.3 198.732 221.568 205 229.3 205V191ZM229.3 61.4V47.4C221.568 47.4 215.3 53.668 215.3 61.4H229.3ZM302.58 74.68L291.122 82.7248C291.188 82.8178 291.254 82.9101 291.322 83.0015L302.58 74.68ZM306.74 109.88L293.026 107.067L293.026 107.067L306.74 109.88ZM301.94 120.76L290.786 112.299C290.771 112.319 290.755 112.339 290.74 112.36L301.94 120.76ZM292.18 128.28L286.173 115.634C280.003 118.565 276.848 125.521 278.71 132.094L292.18 128.28ZM309.94 191V205C314.327 205 318.461 202.943 321.107 199.444C323.753 195.944 324.606 191.407 323.41 187.186L309.94 191ZM280.34 191L266.743 194.334C268.278 200.596 273.892 205 280.34 205V191ZM266.1 132.92L279.697 129.586C278.162 123.324 272.548 118.92 266.1 118.92V132.92ZM257.94 132.92V118.92C250.208 118.92 243.94 125.188 243.94 132.92H257.94ZM257.94 191V205C265.672 205 271.94 198.732 271.94 191H257.94ZM257.94 116.44H243.94C243.94 124.172 250.208 130.44 257.94 130.44V116.44ZM275.38 114.36L282.749 126.264C282.883 126.181 283.015 126.096 283.146 126.009L275.38 114.36ZM280.02 108.12L266.79 103.54C266.754 103.644 266.72 103.749 266.686 103.853L280.02 108.12ZM278.42 85.24L266.71 92.9124L266.71 92.9124L278.42 85.24ZM257.94 80.6V66.6C250.208 66.6 243.94 72.868 243.94 80.6H257.94ZM229.3 191H243.3V61.4H229.3H215.3V191H229.3ZM229.3 61.4V75.4H264.98V61.4V47.4H229.3V61.4ZM264.98 61.4V75.4C272.759 75.4 278.913 76.2604 283.677 77.6896L287.7 64.28L291.723 50.8704C283.687 48.4596 274.694 47.4 264.98 47.4V61.4ZM287.7 64.28L283.677 77.6896C287.358 78.7938 289.575 80.5215 291.122 82.7248L302.58 74.68L314.038 66.6352C308.545 58.8118 300.842 53.6062 291.723 50.8704L287.7 64.28ZM302.58 74.68L291.322 83.0015C292.49 84.5825 294.02 88.1825 294.02 95.64H308.02H322.02C322.02 84.9641 319.923 74.5909 313.838 66.3585L302.58 74.68ZM308.02 95.64H294.02C294.02 100.257 293.648 104.032 293.026 107.067L306.74 109.88L320.454 112.693C321.539 107.408 322.02 101.69 322.02 95.64H308.02ZM306.74 109.88L293.026 107.067C292.553 109.371 291.753 111.024 290.786 112.299L301.94 120.76L313.094 129.221C316.82 124.309 319.22 118.709 320.454 112.693L306.74 109.88ZM301.94 120.76L290.74 112.36C290.175 113.113 288.921 114.329 286.173 115.634L292.18 128.28L298.187 140.926C303.972 138.178 309.225 134.38 313.14 129.16L301.94 120.76ZM292.18 128.28L278.71 132.094L296.47 194.814L309.94 191L323.41 187.186L305.65 124.466L292.18 128.28ZM309.94 191V177H280.34V191V205H309.94V191ZM280.34 191L293.937 187.666L279.697 129.586L266.1 132.92L252.503 136.254L266.743 194.334L280.34 191ZM266.1 132.92V118.92H257.94V132.92V146.92H266.1V132.92ZM257.94 132.92H243.94V191H257.94H271.94V132.92H257.94ZM257.94 191V177H229.3V191V205H257.94V191ZM257.94 116.44V130.44H265.94V116.44V102.44H257.94V116.44ZM265.94 116.44V130.44C271.304 130.44 277.407 129.571 282.749 126.264L275.38 114.36L268.011 102.456C268.494 102.157 268.691 102.168 268.328 102.248C267.959 102.329 267.2 102.44 265.94 102.44V116.44ZM275.38 114.36L283.146 126.009C288.136 122.682 291.576 117.943 293.354 112.387L280.02 108.12L266.686 103.853C266.686 103.853 266.691 103.838 266.702 103.81C266.714 103.782 266.731 103.742 266.756 103.693C266.808 103.591 266.883 103.464 266.986 103.326C267.208 103.028 267.45 102.821 267.614 102.711L275.38 114.36ZM280.02 108.12L293.25 112.7C294.849 108.078 295.46 103.145 295.46 98.2H281.46H267.46C267.46 100.935 267.11 102.615 266.79 103.54L280.02 108.12ZM281.46 98.2H295.46C295.46 91.2037 294.223 83.8146 290.13 77.5676L278.42 85.24L266.71 92.9124C266.67 92.8521 267.46 94.1029 267.46 98.2H281.46ZM278.42 85.24L290.13 77.5676C284.439 68.8802 275 66.6 267.22 66.6V80.6V94.6C267.927 94.6 268.391 94.6511 268.652 94.6951C268.912 94.7389 268.916 94.7661 268.742 94.694C268.556 94.617 268.208 94.443 267.797 94.1125C267.379 93.7753 267.004 93.3621 266.71 92.9124L278.42 85.24ZM267.22 80.6V66.6H257.94V80.6V94.6H267.22V80.6ZM257.94 80.6H243.94V116.44H257.94H271.94V80.6H257.94ZM332.293 188.6L325.742 200.973L325.742 200.973L332.293 188.6ZM319.973 175.32L307.235 181.13C307.248 181.159 307.261 181.187 307.274 181.216L319.973 175.32ZM315.333 151.8L313.251 137.956C306.225 139.012 301.104 145.165 301.34 152.266L315.333 151.8ZM339.813 148.12L353.81 147.851C353.732 143.822 351.923 140.022 348.844 137.423C345.765 134.823 341.716 133.677 337.731 134.276L339.813 148.12ZM341.253 161.56L327.671 164.955C327.704 165.088 327.739 165.219 327.775 165.35L341.253 161.56ZM345.093 168.92L335.54 179.155C335.65 179.257 335.761 179.357 335.873 179.456L345.093 168.92ZM356.933 168.12L344.28 162.127C344.193 162.312 344.109 162.499 344.03 162.687L356.933 168.12ZM354.533 148.28L342.986 156.197C343.022 156.25 343.058 156.302 343.095 156.354L354.533 148.28ZM344.133 137.08L334.935 147.635C334.971 147.666 335.007 147.697 335.043 147.728L344.133 137.08ZM332.933 127.32L342.13 116.765C342.082 116.724 342.034 116.682 341.986 116.641L332.933 127.32ZM320.453 113.24L308.554 120.617C308.612 120.71 308.671 120.803 308.731 120.895L320.453 113.24ZM325.253 68.44L334.532 78.9227C334.564 78.8945 334.596 78.8661 334.627 78.8376L325.253 68.44ZM368.453 63.16L361.574 75.3537C361.618 75.3784 361.662 75.4028 361.706 75.427L368.453 63.16ZM378.053 72.44L365.814 79.239C365.89 79.3749 365.968 79.5096 366.048 79.6429L378.053 72.44ZM382.533 84.44L368.742 86.8533C368.765 86.987 368.791 87.1203 368.818 87.2532L382.533 84.44ZM383.973 96.44L385.687 110.335C392.85 109.451 398.168 103.266 397.967 96.0513L383.973 96.44ZM359.333 99.48L345.338 99.8687C345.447 103.811 347.215 107.525 350.205 110.096C353.196 112.667 357.132 113.858 361.047 113.375L359.333 99.48ZM358.533 89.56L344.618 91.106C344.64 91.3008 344.666 91.4951 344.695 91.6888L358.533 89.56ZM356.293 83L345.003 91.2791C345.095 91.4041 345.188 91.5276 345.284 91.6495L356.293 83ZM344.933 83.96L332.777 77.0141C332.692 77.1625 332.61 77.3125 332.531 77.4639L344.933 83.96ZM346.533 102.52L335.193 110.731C335.301 110.879 335.411 111.026 335.524 111.169L346.533 102.52ZM355.653 111.96L346.37 122.44C346.38 122.449 346.39 122.458 346.4 122.467L355.653 111.96ZM366.373 121.4L357.12 131.907C357.183 131.963 357.247 132.018 357.311 132.072L366.373 121.4ZM380.613 137.72L368.776 145.196C368.807 145.245 368.838 145.294 368.87 145.343L380.613 137.72ZM382.373 176.92L394.56 183.809C394.581 183.772 394.602 183.734 394.623 183.697L382.373 176.92ZM370.533 188.6L363.669 176.398C363.632 176.419 363.595 176.439 363.559 176.461L370.533 188.6ZM352.613 192.92V178.92C346.091 178.92 341.727 177.754 338.843 176.227L332.293 188.6L325.742 200.973C333.738 205.206 342.92 206.92 352.613 206.92V192.92ZM332.293 188.6L338.843 176.227C336.299 174.88 334.253 172.832 332.671 169.424L319.973 175.32L307.274 181.216C311.239 189.755 317.406 196.56 325.742 200.973L332.293 188.6ZM319.973 175.32L332.71 169.51C330.961 165.676 329.608 159.83 329.325 151.334L315.333 151.8L301.34 152.266C301.697 162.97 303.437 172.804 307.235 181.13L319.973 175.32ZM315.333 151.8L317.414 165.644L341.894 161.964L339.813 148.12L337.731 134.276L313.251 137.956L315.333 151.8ZM339.813 148.12L325.815 148.389C325.932 154.461 326.459 160.108 327.671 164.955L341.253 161.56L354.834 158.164C354.34 156.185 353.906 152.873 353.81 147.851L339.813 148.12ZM341.253 161.56L327.775 165.35C329.041 169.852 331.241 175.142 335.54 179.155L345.093 168.92L354.645 158.685C355.265 159.264 355.436 159.66 355.345 159.484C355.306 159.41 355.223 159.239 355.112 158.946C355 158.654 354.87 158.267 354.73 157.77L341.253 161.56ZM345.093 168.92L335.873 179.456C340.228 183.266 345.564 185.16 351.173 185.16V171.16V157.16C351.508 157.16 352.067 157.218 352.732 157.463C353.405 157.711 353.942 158.06 354.312 158.384L345.093 168.92ZM351.173 171.16V185.16C354.131 185.16 357.8 184.675 361.387 182.781C365.249 180.743 368.171 177.507 369.835 173.553L356.933 168.12L344.03 162.687C344.841 160.76 346.376 159.044 348.318 158.019C349.167 157.571 349.897 157.359 350.381 157.259C350.857 157.161 351.143 157.16 351.173 157.16V171.16ZM356.933 168.12L369.585 174.113C371.431 170.215 372.373 166.035 372.373 161.72H358.373H344.373C344.373 161.885 344.354 161.971 344.28 162.127L356.933 168.12ZM358.373 161.72H372.373C372.373 154.09 370.51 146.638 365.97 140.206L354.533 148.28L343.095 156.354C343.675 157.175 344.373 158.683 344.373 161.72H358.373ZM354.533 148.28L366.079 140.363C362.666 135.385 358.292 130.76 353.222 126.432L344.133 137.08L335.043 147.728C338.72 150.867 341.279 153.708 342.986 156.197L354.533 148.28ZM344.133 137.08L353.33 126.525L342.13 116.765L332.933 127.32L323.735 137.875L334.935 147.635L344.133 137.08ZM332.933 127.32L341.986 116.641C338.078 113.328 334.826 109.646 332.174 105.585L320.453 113.24L308.731 120.895C312.905 127.287 317.973 132.992 323.879 137.999L332.933 127.32ZM320.453 113.24L332.351 105.863C330.714 103.223 329.493 99.3658 329.493 93.56H315.493H301.493C301.493 103.328 303.577 112.591 308.554 120.617L320.453 113.24ZM315.493 93.56H329.493C329.493 85.445 331.785 81.3547 334.532 78.9227L325.253 68.44L315.973 57.9573C305.707 67.0453 301.493 79.7017 301.493 93.56H315.493ZM325.253 68.44L334.627 78.8376C337.908 75.8796 343.08 73.64 351.813 73.64V59.64V45.64C338.145 45.64 325.61 49.2671 315.878 58.0424L325.253 68.44ZM351.813 59.64V73.64C357.354 73.64 360.251 74.6072 361.574 75.3537L368.453 63.16L375.331 50.9663C368.334 47.0195 360.138 45.64 351.813 45.64V59.64ZM368.453 63.16L361.706 75.427C363.923 76.6463 365.097 77.9472 365.814 79.239L378.053 72.44L390.291 65.641C386.742 59.2528 381.516 54.367 375.199 50.893L368.453 63.16ZM378.053 72.44L366.048 79.6429C367.408 81.9106 368.293 84.2881 368.742 86.8533L382.533 84.44L396.323 82.0267C395.279 76.0585 393.177 70.4361 390.057 65.2371L378.053 72.44ZM382.533 84.44L368.818 87.2532C369.525 90.6972 369.896 93.8835 369.978 96.8287L383.973 96.44L397.967 96.0513C397.836 91.3164 397.247 86.5028 396.247 81.6268L382.533 84.44ZM383.973 96.44L382.258 82.5453L357.618 85.5853L359.333 99.48L361.047 113.375L385.687 110.335L383.973 96.44ZM359.333 99.48L373.327 99.0913C373.21 94.8648 372.911 90.9467 372.37 87.4312L358.533 89.56L344.695 91.6888C345.008 93.7199 345.242 96.4152 345.338 99.8687L359.333 99.48ZM358.533 89.56L372.447 88.014C371.979 83.8031 370.722 78.7047 367.301 74.3505L356.293 83L345.284 91.6495C344.712 90.9215 344.513 90.3698 344.484 90.284C344.457 90.2047 344.544 90.4364 344.618 91.106L358.533 89.56ZM356.293 83L367.582 74.7209C363.144 68.6694 356.587 66.6 350.853 66.6V80.6V94.6C350.583 94.6 349.645 94.5576 348.402 94.0088C347.062 93.4178 345.865 92.4546 345.003 91.2791L356.293 83ZM350.853 80.6V66.6C343.371 66.6 336.652 70.2337 332.777 77.0141L344.933 83.96L357.088 90.9059C356.655 91.6634 355.769 92.7722 354.283 93.6156C352.82 94.4459 351.515 94.6 350.853 94.6V80.6ZM344.933 83.96L332.531 77.4639C330.444 81.447 329.173 85.8996 329.173 90.68H343.173H357.173C357.173 90.733 357.169 90.7802 357.164 90.8178C357.159 90.8551 357.154 90.8725 357.156 90.867C357.158 90.8589 357.194 90.7244 357.334 90.4561L344.933 83.96ZM343.173 90.68H329.173C329.173 97.6648 330.824 104.697 335.193 110.731L346.533 102.52L357.872 94.3089C357.761 94.1564 357.173 93.2952 357.173 90.68H343.173ZM346.533 102.52L335.524 111.169C338.522 114.985 342.19 118.738 346.37 122.44L355.653 111.96L364.935 101.48C361.648 98.5683 359.237 96.0286 357.541 93.8705L346.533 102.52ZM355.653 111.96L346.4 122.467L357.12 131.907L366.373 121.4L375.625 110.893L364.905 101.453L355.653 111.96ZM366.373 121.4L357.311 132.072C361.917 135.983 365.717 140.353 368.776 145.196L380.613 137.72L392.449 130.244C387.828 122.927 382.135 116.417 375.434 110.728L366.373 121.4ZM380.613 137.72L368.87 145.343C371.029 148.67 372.533 153.385 372.533 160.28H386.533H400.533C400.533 149.255 398.089 138.93 392.355 130.097L380.613 137.72ZM386.533 160.28H372.533C372.533 164.139 371.677 167.332 370.122 170.143L382.373 176.92L394.623 183.697C398.614 176.482 400.533 168.581 400.533 160.28H386.533ZM382.373 176.92L370.185 170.031C368.723 172.618 366.661 174.715 363.669 176.398L370.533 188.6L377.396 200.802C384.644 196.725 390.476 191.035 394.56 183.809L382.373 176.92ZM370.533 188.6L363.559 176.461C361.054 177.9 357.586 178.92 352.613 178.92V192.92V206.92C361.505 206.92 369.985 205.06 377.506 200.739L370.533 188.6ZM405.68 191H391.68C391.68 198.732 397.948 205 405.68 205V191ZM405.68 82.68H419.68C419.68 74.948 413.412 68.68 405.68 68.68V82.68ZM386.16 82.68H372.16C372.16 90.412 378.428 96.68 386.16 96.68V82.68ZM386.16 61.4V47.4C378.428 47.4 372.16 53.668 372.16 61.4H386.16ZM453.84 61.4H467.84C467.84 53.668 461.572 47.4 453.84 47.4V61.4ZM453.84 82.68V96.68C461.572 96.68 467.84 90.412 467.84 82.68H453.84ZM434.48 82.68V68.68C426.748 68.68 420.48 74.948 420.48 82.68H434.48ZM434.48 191V205C442.212 205 448.48 198.732 448.48 191H434.48ZM405.68 191H419.68V82.68H405.68H391.68V191H405.68ZM405.68 82.68V68.68H386.16V82.68V96.68H405.68V82.68ZM386.16 82.68H400.16V61.4H386.16H372.16V82.68H386.16ZM386.16 61.4V75.4H453.84V61.4V47.4H386.16V61.4ZM453.84 61.4H439.84V82.68H453.84H467.84V61.4H453.84ZM453.84 82.68V68.68H434.48V82.68V96.68H453.84V82.68ZM434.48 82.68H420.48V191H434.48H448.48V82.68H434.48ZM434.48 191V177H405.68V191V205H434.48V191Z" fill="white"/>
<path d="M734.177 81.7662C740.557 80.2373 748.016 79.3364 754.555 83.6263C757.971 85.8671 760.296 88.9918 762.025 92.1851C763.733 95.3408 765.133 99.0813 766.44 103.156C768.677 110.129 772.594 119.344 776.054 134.848C779.275 149.275 782.217 169.411 783.95 200.261C785.445 200.631 787.131 201.258 788.789 202.351C792.22 204.613 794.222 207.949 795.434 211.44C796.602 214.804 797.255 218.92 797.619 223.787C798.29 232.768 799.214 243.085 800.097 252.835C800.974 262.532 801.816 271.723 802.308 278.293C802.794 284.799 802.971 291.985 801.126 298.023C800.147 301.227 798.481 304.53 795.637 307.249C795.025 307.834 794.381 308.364 793.712 308.849C795.732 328.821 799.911 360.328 809.472 394.734C810.101 396.088 810.904 397.339 812.043 399.143C813.012 400.676 815.055 403.786 815.781 407.424C816.72 412.137 815.392 416.596 812.29 420.336C809.646 423.523 805.75 426.168 801.221 428.642C792.544 433.383 781.482 439.817 760.388 443.457C739.724 447.022 709.781 447.87 662.814 442.717C659.502 442.571 655.47 442.487 652.325 442.21C650.619 442.06 648.756 441.826 646.965 441.395C645.256 440.983 642.976 440.247 640.868 438.73C638.522 437.042 636.459 434.409 635.79 430.831C635.182 427.574 635.946 424.65 636.826 422.507C638.503 418.424 641.898 414.128 646.103 409.618C653.683 401.488 661.888 389.913 668.695 377.399C675.534 364.829 680.615 351.946 682.455 341.235C683.481 335.26 683.977 330.905 683.873 327.686C683.768 324.467 683.095 323.697 683.058 323.655C683.033 323.626 682.886 323.453 682.354 323.224C681.766 322.97 680.72 322.657 678.984 322.476C675.403 322.105 669.972 322.396 661.9 323.778C645.192 326.638 625.154 331.774 601.632 336.575C578.685 341.258 553.491 345.355 528.903 345.452C481.507 345.641 456.231 349.047 314.621 333.71C172.783 318.348 178.08 316.651 141.081 317.185C105.917 317.692 80.8313 332.911 69.2056 338.873C66.3703 340.327 64.672 341.408 61.5524 343.095C58.9581 344.498 55.6994 346.12 52.1027 346.948C48.2423 347.837 43.9166 347.834 39.4644 345.967C35.2069 344.181 31.6554 341.034 28.5501 337.117C23.592 330.862 20.3992 326.23 18.8851 321.413C18.0837 318.863 17.8495 316.602 17.7578 314.593C17.7144 313.643 17.7004 312.659 17.6862 311.79C17.6713 310.879 17.655 309.978 17.6142 308.978C17.5753 308.027 17.5072 307.318 17.4246 306.119C17.3539 305.093 17.2708 303.663 17.3702 302.143C17.6038 298.573 18.8317 294.796 22.1445 291.44C24.9656 288.581 28.8107 286.548 33.1138 284.802C37.5611 282.997 43.4338 281.14 51.0928 279.046C67.5074 274.557 90.5554 273.395 112.22 273.356C134.091 273.317 155.788 274.443 169.537 274.917C198.482 275.914 332.163 285.634 387.707 285.589C443.856 285.543 554.076 290.014 650.559 239.364C665.465 230.587 679.946 222.969 685.434 220.203L685.692 220.078C686.988 219.473 688.405 219.168 689.837 219.187L701.944 219.348L702.214 219.356C702.305 219.36 702.395 219.364 702.484 219.371C703.01 219.408 713.278 218.765 717.16 198.677C722.711 169.954 722.901 136.155 718.267 114.422C716.108 104.297 716.402 95.8785 720.124 89.7359C723.676 83.8732 729.304 81.7115 734.177 81.7662Z" fill="black" stroke="white" stroke-width="19" stroke-linejoin="round"/>
<path d="M156.344 202.704C165.496 202.704 172.568 204.816 177.56 209.04C182.552 213.2 185.048 219.12 185.048 226.8C185.048 234.928 182.552 241.264 177.56 245.808C172.568 250.288 165.496 252.528 156.344 252.528H146.072V270H123.8V202.704H156.344ZM156.344 235.632C158.776 235.632 160.632 234.928 161.912 233.52C163.256 232.048 163.928 230.032 163.928 227.472C163.928 224.976 163.256 223.056 161.912 221.712C160.632 220.304 158.776 219.6 156.344 219.6H146.072V235.632H156.344ZM150.68 244.56H172.184L187.64 270H162.488L150.68 244.56ZM190.483 202.704H247.411V219.6H212.755V227.856H244.243V244.752H212.755V253.104H248.275V270H190.483V202.704ZM304.284 226.032C302.044 224.688 299.484 223.408 296.604 222.192C293.724 220.976 290.908 219.984 288.156 219.216C285.468 218.448 283.132 218.064 281.148 218.064C279.932 218.064 278.94 218.288 278.172 218.736C277.404 219.184 277.02 219.952 277.02 221.04C277.02 222.32 277.628 223.376 278.844 224.208C280.124 224.976 281.788 225.648 283.836 226.224C285.948 226.8 288.252 227.44 290.748 228.144C293.244 228.784 295.708 229.616 298.14 230.64C300.636 231.6 302.908 232.848 304.956 234.384C307.068 235.92 308.732 237.904 309.948 240.336C311.228 242.768 311.868 245.744 311.868 249.264C311.868 254.32 310.556 258.48 307.932 261.744C305.308 264.944 301.852 267.344 297.564 268.944C293.276 270.48 288.604 271.248 283.548 271.248C279.644 271.248 275.644 270.832 271.548 270C267.516 269.104 263.644 267.856 259.932 266.256C256.22 264.592 252.86 262.608 249.852 260.304L258.108 243.504C260.412 245.488 263.132 247.28 266.268 248.88C269.404 250.48 272.54 251.76 275.676 252.72C278.812 253.68 281.5 254.16 283.74 254.16C285.404 254.16 286.716 253.872 287.676 253.296C288.636 252.656 289.116 251.696 289.116 250.416C289.116 249.136 288.476 248.112 287.196 247.344C285.98 246.512 284.316 245.808 282.204 245.232C280.156 244.656 277.884 244.08 275.388 243.504C272.892 242.864 270.396 242.096 267.9 241.2C265.468 240.24 263.196 239.024 261.084 237.552C259.036 236.016 257.372 234.096 256.092 231.792C254.876 229.488 254.268 226.608 254.268 223.152C254.268 218.608 255.452 214.672 257.82 211.344C260.188 208.016 263.516 205.456 267.804 203.664C272.156 201.872 277.244 200.976 283.068 200.976C288.38 200.976 293.628 201.712 298.812 203.184C304.06 204.656 308.572 206.608 312.348 209.04L304.284 226.032ZM346.338 202.704C355.106 202.704 361.89 204.816 366.69 209.04C371.49 213.2 373.89 219.12 373.89 226.8C373.89 234.928 371.49 241.264 366.69 245.808C361.89 250.288 355.106 252.528 346.338 252.528H327.33L337.026 242.832V270H314.754V202.704H346.338ZM345.186 235.632C347.618 235.632 349.474 234.928 350.754 233.52C352.098 232.048 352.77 230.032 352.77 227.472C352.77 224.976 352.098 223.056 350.754 221.712C349.474 220.304 347.618 219.6 345.186 219.6H327.33L337.026 209.904V245.328L327.33 235.632H345.186ZM411.286 201.264C416.662 201.264 421.59 202.128 426.07 203.856C430.55 205.584 434.454 208.016 437.782 211.152C441.11 214.288 443.67 218 445.462 222.288C447.318 226.512 448.246 231.152 448.246 236.208C448.246 241.264 447.318 245.968 445.462 250.32C443.67 254.608 441.11 258.352 437.782 261.552C434.454 264.688 430.55 267.152 426.07 268.944C421.59 270.672 416.662 271.536 411.286 271.536C405.91 271.536 400.982 270.672 396.502 268.944C392.022 267.152 388.118 264.688 384.79 261.552C381.462 258.352 378.87 254.608 377.014 250.32C375.222 246.032 374.326 241.328 374.326 236.208C374.326 231.088 375.222 226.416 377.014 222.192C378.87 217.904 381.462 214.224 384.79 211.152C388.118 208.016 392.022 205.584 396.502 203.856C400.982 202.128 405.91 201.264 411.286 201.264ZM411.574 219.792C409.654 219.792 407.798 220.208 406.006 221.04C404.278 221.808 402.742 222.96 401.398 224.496C400.118 225.968 399.094 227.696 398.326 229.68C397.558 231.664 397.174 233.872 397.174 236.304C397.174 238.672 397.558 240.88 398.326 242.928C399.094 244.976 400.15 246.768 401.494 248.304C402.838 249.776 404.374 250.928 406.102 251.76C407.83 252.592 409.654 253.008 411.574 253.008C413.494 253.008 415.286 252.592 416.95 251.76C418.614 250.928 420.086 249.776 421.366 248.304C422.646 246.768 423.638 244.976 424.342 242.928C425.046 240.88 425.398 238.672 425.398 236.304C425.398 233.872 425.046 231.664 424.342 229.68C423.638 227.696 422.646 225.968 421.366 224.496C420.086 222.96 418.614 221.808 416.95 221.04C415.286 220.208 413.494 219.792 411.574 219.792ZM451.588 202.704H470.212L502.756 244.944L496.804 246.96V202.704H516.964V270H498.34L465.892 227.952L471.844 225.936V270H451.588V202.704ZM574.108 226.032C571.868 224.688 569.308 223.408 566.428 222.192C563.548 220.976 560.732 219.984 557.98 219.216C555.292 218.448 552.956 218.064 550.972 218.064C549.756 218.064 548.764 218.288 547.996 218.736C547.228 219.184 546.844 219.952 546.844 221.04C546.844 222.32 547.452 223.376 548.668 224.208C549.948 224.976 551.612 225.648 553.66 226.224C555.772 226.8 558.076 227.44 560.572 228.144C563.068 228.784 565.532 229.616 567.964 230.64C570.46 231.6 572.732 232.848 574.78 234.384C576.892 235.92 578.556 237.904 579.772 240.336C581.052 242.768 581.692 245.744 581.692 249.264C581.692 254.32 580.38 258.48 577.756 261.744C575.132 264.944 571.676 267.344 567.388 268.944C563.1 270.48 558.428 271.248 553.372 271.248C549.468 271.248 545.468 270.832 541.372 270C537.34 269.104 533.468 267.856 529.756 266.256C526.044 264.592 522.684 262.608 519.676 260.304L527.932 243.504C530.236 245.488 532.956 247.28 536.092 248.88C539.228 250.48 542.364 251.76 545.5 252.72C548.636 253.68 551.324 254.16 553.564 254.16C555.228 254.16 556.54 253.872 557.5 253.296C558.46 252.656 558.94 251.696 558.94 250.416C558.94 249.136 558.3 248.112 557.02 247.344C555.804 246.512 554.14 245.808 552.028 245.232C549.98 244.656 547.708 244.08 545.212 243.504C542.716 242.864 540.22 242.096 537.724 241.2C535.292 240.24 533.02 239.024 530.908 237.552C528.86 236.016 527.196 234.096 525.916 231.792C524.7 229.488 524.092 226.608 524.092 223.152C524.092 218.608 525.276 214.672 527.644 211.344C530.012 208.016 533.34 205.456 537.628 203.664C541.98 201.872 547.068 200.976 552.892 200.976C558.204 200.976 563.452 201.712 568.636 203.184C573.884 204.656 578.396 206.608 582.172 209.04L574.108 226.032ZM584.577 202.704H641.505V219.6H606.849V227.856H638.337V244.752H606.849V253.104H642.369V270H584.577V202.704Z" fill="black"/>
<path d="M124.6 191V61.4H180.6V80.76H153.24V113.4H177.08V133.4H153.24V191H124.6ZM187.735 191V61.4H216.375V191H187.735ZM229.3 191V61.4H264.98C273.727 61.4 281.3 62.36 287.7 64.28C294.1 66.2 299.06 69.6667 302.58 74.68C306.207 79.5867 308.02 86.5733 308.02 95.64C308.02 100.973 307.593 105.72 306.74 109.88C305.887 114.04 304.287 117.667 301.94 120.76C299.7 123.747 296.447 126.253 292.18 128.28L309.94 191H280.34L266.1 132.92H257.94V191H229.3ZM257.94 116.44H265.94C269.993 116.44 273.14 115.747 275.38 114.36C277.62 112.867 279.167 110.787 280.02 108.12C280.98 105.347 281.46 102.04 281.46 98.2C281.46 92.6533 280.447 88.3333 278.42 85.24C276.393 82.1467 272.66 80.6 267.22 80.6H257.94V116.44ZM352.613 192.92C344.506 192.92 337.733 191.48 332.293 188.6C326.853 185.72 322.746 181.293 319.973 175.32C317.199 169.24 315.653 161.4 315.333 151.8L339.813 148.12C339.919 153.667 340.399 158.147 341.253 161.56C342.213 164.973 343.493 167.427 345.093 168.92C346.799 170.413 348.826 171.16 351.173 171.16C354.159 171.16 356.079 170.147 356.933 168.12C357.893 166.093 358.373 163.96 358.373 161.72C358.373 156.387 357.093 151.907 354.533 148.28C351.973 144.547 348.506 140.813 344.133 137.08L332.933 127.32C328.026 123.16 323.866 118.467 320.453 113.24C317.146 107.907 315.493 101.347 315.493 93.56C315.493 82.5733 318.746 74.2 325.253 68.44C331.759 62.5733 340.613 59.64 351.813 59.64C358.746 59.64 364.293 60.8133 368.453 63.16C372.719 65.5067 375.919 68.6 378.053 72.44C380.293 76.1733 381.786 80.1733 382.533 84.44C383.386 88.6 383.866 92.6 383.973 96.44L359.333 99.48C359.226 95.64 358.959 92.3333 358.533 89.56C358.213 86.68 357.466 84.4933 356.293 83C355.119 81.4 353.306 80.6 350.853 80.6C348.186 80.6 346.213 81.72 344.933 83.96C343.759 86.2 343.173 88.44 343.173 90.68C343.173 95.48 344.293 99.4267 346.533 102.52C348.879 105.507 351.919 108.653 355.653 111.96L366.373 121.4C372.026 126.2 376.773 131.64 380.613 137.72C384.559 143.8 386.533 151.32 386.533 160.28C386.533 166.36 385.146 171.907 382.373 176.92C379.599 181.827 375.653 185.72 370.533 188.6C365.519 191.48 359.546 192.92 352.613 192.92ZM405.68 191V82.68H386.16V61.4H453.84V82.68H434.48V191H405.68Z" fill="#FF1821"/>
<path d="M757.394 106.058C752.403 90.4969 748.38 87.8881 735.013 91.346C730.877 90.6357 723.596 93.8603 727.558 112.441C732.51 135.667 732.227 170.78 726.488 200.48C721.896 224.241 708.127 229.292 701.817 228.847L689.71 228.686C684.35 231.388 669.934 238.97 655.153 247.683C556.164 299.726 443.286 295.043 387.715 295.088C332.143 295.134 197.146 285.373 169.21 284.411C141.274 283.449 83.755 279.963 53.599 288.209C23.443 296.455 26.7385 299.578 27.1065 308.591C27.4744 317.605 26.0204 318.634 35.9942 331.215C45.968 343.796 53.6647 336.167 64.8704 330.42C76.076 324.673 103.169 308.23 140.944 307.685C178.718 307.141 174.57 308.985 315.644 324.265C456.719 339.544 481.572 336.141 528.866 335.953C576.159 335.764 626.739 320.158 660.297 314.414C693.856 308.671 695.978 318.625 691.818 342.843C687.659 367.061 669.492 398.463 653.052 416.097C636.611 433.731 648.311 432.544 663.52 433.238C756.914 443.525 779.752 429.547 796.667 420.305C813.582 411.064 804.596 407.603 800.506 397.95C789.429 358.329 785.369 322.47 783.605 302.988C792.824 301.375 793.803 291.954 792.834 279.002C791.866 266.049 789.502 242.628 788.145 224.495C786.789 206.362 781.7 209.963 774.876 208.791C771.612 138.547 762.385 121.619 757.394 106.058Z" fill="black"/>
</g>
<defs>
<clipPath id="clip0_3_870">
<rect width="836" height="486" fill="white"/>
</clipPath>
</defs>
</svg>
