<svg width="836" height="486" viewBox="0 0 836 486" fill="none" xmlns="http://www.w3.org/2000/svg">
<g clip-path="url(#clip0_3_870)">
<rect x="125" y="78" width="309" height="216" fill="white"/>
<rect x="334" y="201" width="309" height="101" fill="white"/>
<path d="M734.122 81.2644C740.517 79.7373 748.13 78.8138 754.829 83.2087C758.338 85.5104 760.713 88.7113 762.465 91.9476C764.195 95.1441 765.606 98.9196 766.916 103.004C769.139 109.935 773.076 119.207 776.543 134.74C779.758 149.144 782.692 169.206 784.428 199.869C785.876 200.26 787.483 200.891 789.065 201.934C792.616 204.275 794.671 207.719 795.906 211.276C797.094 214.7 797.752 218.866 798.117 223.75C798.789 232.727 799.712 243.04 800.595 252.79C801.472 262.485 802.315 271.681 802.806 278.256C803.293 284.763 803.479 292.033 801.604 298.17C800.607 301.432 798.904 304.818 795.982 307.61C795.424 308.143 794.842 308.634 794.238 309.086C796.267 329.049 800.447 360.375 809.945 394.565C810.553 395.866 811.333 397.082 812.466 398.877C813.424 400.394 815.525 403.583 816.271 407.327C817.243 412.203 815.863 416.813 812.675 420.656C809.969 423.917 806.005 426.598 801.461 429.08C792.772 433.827 781.651 440.295 760.473 443.949C739.747 447.524 709.758 448.37 662.778 443.216C659.488 443.071 655.434 442.985 652.281 442.708C650.564 442.557 648.673 442.32 646.848 441.881C645.108 441.462 642.758 440.706 640.576 439.136C638.143 437.385 635.995 434.646 635.299 430.923C634.667 427.537 635.462 424.509 636.363 422.317C638.077 418.144 641.528 413.793 645.738 409.278C653.284 401.184 661.465 389.644 668.256 377.16C675.08 364.617 680.135 351.788 681.962 341.15C682.988 335.18 683.475 330.867 683.372 327.702C683.323 326.179 683.141 325.21 682.961 324.626C682.876 324.348 682.799 324.182 682.753 324.096C682.71 324.015 682.684 323.987 682.682 323.984C682.681 323.983 682.664 323.963 682.607 323.923C682.547 323.88 682.41 323.793 682.156 323.683C681.626 323.455 680.632 323.15 678.932 322.974C675.418 322.609 670.04 322.892 661.984 324.271C645.28 327.13 625.295 332.257 601.731 337.065C578.773 341.751 553.543 345.854 528.906 345.952C481.504 346.141 456.206 349.547 314.567 334.207C172.689 318.84 178.046 317.152 141.088 317.684C106.062 318.189 81.0822 333.345 69.4343 339.319C66.5973 340.774 64.9455 341.828 61.7911 343.534C59.1892 344.941 55.8803 346.591 52.2142 347.435C48.2709 348.343 43.8358 348.343 39.2702 346.428C34.9098 344.599 31.2954 341.384 28.1579 337.427C23.2014 331.174 19.9533 326.478 18.4085 321.563C17.5893 318.957 17.3512 316.649 17.2583 314.616C17.2146 313.657 17.2005 312.664 17.1864 311.798C17.1715 310.888 17.1556 309.993 17.1151 309C17.0766 308.057 17.0097 307.365 16.9262 306.153C16.8553 305.124 16.7696 303.667 16.8714 302.111C17.1114 298.441 18.3777 294.544 21.7887 291.088C24.6819 288.156 28.6029 286.093 32.9258 284.339C37.4007 282.523 43.296 280.659 50.9616 278.563C67.4465 274.056 90.5538 272.896 112.22 272.857C134.102 272.818 155.817 273.943 169.555 274.417C198.552 275.415 332.165 285.133 387.707 285.088C443.886 285.043 553.965 289.503 650.316 238.927C665.229 230.146 679.714 222.526 685.209 219.756L687.396 218.654L689.844 218.687L701.951 218.848L702.236 218.852L702.52 218.872C702.52 218.872 702.524 218.872 702.53 218.872C702.537 218.873 702.547 218.873 702.56 218.873C702.587 218.874 702.625 218.873 702.674 218.871C702.774 218.867 702.91 218.856 703.08 218.832C703.423 218.783 703.873 218.683 704.404 218.499C705.457 218.132 706.8 217.442 708.236 216.194C711.028 213.767 714.707 208.736 716.669 198.583C722.21 169.911 722.395 136.181 717.777 114.527C715.609 104.358 715.876 95.7831 719.697 89.4772C723.339 83.4667 729.108 81.227 734.122 81.2644Z" fill="black" stroke="white" stroke-width="20"/>
<mask id="path-4-outside-1_3_870" maskUnits="userSpaceOnUse" x="113" y="185" width="540" height="97" fill="black">
<rect fill="white" x="113" y="185" width="540" height="97"/>
<path d="M156.344 202.704C165.496 202.704 172.568 204.816 177.56 209.04C182.552 213.2 185.048 219.12 185.048 226.8C185.048 234.928 182.552 241.264 177.56 245.808C172.568 250.288 165.496 252.528 156.344 252.528H146.072V270H123.8V202.704H156.344ZM156.344 235.632C158.776 235.632 160.632 234.928 161.912 233.52C163.256 232.048 163.928 230.032 163.928 227.472C163.928 224.976 163.256 223.056 161.912 221.712C160.632 220.304 158.776 219.6 156.344 219.6H146.072V235.632H156.344ZM150.68 244.56H172.184L187.64 270H162.488L150.68 244.56ZM190.483 202.704H247.411V219.6H212.755V227.856H244.243V244.752H212.755V253.104H248.275V270H190.483V202.704ZM304.284 226.032C302.044 224.688 299.484 223.408 296.604 222.192C293.724 220.976 290.908 219.984 288.156 219.216C285.468 218.448 283.132 218.064 281.148 218.064C279.932 218.064 278.94 218.288 278.172 218.736C277.404 219.184 277.02 219.952 277.02 221.04C277.02 222.32 277.628 223.376 278.844 224.208C280.124 224.976 281.788 225.648 283.836 226.224C285.948 226.8 288.252 227.44 290.748 228.144C293.244 228.784 295.708 229.616 298.14 230.64C300.636 231.6 302.908 232.848 304.956 234.384C307.068 235.92 308.732 237.904 309.948 240.336C311.228 242.768 311.868 245.744 311.868 249.264C311.868 254.32 310.556 258.48 307.932 261.744C305.308 264.944 301.852 267.344 297.564 268.944C293.276 270.48 288.604 271.248 283.548 271.248C279.644 271.248 275.644 270.832 271.548 270C267.516 269.104 263.644 267.856 259.932 266.256C256.22 264.592 252.86 262.608 249.852 260.304L258.108 243.504C260.412 245.488 263.132 247.28 266.268 248.88C269.404 250.48 272.54 251.76 275.676 252.72C278.812 253.68 281.5 254.16 283.74 254.16C285.404 254.16 286.716 253.872 287.676 253.296C288.636 252.656 289.116 251.696 289.116 250.416C289.116 249.136 288.476 248.112 287.196 247.344C285.98 246.512 284.316 245.808 282.204 245.232C280.156 244.656 277.884 244.08 275.388 243.504C272.892 242.864 270.396 242.096 267.9 241.2C265.468 240.24 263.196 239.024 261.084 237.552C259.036 236.016 257.372 234.096 256.092 231.792C254.876 229.488 254.268 226.608 254.268 223.152C254.268 218.608 255.452 214.672 257.82 211.344C260.188 208.016 263.516 205.456 267.804 203.664C272.156 201.872 277.244 200.976 283.068 200.976C288.38 200.976 293.628 201.712 298.812 203.184C304.06 204.656 308.572 206.608 312.348 209.04L304.284 226.032ZM346.338 202.704C355.106 202.704 361.89 204.816 366.69 209.04C371.49 213.2 373.89 219.12 373.89 226.8C373.89 234.928 371.49 241.264 366.69 245.808C361.89 250.288 355.106 252.528 346.338 252.528H327.33L337.026 242.832V270H314.754V202.704H346.338ZM345.186 235.632C347.618 235.632 349.474 234.928 350.754 233.52C352.098 232.048 352.77 230.032 352.77 227.472C352.77 224.976 352.098 223.056 350.754 221.712C349.474 220.304 347.618 219.6 345.186 219.6H327.33L337.026 209.904V245.328L327.33 235.632H345.186ZM411.286 201.264C416.662 201.264 421.59 202.128 426.07 203.856C430.55 205.584 434.454 208.016 437.782 211.152C441.11 214.288 443.67 218 445.462 222.288C447.318 226.512 448.246 231.152 448.246 236.208C448.246 241.264 447.318 245.968 445.462 250.32C443.67 254.608 441.11 258.352 437.782 261.552C434.454 264.688 430.55 267.152 426.07 268.944C421.59 270.672 416.662 271.536 411.286 271.536C405.91 271.536 400.982 270.672 396.502 268.944C392.022 267.152 388.118 264.688 384.79 261.552C381.462 258.352 378.87 254.608 377.014 250.32C375.222 246.032 374.326 241.328 374.326 236.208C374.326 231.088 375.222 226.416 377.014 222.192C378.87 217.904 381.462 214.224 384.79 211.152C388.118 208.016 392.022 205.584 396.502 203.856C400.982 202.128 405.91 201.264 411.286 201.264ZM411.574 219.792C409.654 219.792 407.798 220.208 406.006 221.04C404.278 221.808 402.742 222.96 401.398 224.496C400.118 225.968 399.094 227.696 398.326 229.68C397.558 231.664 397.174 233.872 397.174 236.304C397.174 238.672 397.558 240.88 398.326 242.928C399.094 244.976 400.15 246.768 401.494 248.304C402.838 249.776 404.374 250.928 406.102 251.76C407.83 252.592 409.654 253.008 411.574 253.008C413.494 253.008 415.286 252.592 416.95 251.76C418.614 250.928 420.086 249.776 421.366 248.304C422.646 246.768 423.638 244.976 424.342 242.928C425.046 240.88 425.398 238.672 425.398 236.304C425.398 233.872 425.046 231.664 424.342 229.68C423.638 227.696 422.646 225.968 421.366 224.496C420.086 222.96 418.614 221.808 416.95 221.04C415.286 220.208 413.494 219.792 411.574 219.792ZM451.588 202.704H470.212L502.756 244.944L496.804 246.96V202.704H516.964V270H498.34L465.892 227.952L471.844 225.936V270H451.588V202.704ZM574.108 226.032C571.868 224.688 569.308 223.408 566.428 222.192C563.548 220.976 560.732 219.984 557.98 219.216C555.292 218.448 552.956 218.064 550.972 218.064C549.756 218.064 548.764 218.288 547.996 218.736C547.228 219.184 546.844 219.952 546.844 221.04C546.844 222.32 547.452 223.376 548.668 224.208C549.948 224.976 551.612 225.648 553.66 226.224C555.772 226.8 558.076 227.44 560.572 228.144C563.068 228.784 565.532 229.616 567.964 230.64C570.46 231.6 572.732 232.848 574.78 234.384C576.892 235.92 578.556 237.904 579.772 240.336C581.052 242.768 581.692 245.744 581.692 249.264C581.692 254.32 580.38 258.48 577.756 261.744C575.132 264.944 571.676 267.344 567.388 268.944C563.1 270.48 558.428 271.248 553.372 271.248C549.468 271.248 545.468 270.832 541.372 270C537.34 269.104 533.468 267.856 529.756 266.256C526.044 264.592 522.684 262.608 519.676 260.304L527.932 243.504C530.236 245.488 532.956 247.28 536.092 248.88C539.228 250.48 542.364 251.76 545.5 252.72C548.636 253.68 551.324 254.16 553.564 254.16C555.228 254.16 556.54 253.872 557.5 253.296C558.46 252.656 558.94 251.696 558.94 250.416C558.94 249.136 558.3 248.112 557.02 247.344C555.804 246.512 554.14 245.808 552.028 245.232C549.98 244.656 547.708 244.08 545.212 243.504C542.716 242.864 540.22 242.096 537.724 241.2C535.292 240.24 533.02 239.024 530.908 237.552C528.86 236.016 527.196 234.096 525.916 231.792C524.7 229.488 524.092 226.608 524.092 223.152C524.092 218.608 525.276 214.672 527.644 211.344C530.012 208.016 533.34 205.456 537.628 203.664C541.98 201.872 547.068 200.976 552.892 200.976C558.204 200.976 563.452 201.712 568.636 203.184C573.884 204.656 578.396 206.608 582.172 209.04L574.108 226.032ZM584.577 202.704H641.505V219.6H606.849V227.856H638.337V244.752H606.849V253.104H642.369V270H584.577V202.704Z"/>
</mask>
<path d="M156.344 202.704C165.496 202.704 172.568 204.816 177.56 209.04C182.552 213.2 185.048 219.12 185.048 226.8C185.048 234.928 182.552 241.264 177.56 245.808C172.568 250.288 165.496 252.528 156.344 252.528H146.072V270H123.8V202.704H156.344ZM156.344 235.632C158.776 235.632 160.632 234.928 161.912 233.52C163.256 232.048 163.928 230.032 163.928 227.472C163.928 224.976 163.256 223.056 161.912 221.712C160.632 220.304 158.776 219.6 156.344 219.6H146.072V235.632H156.344ZM150.68 244.56H172.184L187.64 270H162.488L150.68 244.56ZM190.483 202.704H247.411V219.6H212.755V227.856H244.243V244.752H212.755V253.104H248.275V270H190.483V202.704ZM304.284 226.032C302.044 224.688 299.484 223.408 296.604 222.192C293.724 220.976 290.908 219.984 288.156 219.216C285.468 218.448 283.132 218.064 281.148 218.064C279.932 218.064 278.94 218.288 278.172 218.736C277.404 219.184 277.02 219.952 277.02 221.04C277.02 222.32 277.628 223.376 278.844 224.208C280.124 224.976 281.788 225.648 283.836 226.224C285.948 226.8 288.252 227.44 290.748 228.144C293.244 228.784 295.708 229.616 298.14 230.64C300.636 231.6 302.908 232.848 304.956 234.384C307.068 235.92 308.732 237.904 309.948 240.336C311.228 242.768 311.868 245.744 311.868 249.264C311.868 254.32 310.556 258.48 307.932 261.744C305.308 264.944 301.852 267.344 297.564 268.944C293.276 270.48 288.604 271.248 283.548 271.248C279.644 271.248 275.644 270.832 271.548 270C267.516 269.104 263.644 267.856 259.932 266.256C256.22 264.592 252.86 262.608 249.852 260.304L258.108 243.504C260.412 245.488 263.132 247.28 266.268 248.88C269.404 250.48 272.54 251.76 275.676 252.72C278.812 253.68 281.5 254.16 283.74 254.16C285.404 254.16 286.716 253.872 287.676 253.296C288.636 252.656 289.116 251.696 289.116 250.416C289.116 249.136 288.476 248.112 287.196 247.344C285.98 246.512 284.316 245.808 282.204 245.232C280.156 244.656 277.884 244.08 275.388 243.504C272.892 242.864 270.396 242.096 267.9 241.2C265.468 240.24 263.196 239.024 261.084 237.552C259.036 236.016 257.372 234.096 256.092 231.792C254.876 229.488 254.268 226.608 254.268 223.152C254.268 218.608 255.452 214.672 257.82 211.344C260.188 208.016 263.516 205.456 267.804 203.664C272.156 201.872 277.244 200.976 283.068 200.976C288.38 200.976 293.628 201.712 298.812 203.184C304.06 204.656 308.572 206.608 312.348 209.04L304.284 226.032ZM346.338 202.704C355.106 202.704 361.89 204.816 366.69 209.04C371.49 213.2 373.89 219.12 373.89 226.8C373.89 234.928 371.49 241.264 366.69 245.808C361.89 250.288 355.106 252.528 346.338 252.528H327.33L337.026 242.832V270H314.754V202.704H346.338ZM345.186 235.632C347.618 235.632 349.474 234.928 350.754 233.52C352.098 232.048 352.77 230.032 352.77 227.472C352.77 224.976 352.098 223.056 350.754 221.712C349.474 220.304 347.618 219.6 345.186 219.6H327.33L337.026 209.904V245.328L327.33 235.632H345.186ZM411.286 201.264C416.662 201.264 421.59 202.128 426.07 203.856C430.55 205.584 434.454 208.016 437.782 211.152C441.11 214.288 443.67 218 445.462 222.288C447.318 226.512 448.246 231.152 448.246 236.208C448.246 241.264 447.318 245.968 445.462 250.32C443.67 254.608 441.11 258.352 437.782 261.552C434.454 264.688 430.55 267.152 426.07 268.944C421.59 270.672 416.662 271.536 411.286 271.536C405.91 271.536 400.982 270.672 396.502 268.944C392.022 267.152 388.118 264.688 384.79 261.552C381.462 258.352 378.87 254.608 377.014 250.32C375.222 246.032 374.326 241.328 374.326 236.208C374.326 231.088 375.222 226.416 377.014 222.192C378.87 217.904 381.462 214.224 384.79 211.152C388.118 208.016 392.022 205.584 396.502 203.856C400.982 202.128 405.91 201.264 411.286 201.264ZM411.574 219.792C409.654 219.792 407.798 220.208 406.006 221.04C404.278 221.808 402.742 222.96 401.398 224.496C400.118 225.968 399.094 227.696 398.326 229.68C397.558 231.664 397.174 233.872 397.174 236.304C397.174 238.672 397.558 240.88 398.326 242.928C399.094 244.976 400.15 246.768 401.494 248.304C402.838 249.776 404.374 250.928 406.102 251.76C407.83 252.592 409.654 253.008 411.574 253.008C413.494 253.008 415.286 252.592 416.95 251.76C418.614 250.928 420.086 249.776 421.366 248.304C422.646 246.768 423.638 244.976 424.342 242.928C425.046 240.88 425.398 238.672 425.398 236.304C425.398 233.872 425.046 231.664 424.342 229.68C423.638 227.696 422.646 225.968 421.366 224.496C420.086 222.96 418.614 221.808 416.95 221.04C415.286 220.208 413.494 219.792 411.574 219.792ZM451.588 202.704H470.212L502.756 244.944L496.804 246.96V202.704H516.964V270H498.34L465.892 227.952L471.844 225.936V270H451.588V202.704ZM574.108 226.032C571.868 224.688 569.308 223.408 566.428 222.192C563.548 220.976 560.732 219.984 557.98 219.216C555.292 218.448 552.956 218.064 550.972 218.064C549.756 218.064 548.764 218.288 547.996 218.736C547.228 219.184 546.844 219.952 546.844 221.04C546.844 222.32 547.452 223.376 548.668 224.208C549.948 224.976 551.612 225.648 553.66 226.224C555.772 226.8 558.076 227.44 560.572 228.144C563.068 228.784 565.532 229.616 567.964 230.64C570.46 231.6 572.732 232.848 574.78 234.384C576.892 235.92 578.556 237.904 579.772 240.336C581.052 242.768 581.692 245.744 581.692 249.264C581.692 254.32 580.38 258.48 577.756 261.744C575.132 264.944 571.676 267.344 567.388 268.944C563.1 270.48 558.428 271.248 553.372 271.248C549.468 271.248 545.468 270.832 541.372 270C537.34 269.104 533.468 267.856 529.756 266.256C526.044 264.592 522.684 262.608 519.676 260.304L527.932 243.504C530.236 245.488 532.956 247.28 536.092 248.88C539.228 250.48 542.364 251.76 545.5 252.72C548.636 253.68 551.324 254.16 553.564 254.16C555.228 254.16 556.54 253.872 557.5 253.296C558.46 252.656 558.94 251.696 558.94 250.416C558.94 249.136 558.3 248.112 557.02 247.344C555.804 246.512 554.14 245.808 552.028 245.232C549.98 244.656 547.708 244.08 545.212 243.504C542.716 242.864 540.22 242.096 537.724 241.2C535.292 240.24 533.02 239.024 530.908 237.552C528.86 236.016 527.196 234.096 525.916 231.792C524.7 229.488 524.092 226.608 524.092 223.152C524.092 218.608 525.276 214.672 527.644 211.344C530.012 208.016 533.34 205.456 537.628 203.664C541.98 201.872 547.068 200.976 552.892 200.976C558.204 200.976 563.452 201.712 568.636 203.184C573.884 204.656 578.396 206.608 582.172 209.04L574.108 226.032ZM584.577 202.704H641.505V219.6H606.849V227.856H638.337V244.752H606.849V253.104H642.369V270H584.577V202.704Z" fill="black"/>
<path d="M177.56 209.04L171.101 216.674L171.129 216.698L171.158 216.722L177.56 209.04ZM177.56 245.808L184.239 253.25L184.265 253.227L184.291 253.203L177.56 245.808ZM146.072 252.528V242.528H136.072V252.528H146.072ZM146.072 270V280H156.072V270H146.072ZM123.8 270H113.8V280H123.8V270ZM123.8 202.704V192.704H113.8V202.704H123.8ZM161.912 233.52L154.527 226.777L154.52 226.785L154.513 226.793L161.912 233.52ZM161.912 221.712L154.513 228.439L154.673 228.615L154.841 228.783L161.912 221.712ZM146.072 219.6V209.6H136.072V219.6H146.072ZM146.072 235.632H136.072V245.632H146.072V235.632ZM150.68 244.56V234.56H135.014L141.609 248.77L150.68 244.56ZM172.184 244.56L180.73 239.368L177.809 234.56H172.184V244.56ZM187.64 270V280H205.416L196.186 264.808L187.64 270ZM162.488 270L153.417 274.21L156.105 280H162.488V270ZM156.344 202.704V212.704C164.067 212.704 168.519 214.49 171.101 216.674L177.56 209.04L184.019 201.406C176.617 195.142 166.925 192.704 156.344 192.704V202.704ZM177.56 209.04L171.158 216.722C173.447 218.63 175.048 221.489 175.048 226.8H185.048H195.048C195.048 216.751 191.657 207.77 183.962 201.358L177.56 209.04ZM185.048 226.8H175.048C175.048 232.736 173.318 236.147 170.829 238.413L177.56 245.808L184.291 253.203C191.786 246.381 195.048 237.12 195.048 226.8H185.048ZM177.56 245.808L170.881 238.366C168.302 240.68 163.936 242.528 156.344 242.528V252.528V262.528C167.056 262.528 176.834 259.896 184.239 253.25L177.56 245.808ZM156.344 252.528V242.528H146.072V252.528V262.528H156.344V252.528ZM146.072 252.528H136.072V270H146.072H156.072V252.528H146.072ZM146.072 270V260H123.8V270V280H146.072V270ZM123.8 270H133.8V202.704H123.8H113.8V270H123.8ZM123.8 202.704V212.704H156.344V202.704V192.704H123.8V202.704ZM156.344 235.632V245.632C160.759 245.632 165.64 244.286 169.311 240.247L161.912 233.52L154.513 226.793C154.979 226.281 155.534 225.936 156.013 225.754C156.442 225.592 156.612 225.632 156.344 225.632V235.632ZM161.912 233.52L169.297 240.263C172.759 236.471 173.928 231.795 173.928 227.472H163.928H153.928C153.928 227.89 153.872 227.937 153.937 227.742C153.971 227.64 154.032 227.489 154.136 227.31C154.241 227.129 154.372 226.947 154.527 226.777L161.912 233.52ZM163.928 227.472H173.928C173.928 223.187 172.735 218.393 168.983 214.641L161.912 221.712L154.841 228.783C154.377 228.319 154.11 227.82 153.985 227.464C153.876 227.152 153.928 227.103 153.928 227.472H163.928ZM161.912 221.712L169.311 214.985C165.64 210.946 160.759 209.6 156.344 209.6V219.6V229.6C156.612 229.6 156.442 229.64 156.013 229.478C155.534 229.296 154.979 228.951 154.513 228.439L161.912 221.712ZM156.344 219.6V209.6H146.072V219.6V229.6H156.344V219.6ZM146.072 219.6H136.072V235.632H146.072H156.072V219.6H146.072ZM146.072 235.632V245.632H156.344V235.632V225.632H146.072V235.632ZM150.68 244.56V254.56H172.184V244.56V234.56H150.68V244.56ZM172.184 244.56L163.638 249.752L179.094 275.192L187.64 270L196.186 264.808L180.73 239.368L172.184 244.56ZM187.64 270V260H162.488V270V280H187.64V270ZM162.488 270L171.559 265.79L159.751 240.35L150.68 244.56L141.609 248.77L153.417 274.21L162.488 270ZM190.483 202.704V192.704H180.483V202.704H190.483ZM247.411 202.704H257.411V192.704H247.411V202.704ZM247.411 219.6V229.6H257.411V219.6H247.411ZM212.755 219.6V209.6H202.755V219.6H212.755ZM212.755 227.856H202.755V237.856H212.755V227.856ZM244.243 227.856H254.243V217.856H244.243V227.856ZM244.243 244.752V254.752H254.243V244.752H244.243ZM212.755 244.752V234.752H202.755V244.752H212.755ZM212.755 253.104H202.755V263.104H212.755V253.104ZM248.275 253.104H258.275V243.104H248.275V253.104ZM248.275 270V280H258.275V270H248.275ZM190.483 270H180.483V280H190.483V270ZM190.483 202.704V212.704H247.411V202.704V192.704H190.483V202.704ZM247.411 202.704H237.411V219.6H247.411H257.411V202.704H247.411ZM247.411 219.6V209.6H212.755V219.6V229.6H247.411V219.6ZM212.755 219.6H202.755V227.856H212.755H222.755V219.6H212.755ZM212.755 227.856V237.856H244.243V227.856V217.856H212.755V227.856ZM244.243 227.856H234.243V244.752H244.243H254.243V227.856H244.243ZM244.243 244.752V234.752H212.755V244.752V254.752H244.243V244.752ZM212.755 244.752H202.755V253.104H212.755H222.755V244.752H212.755ZM212.755 253.104V263.104H248.275V253.104V243.104H212.755V253.104ZM248.275 253.104H238.275V270H248.275H258.275V253.104H248.275ZM248.275 270V260H190.483V270V280H248.275V270ZM190.483 270H200.483V202.704H190.483H180.483V270H190.483ZM304.284 226.032L299.139 234.607L308.592 240.279L313.318 230.319L304.284 226.032ZM296.604 222.192L300.493 212.98L300.493 212.98L296.604 222.192ZM288.156 219.216L285.409 228.831L285.438 228.84L285.468 228.848L288.156 219.216ZM278.172 218.736L273.133 210.098L273.133 210.098L278.172 218.736ZM278.844 224.208L273.197 232.461L273.443 232.629L273.699 232.783L278.844 224.208ZM283.836 226.224L281.128 235.851L281.166 235.861L281.205 235.872L283.836 226.224ZM290.748 228.144L288.033 237.768L288.148 237.801L288.264 237.831L290.748 228.144ZM298.14 230.64L294.259 239.856L294.404 239.917L294.55 239.973L298.14 230.64ZM304.956 234.384L298.956 242.384L299.015 242.428L299.074 242.471L304.956 234.384ZM309.948 240.336L301.003 244.808L301.05 244.901L301.099 244.993L309.948 240.336ZM307.932 261.744L315.664 268.085L315.695 268.047L315.726 268.01L307.932 261.744ZM297.564 268.944L300.936 278.358L300.998 278.336L301.06 278.313L297.564 268.944ZM271.548 270L269.378 279.762L269.468 279.782L269.557 279.8L271.548 270ZM259.932 266.256L255.841 275.381L255.907 275.411L255.973 275.439L259.932 266.256ZM249.852 260.304L240.877 255.894L237.259 263.255L243.771 268.243L249.852 260.304ZM258.108 243.504L264.633 235.926L254.835 227.49L249.133 239.094L258.108 243.504ZM266.268 248.88L270.812 239.972L270.812 239.972L266.268 248.88ZM287.676 253.296L292.821 261.871L293.025 261.748L293.223 261.617L287.676 253.296ZM287.196 247.344L281.549 255.597L281.795 255.765L282.051 255.919L287.196 247.344ZM282.204 245.232L279.496 254.859L279.534 254.869L279.573 254.88L282.204 245.232ZM275.388 243.504L272.904 253.191L273.021 253.221L273.139 253.248L275.388 243.504ZM267.9 241.2L264.228 250.502L264.374 250.559L264.521 250.612L267.9 241.2ZM261.084 237.552L255.084 245.552L255.223 245.656L255.366 245.756L261.084 237.552ZM256.092 231.792L247.248 236.46L247.298 236.555L247.35 236.648L256.092 231.792ZM257.82 211.344L265.968 217.142L265.968 217.142L257.82 211.344ZM267.804 203.664L263.996 194.417L263.972 194.427L263.948 194.437L267.804 203.664ZM298.812 203.184L296.08 212.804L296.096 212.808L296.111 212.812L298.812 203.184ZM312.348 209.04L321.382 213.327L325.149 205.39L317.763 200.633L312.348 209.04ZM304.284 226.032L309.429 217.457C306.717 215.83 303.725 214.344 300.493 212.98L296.604 222.192L292.714 231.404C295.242 232.472 297.371 233.546 299.139 234.607L304.284 226.032ZM296.604 222.192L300.493 212.98C297.258 211.614 294.041 210.476 290.844 209.584L288.156 219.216L285.468 228.848C287.775 229.492 290.189 230.338 292.714 231.404L296.604 222.192ZM288.156 219.216L290.903 209.601C287.655 208.673 284.354 208.064 281.148 208.064V218.064V228.064C281.91 228.064 283.28 228.223 285.409 228.831L288.156 219.216ZM281.148 218.064V208.064C278.785 208.064 275.892 208.489 273.133 210.098L278.172 218.736L283.21 227.374C282.595 227.733 282.055 227.905 281.694 227.986C281.515 228.027 281.377 228.046 281.287 228.055C281.198 228.064 281.149 228.064 281.148 228.064V218.064ZM278.172 218.736L273.133 210.098C268.565 212.763 267.02 217.327 267.02 221.04H277.02H287.02C287.02 221.645 286.915 222.795 286.252 224.12C285.543 225.539 284.443 226.655 283.21 227.374L278.172 218.736ZM277.02 221.04H267.02C267.02 226.159 269.733 230.091 273.197 232.461L278.844 224.208L284.491 215.955C284.866 216.212 285.557 216.786 286.142 217.802C286.757 218.87 287.02 220.021 287.02 221.04H277.02ZM278.844 224.208L273.699 232.783C275.988 234.156 278.555 235.127 281.128 235.851L283.836 226.224L286.543 216.597C285.02 216.169 284.26 215.796 283.989 215.633L278.844 224.208ZM283.836 226.224L281.205 235.872C283.284 236.439 285.56 237.071 288.033 237.768L290.748 228.144L293.462 218.52C290.943 217.809 288.611 217.161 286.467 216.576L283.836 226.224ZM290.748 228.144L288.264 237.831C290.272 238.346 292.27 239.019 294.259 239.856L298.14 230.64L302.02 221.424C299.146 220.213 296.215 219.222 293.232 218.457L290.748 228.144ZM298.14 230.64L294.55 239.973C296.223 240.617 297.678 241.426 298.956 242.384L304.956 234.384L310.956 226.384C308.137 224.27 305.048 222.583 301.73 221.307L298.14 230.64ZM304.956 234.384L299.074 242.471C299.836 243.026 300.473 243.748 301.003 244.808L309.948 240.336L318.892 235.864C316.99 232.06 314.299 228.814 310.837 226.297L304.956 234.384ZM309.948 240.336L301.099 244.993C301.44 245.643 301.868 246.924 301.868 249.264H311.868H321.868C321.868 244.564 321.015 239.893 318.797 235.679L309.948 240.336ZM311.868 249.264H301.868C301.868 252.53 301.055 254.338 300.138 255.478L307.932 261.744L315.726 268.01C320.056 262.622 321.868 256.11 321.868 249.264H311.868ZM307.932 261.744L300.199 255.403C298.811 257.096 296.881 258.525 294.068 259.575L297.564 268.944L301.06 278.313C306.823 276.163 311.805 272.792 315.664 268.085L307.932 261.744ZM297.564 268.944L294.191 259.53C291.098 260.638 287.58 261.248 283.548 261.248V271.248V281.248C289.627 281.248 295.454 280.322 300.936 278.358L297.564 268.944ZM283.548 271.248V261.248C280.357 261.248 277.025 260.908 273.538 260.2L271.548 270L269.557 279.8C274.263 280.756 278.93 281.248 283.548 281.248V271.248ZM271.548 270L273.717 260.238C270.285 259.475 267.013 258.419 263.89 257.073L259.932 266.256L255.973 275.439C260.275 277.293 264.747 278.733 269.378 279.762L271.548 270ZM259.932 266.256L264.022 257.131C260.966 255.761 258.282 254.165 255.933 252.365L249.852 260.304L243.771 268.243C247.438 271.051 251.474 273.423 255.841 275.381L259.932 266.256ZM249.852 260.304L258.827 264.714L267.083 247.914L258.108 243.504L249.133 239.094L240.877 255.894L249.852 260.304ZM258.108 243.504L251.583 251.082C254.577 253.661 257.985 255.881 261.723 257.788L266.268 248.88L270.812 239.972C268.278 238.679 266.246 237.315 264.633 235.926L258.108 243.504ZM266.268 248.88L261.723 257.788C265.34 259.633 269.016 261.139 272.749 262.282L275.676 252.72L278.603 243.158C276.063 242.381 273.467 241.327 270.812 239.972L266.268 248.88ZM275.676 252.72L272.749 262.282C276.436 263.411 280.164 264.16 283.74 264.16V254.16V244.16C282.836 244.16 281.188 243.949 278.603 243.158L275.676 252.72ZM283.74 254.16V264.16C286.395 264.16 289.727 263.727 292.821 261.871L287.676 253.296L282.531 244.721C283.144 244.353 283.63 244.22 283.828 244.177C284.019 244.134 284.014 244.16 283.74 244.16V254.16ZM287.676 253.296L293.223 261.617C297.305 258.895 299.116 254.609 299.116 250.416H289.116H279.116C279.116 249.8 279.236 248.775 279.811 247.624C280.408 246.431 281.273 245.546 282.129 244.975L287.676 253.296ZM289.116 250.416H299.116C299.116 244.984 296.041 240.989 292.341 238.769L287.196 247.344L282.051 255.919C281.65 255.679 280.848 255.095 280.156 253.988C279.422 252.814 279.116 251.533 279.116 250.416H289.116ZM287.196 247.344L292.843 239.091C290.375 237.402 287.552 236.325 284.835 235.584L282.204 245.232L279.573 254.88C280.284 255.074 280.794 255.256 281.139 255.402C281.49 255.55 281.598 255.631 281.549 255.597L287.196 247.344ZM282.204 245.232L284.911 235.605C282.684 234.979 280.256 234.365 277.636 233.76L275.388 243.504L273.139 253.248C275.511 253.795 277.627 254.333 279.496 254.859L282.204 245.232ZM275.388 243.504L277.872 233.817C275.687 233.257 273.489 232.582 271.278 231.788L267.9 241.2L264.521 250.612C267.302 251.61 270.097 252.471 272.904 253.191L275.388 243.504ZM267.9 241.2L271.571 231.898C269.85 231.219 268.267 230.369 266.802 229.348L261.084 237.552L255.366 245.756C258.125 247.679 261.085 249.261 264.228 250.502L267.9 241.2ZM261.084 237.552L267.084 229.552C266.194 228.885 265.451 228.048 264.833 226.936L256.092 231.792L247.35 236.648C249.292 240.144 251.877 243.147 255.084 245.552L261.084 237.552ZM256.092 231.792L264.936 227.124C264.686 226.652 264.268 225.492 264.268 223.152H254.268H244.268C244.268 227.724 245.065 232.324 247.248 236.46L256.092 231.792ZM254.268 223.152H264.268C264.268 220.442 264.939 218.588 265.968 217.142L257.82 211.344L249.672 205.546C245.965 210.756 244.268 216.774 244.268 223.152H254.268ZM257.82 211.344L265.968 217.142C267.11 215.536 268.851 214.064 271.66 212.891L267.804 203.664L263.948 194.437C258.18 196.848 253.266 200.496 249.672 205.546L257.82 211.344ZM267.804 203.664L271.611 212.911C274.506 211.719 278.25 210.976 283.068 210.976V200.976V190.976C276.238 190.976 269.806 192.025 263.996 194.417L267.804 203.664ZM283.068 200.976V210.976C287.443 210.976 291.772 211.58 296.08 212.804L298.812 203.184L301.543 193.564C295.484 191.844 289.317 190.976 283.068 190.976V200.976ZM298.812 203.184L296.111 212.812C300.596 214.07 304.152 215.656 306.933 217.447L312.348 209.04L317.763 200.633C312.991 197.56 307.523 195.242 301.512 193.556L298.812 203.184ZM312.348 209.04L303.314 204.753L295.25 221.745L304.284 226.032L313.318 230.319L321.382 213.327L312.348 209.04ZM366.69 209.04L360.083 216.547L360.112 216.572L360.14 216.597L366.69 209.04ZM366.69 245.808L373.513 253.119L373.539 253.094L373.565 253.07L366.69 245.808ZM327.33 252.528L320.259 245.457L303.188 262.528H327.33V252.528ZM337.026 242.832H347.026V218.69L329.955 235.761L337.026 242.832ZM337.026 270V280H347.026V270H337.026ZM314.754 270H304.754V280H314.754V270ZM314.754 202.704V192.704H304.754V202.704H314.754ZM350.754 233.52L343.369 226.777L343.362 226.785L343.354 226.793L350.754 233.52ZM350.754 221.712L343.354 228.439L343.514 228.615L343.683 228.783L350.754 221.712ZM327.33 219.6L320.259 212.529L303.188 229.6H327.33V219.6ZM337.026 209.904H347.026V185.762L329.955 202.833L337.026 209.904ZM337.026 245.328L329.955 252.399L347.026 269.47V245.328H337.026ZM327.33 235.632V225.632H303.188L320.259 242.703L327.33 235.632ZM346.338 202.704V212.704C353.58 212.704 357.691 214.442 360.083 216.547L366.69 209.04L373.296 201.533C366.089 195.19 356.631 192.704 346.338 192.704V202.704ZM366.69 209.04L360.14 216.597C362.293 218.463 363.89 221.357 363.89 226.8H373.89H383.89C383.89 216.883 380.686 207.937 373.239 201.483L366.69 209.04ZM373.89 226.8H363.89C363.89 232.857 362.177 236.31 359.815 238.546L366.69 245.808L373.565 253.07C380.802 246.218 383.89 236.999 383.89 226.8H373.89ZM366.69 245.808L359.867 238.497C357.468 240.736 353.441 242.528 346.338 242.528V252.528V262.528C356.771 262.528 366.312 259.84 373.513 253.119L366.69 245.808ZM346.338 252.528V242.528H327.33V252.528V262.528H346.338V252.528ZM327.33 252.528L334.401 259.599L344.097 249.903L337.026 242.832L329.955 235.761L320.259 245.457L327.33 252.528ZM337.026 242.832H327.026V270H337.026H347.026V242.832H337.026ZM337.026 270V260H314.754V270V280H337.026V270ZM314.754 270H324.754V202.704H314.754H304.754V270H314.754ZM314.754 202.704V212.704H346.338V202.704V192.704H314.754V202.704ZM345.186 235.632V245.632C349.601 245.632 354.481 244.286 358.153 240.247L350.754 233.52L343.354 226.793C343.82 226.281 344.376 225.936 344.855 225.754C345.283 225.592 345.454 225.632 345.186 225.632V235.632ZM350.754 233.52L358.139 240.263C361.601 236.471 362.77 231.795 362.77 227.472H352.77H342.77C342.77 227.89 342.714 227.937 342.779 227.742C342.813 227.64 342.874 227.489 342.978 227.31C343.083 227.129 343.214 226.947 343.369 226.777L350.754 233.52ZM352.77 227.472H362.77C362.77 223.187 361.577 218.393 357.825 214.641L350.754 221.712L343.683 228.783C343.219 228.319 342.952 227.82 342.827 227.464C342.718 227.152 342.77 227.103 342.77 227.472H352.77ZM350.754 221.712L358.153 214.985C354.481 210.946 349.601 209.6 345.186 209.6V219.6V229.6C345.454 229.6 345.283 229.64 344.855 229.478C344.376 229.296 343.82 228.951 343.354 228.439L350.754 221.712ZM345.186 219.6V209.6H327.33V219.6V229.6H345.186V219.6ZM327.33 219.6L334.401 226.671L344.097 216.975L337.026 209.904L329.955 202.833L320.259 212.529L327.33 219.6ZM337.026 209.904H327.026V245.328H337.026H347.026V209.904H337.026ZM337.026 245.328L344.097 238.257L334.401 228.561L327.33 235.632L320.259 242.703L329.955 252.399L337.026 245.328ZM327.33 235.632V245.632H345.186V235.632V225.632H327.33V235.632ZM426.07 203.856L422.472 213.186L422.472 213.186L426.07 203.856ZM437.782 211.152L444.64 203.874L444.64 203.874L437.782 211.152ZM445.462 222.288L436.236 226.144L436.271 226.228L436.307 226.311L445.462 222.288ZM445.462 250.32L436.264 246.397L436.25 246.431L436.236 246.464L445.462 250.32ZM437.782 261.552L444.64 268.83L444.677 268.795L444.713 268.76L437.782 261.552ZM426.07 268.944L429.669 278.274L429.727 278.252L429.784 278.229L426.07 268.944ZM396.502 268.944L392.788 278.229L392.846 278.252L392.904 278.274L396.502 268.944ZM384.79 261.552L377.859 268.76L377.896 268.795L377.932 268.83L384.79 261.552ZM377.014 250.32L367.788 254.176L367.812 254.234L367.837 254.292L377.014 250.32ZM377.014 222.192L367.837 218.22L367.823 218.253L367.808 218.286L377.014 222.192ZM384.79 211.152L391.573 218.5L391.611 218.465L391.648 218.43L384.79 211.152ZM396.502 203.856L400.101 213.186L400.101 213.186L396.502 203.856ZM406.006 221.04L410.068 230.178L410.143 230.145L410.217 230.11L406.006 221.04ZM401.398 224.496L393.872 217.911L393.862 217.923L393.852 217.934L401.398 224.496ZM398.326 229.68L407.652 233.29L407.652 233.29L398.326 229.68ZM401.494 248.304L393.968 254.889L394.038 254.969L394.109 255.047L401.494 248.304ZM406.102 251.76L410.44 242.75L410.44 242.75L406.102 251.76ZM416.95 251.76L412.478 242.816L412.478 242.816L416.95 251.76ZM421.366 248.304L428.912 254.866L428.981 254.787L429.048 254.706L421.366 248.304ZM424.342 242.928L414.885 239.677L414.885 239.677L424.342 242.928ZM424.342 229.68L414.918 233.024L414.918 233.024L424.342 229.68ZM421.366 224.496L413.684 230.898L413.751 230.979L413.82 231.058L421.366 224.496ZM416.95 221.04L412.478 229.984L412.618 230.054L412.76 230.12L416.95 221.04ZM411.286 201.264V211.264C415.578 211.264 419.269 211.951 422.472 213.186L426.07 203.856L429.669 194.526C423.912 192.305 417.746 191.264 411.286 191.264V201.264ZM426.07 203.856L422.472 213.186C425.804 214.471 428.586 216.227 430.924 218.43L437.782 211.152L444.64 203.874C440.322 199.805 435.297 196.697 429.669 194.526L426.07 203.856ZM437.782 211.152L430.924 218.43C433.214 220.588 434.975 223.128 436.236 226.144L445.462 222.288L454.689 218.432C452.365 212.872 449.006 207.988 444.64 203.874L437.782 211.152ZM445.462 222.288L436.307 226.311C437.554 229.15 438.246 232.403 438.246 236.208H448.246H458.246C458.246 229.901 457.082 223.874 454.617 218.265L445.462 222.288ZM448.246 236.208H438.246C438.246 240.01 437.555 243.369 436.264 246.397L445.462 250.32L454.661 254.243C457.081 248.567 458.246 242.518 458.246 236.208H448.246ZM445.462 250.32L436.236 246.464C434.968 249.498 433.186 252.099 430.851 254.344L437.782 261.552L444.713 268.76C449.035 264.605 452.373 259.718 454.689 254.176L445.462 250.32ZM437.782 261.552L430.924 254.274C428.559 256.503 425.737 258.307 422.356 259.659L426.07 268.944L429.784 278.229C435.364 275.997 440.35 272.873 444.64 268.83L437.782 261.552ZM426.07 268.944L422.472 259.614C419.269 260.849 415.578 261.536 411.286 261.536V271.536V281.536C417.746 281.536 423.912 280.495 429.669 278.274L426.07 268.944ZM411.286 271.536V261.536C406.994 261.536 403.304 260.849 400.101 259.614L396.502 268.944L392.904 278.274C398.661 280.495 404.826 281.536 411.286 281.536V271.536ZM396.502 268.944L400.216 259.659C396.836 258.307 394.014 256.503 391.648 254.274L384.79 261.552L377.932 268.83C382.223 272.873 387.209 275.997 392.788 278.229L396.502 268.944ZM384.79 261.552L391.721 254.344C389.361 252.074 387.527 249.434 386.191 246.348L377.014 250.32L367.837 254.292C370.213 259.782 373.564 264.63 377.859 268.76L384.79 261.552ZM377.014 250.32L386.241 246.464C385.009 243.516 384.326 240.139 384.326 236.208H374.326H364.326C364.326 242.517 365.435 248.548 367.788 254.176L377.014 250.32ZM374.326 236.208H384.326C384.326 232.274 385.01 228.95 386.22 226.097L377.014 222.192L367.808 218.286C365.435 223.882 364.326 229.902 364.326 236.208H374.326ZM377.014 222.192L386.191 226.164C387.511 223.115 389.303 220.596 391.573 218.5L384.79 211.152L378.007 203.804C373.622 207.852 370.229 212.693 367.837 218.22L377.014 222.192ZM384.79 211.152L391.648 218.43C393.986 216.227 396.769 214.471 400.101 213.186L396.502 203.856L392.904 194.526C387.276 196.697 382.25 199.805 377.932 203.874L384.79 211.152ZM396.502 203.856L400.101 213.186C403.304 211.951 406.994 211.264 411.286 211.264V201.264V191.264C404.826 191.264 398.661 192.305 392.904 194.526L396.502 203.856ZM411.574 219.792V209.792C408.157 209.792 404.867 210.544 401.795 211.97L406.006 221.04L410.217 230.11C410.729 229.872 411.152 229.792 411.574 229.792V219.792ZM406.006 221.04L401.945 211.902C398.788 213.305 396.095 215.371 393.872 217.911L401.398 224.496L408.924 231.081C409.389 230.549 409.769 230.311 410.068 230.178L406.006 221.04ZM401.398 224.496L393.852 217.934C391.747 220.356 390.149 223.104 389.001 226.07L398.326 229.68L407.652 233.29C408.04 232.288 408.49 231.58 408.944 231.058L401.398 224.496ZM398.326 229.68L389.001 226.07C387.728 229.358 387.174 232.812 387.174 236.304H397.174H407.174C407.174 234.932 407.389 233.97 407.652 233.29L398.326 229.68ZM397.174 236.304H387.174C387.174 239.772 387.74 243.179 388.963 246.439L398.326 242.928L407.69 239.417C407.376 238.581 407.174 237.572 407.174 236.304H397.174ZM398.326 242.928L388.963 246.439C390.123 249.533 391.777 252.384 393.968 254.889L401.494 248.304L409.02 241.719C408.524 241.152 408.065 240.419 407.69 239.417L398.326 242.928ZM401.494 248.304L394.109 255.047C396.28 257.424 398.84 259.362 401.764 260.77L406.102 251.76L410.44 242.75C409.909 242.494 409.396 242.128 408.879 241.561L401.494 248.304ZM406.102 251.76L401.764 260.77C404.847 262.254 408.154 263.008 411.574 263.008V253.008V243.008C411.155 243.008 410.813 242.93 410.44 242.75L406.102 251.76ZM411.574 253.008V263.008C414.995 263.008 418.325 262.253 421.422 260.704L416.95 251.76L412.478 242.816C412.248 242.931 411.993 243.008 411.574 243.008V253.008ZM416.95 251.76L421.422 260.704C424.313 259.259 426.816 257.277 428.912 254.866L421.366 248.304L413.82 241.742C413.357 242.275 412.915 242.597 412.478 242.816L416.95 251.76ZM421.366 248.304L429.048 254.706C431.169 252.161 432.733 249.28 433.799 246.179L424.342 242.928L414.885 239.677C414.544 240.672 414.124 241.375 413.684 241.902L421.366 248.304ZM424.342 242.928L433.799 246.179C434.895 242.991 435.398 239.675 435.398 236.304H425.398H415.398C415.398 237.669 415.198 238.769 414.885 239.677L424.342 242.928ZM425.398 236.304H435.398C435.398 232.906 434.906 229.546 433.767 226.336L424.342 229.68L414.918 233.024C415.187 233.782 415.398 234.838 415.398 236.304H425.398ZM424.342 229.68L433.767 226.336C432.677 223.265 431.078 220.424 428.912 217.934L421.366 224.496L413.82 231.058C414.215 231.512 414.6 232.127 414.918 233.024L424.342 229.68ZM421.366 224.496L429.048 218.094C426.906 215.523 424.272 213.406 421.141 211.96L416.95 221.04L412.76 230.12C412.956 230.21 413.267 230.397 413.684 230.898L421.366 224.496ZM416.95 221.04L421.422 212.096C418.325 210.547 414.995 209.792 411.574 209.792V219.792V229.792C411.993 229.792 412.248 229.869 412.478 229.984L416.95 221.04ZM451.588 202.704V192.704H441.588V202.704H451.588ZM470.212 202.704L478.133 196.601L475.131 192.704H470.212V202.704ZM502.756 244.944L505.964 254.415L519.218 249.926L510.677 238.841L502.756 244.944ZM496.804 246.96H486.804V260.905L500.012 256.431L496.804 246.96ZM496.804 202.704V192.704H486.804V202.704H496.804ZM516.964 202.704H526.964V192.704H516.964V202.704ZM516.964 270V280H526.964V270H516.964ZM498.34 270L490.423 276.109L493.425 280H498.34V270ZM465.892 227.952L462.683 218.481L449.418 222.974L457.975 234.061L465.892 227.952ZM471.844 225.936H481.844V211.991L468.635 216.465L471.844 225.936ZM471.844 270V280H481.844V270H471.844ZM451.588 270H441.588V280H451.588V270ZM451.588 202.704V212.704H470.212V202.704V192.704H451.588V202.704ZM470.212 202.704L462.29 208.807L494.834 251.047L502.756 244.944L510.677 238.841L478.133 196.601L470.212 202.704ZM502.756 244.944L499.547 235.473L493.595 237.489L496.804 246.96L500.012 256.431L505.964 254.415L502.756 244.944ZM496.804 246.96H506.804V202.704H496.804H486.804V246.96H496.804ZM496.804 202.704V212.704H516.964V202.704V192.704H496.804V202.704ZM516.964 202.704H506.964V270H516.964H526.964V202.704H516.964ZM516.964 270V260H498.34V270V280H516.964V270ZM498.34 270L506.256 263.891L473.808 221.843L465.892 227.952L457.975 234.061L490.423 276.109L498.34 270ZM465.892 227.952L469.1 237.423L475.052 235.407L471.844 225.936L468.635 216.465L462.683 218.481L465.892 227.952ZM471.844 225.936H461.844V270H471.844H481.844V225.936H471.844ZM471.844 270V260H451.588V270V280H471.844V270ZM451.588 270H461.588V202.704H451.588H441.588V270H451.588ZM574.108 226.032L568.963 234.607L578.415 240.279L583.142 230.319L574.108 226.032ZM566.428 222.192L570.317 212.98L570.317 212.98L566.428 222.192ZM557.98 219.216L555.232 228.831L555.262 228.84L555.292 228.848L557.98 219.216ZM547.996 218.736L542.957 210.098L542.957 210.098L547.996 218.736ZM548.668 224.208L543.021 232.461L543.267 232.629L543.523 232.783L548.668 224.208ZM553.66 226.224L550.952 235.851L550.99 235.861L551.028 235.872L553.66 226.224ZM560.572 228.144L557.857 237.768L557.972 237.801L558.088 237.831L560.572 228.144ZM567.964 230.64L564.083 239.856L564.227 239.917L564.374 239.973L567.964 230.64ZM574.78 234.384L568.78 242.384L568.838 242.428L568.898 242.471L574.78 234.384ZM579.772 240.336L570.827 244.808L570.874 244.901L570.922 244.993L579.772 240.336ZM577.756 261.744L585.488 268.085L585.519 268.047L585.549 268.01L577.756 261.744ZM567.388 268.944L570.76 278.358L570.822 278.336L570.883 278.313L567.388 268.944ZM541.372 270L539.202 279.762L539.291 279.782L539.381 279.8L541.372 270ZM529.756 266.256L525.665 275.381L525.731 275.411L525.797 275.439L529.756 266.256ZM519.676 260.304L510.701 255.894L507.083 263.255L513.595 268.243L519.676 260.304ZM527.932 243.504L534.457 235.926L524.659 227.49L518.957 239.094L527.932 243.504ZM536.092 248.88L540.636 239.972L540.636 239.972L536.092 248.88ZM557.5 253.296L562.644 261.871L562.849 261.748L563.047 261.617L557.5 253.296ZM557.02 247.344L551.373 255.597L551.619 255.765L551.875 255.919L557.02 247.344ZM552.028 245.232L549.32 254.859L549.358 254.869L549.396 254.88L552.028 245.232ZM545.212 243.504L542.728 253.191L542.845 253.221L542.963 253.248L545.212 243.504ZM537.724 241.2L534.052 250.502L534.197 250.559L534.345 250.612L537.724 241.2ZM530.908 237.552L524.908 245.552L525.047 245.656L525.19 245.756L530.908 237.552ZM525.916 231.792L517.072 236.46L517.122 236.555L517.174 236.648L525.916 231.792ZM527.644 211.344L535.791 217.142L535.791 217.142L527.644 211.344ZM537.628 203.664L533.82 194.417L533.796 194.427L533.772 194.437L537.628 203.664ZM568.636 203.184L565.904 212.804L565.919 212.808L565.935 212.812L568.636 203.184ZM582.172 209.04L591.206 213.327L594.973 205.39L587.586 200.633L582.172 209.04ZM574.108 226.032L579.252 217.457C576.54 215.83 573.549 214.344 570.317 212.98L566.428 222.192L562.538 231.404C565.066 232.472 567.195 233.546 568.963 234.607L574.108 226.032ZM566.428 222.192L570.317 212.98C567.082 211.614 563.865 210.476 560.667 209.584L557.98 219.216L555.292 228.848C557.598 229.492 560.013 230.338 562.538 231.404L566.428 222.192ZM557.98 219.216L560.727 209.601C557.479 208.673 554.178 208.064 550.972 208.064V218.064V228.064C551.733 228.064 553.104 228.223 555.232 228.831L557.98 219.216ZM550.972 218.064V208.064C548.609 208.064 545.716 208.489 542.957 210.098L547.996 218.736L553.034 227.374C552.419 227.733 551.878 227.905 551.518 227.986C551.339 228.027 551.2 228.046 551.111 228.055C551.021 228.064 550.973 228.064 550.972 228.064V218.064ZM547.996 218.736L542.957 210.098C538.389 212.763 536.844 217.327 536.844 221.04H546.844H556.844C556.844 221.645 556.738 222.795 556.076 224.12C555.366 225.539 554.266 226.655 553.034 227.374L547.996 218.736ZM546.844 221.04H536.844C536.844 226.159 539.557 230.091 543.021 232.461L548.668 224.208L554.314 215.955C554.69 216.212 555.381 216.786 555.966 217.802C556.58 218.87 556.844 220.021 556.844 221.04H546.844ZM548.668 224.208L543.523 232.783C545.812 234.156 548.379 235.127 550.952 235.851L553.66 226.224L556.367 216.597C554.844 216.169 554.083 215.796 553.812 215.633L548.668 224.208ZM553.66 226.224L551.028 235.872C553.108 236.439 555.384 237.071 557.857 237.768L560.572 228.144L563.286 218.52C560.767 217.809 558.435 217.161 556.291 216.576L553.66 226.224ZM560.572 228.144L558.088 237.831C560.096 238.346 562.093 239.019 564.083 239.856L567.964 230.64L571.844 221.424C568.97 220.213 566.039 219.222 563.055 218.457L560.572 228.144ZM567.964 230.64L564.374 239.973C566.047 240.617 567.502 241.426 568.78 242.384L574.78 234.384L580.78 226.384C577.961 224.27 574.872 222.583 571.553 221.307L567.964 230.64ZM574.78 234.384L568.898 242.471C569.66 243.026 570.297 243.748 570.827 244.808L579.772 240.336L588.716 235.864C586.814 232.06 584.123 228.814 580.661 226.297L574.78 234.384ZM579.772 240.336L570.922 244.993C571.264 245.643 571.692 246.924 571.692 249.264H581.692H591.692C591.692 244.564 590.839 239.893 588.621 235.679L579.772 240.336ZM581.692 249.264H571.692C571.692 252.53 570.879 254.338 569.962 255.478L577.756 261.744L585.549 268.01C589.88 262.622 591.692 256.11 591.692 249.264H581.692ZM577.756 261.744L570.023 255.403C568.635 257.096 566.705 258.525 563.892 259.575L567.388 268.944L570.883 278.313C576.646 276.163 581.628 272.792 585.488 268.085L577.756 261.744ZM567.388 268.944L564.015 259.53C560.922 260.638 557.404 261.248 553.372 261.248V271.248V281.248C559.451 281.248 565.277 280.322 570.76 278.358L567.388 268.944ZM553.372 271.248V261.248C550.181 261.248 546.849 260.908 543.362 260.2L541.372 270L539.381 279.8C544.086 280.756 548.754 281.248 553.372 281.248V271.248ZM541.372 270L543.541 260.238C540.109 259.475 536.836 258.419 533.714 257.073L529.756 266.256L525.797 275.439C530.099 277.293 534.57 278.733 539.202 279.762L541.372 270ZM529.756 266.256L533.846 257.131C530.79 255.761 528.106 254.165 525.756 252.365L519.676 260.304L513.595 268.243C517.261 271.051 521.297 273.423 525.665 275.381L529.756 266.256ZM519.676 260.304L528.65 264.714L536.906 247.914L527.932 243.504L518.957 239.094L510.701 255.894L519.676 260.304ZM527.932 243.504L521.406 251.082C524.401 253.661 527.809 255.881 531.547 257.788L536.092 248.88L540.636 239.972C538.102 238.679 536.07 237.315 534.457 235.926L527.932 243.504ZM536.092 248.88L531.547 257.788C535.164 259.633 538.84 261.139 542.572 262.282L545.5 252.72L548.427 243.158C545.887 242.381 543.291 241.327 540.636 239.972L536.092 248.88ZM545.5 252.72L542.572 262.282C546.26 263.411 549.987 264.16 553.564 264.16V254.16V244.16C552.66 244.16 551.011 243.949 548.427 243.158L545.5 252.72ZM553.564 254.16V264.16C556.218 264.16 559.551 263.727 562.644 261.871L557.5 253.296L552.355 244.721C552.968 244.353 553.454 244.22 553.651 244.177C553.843 244.134 553.838 244.16 553.564 244.16V254.16ZM557.5 253.296L563.047 261.617C567.129 258.895 568.94 254.609 568.94 250.416H558.94H548.94C548.94 249.8 549.06 248.775 549.635 247.624C550.232 246.431 551.097 245.546 551.953 244.975L557.5 253.296ZM558.94 250.416H568.94C568.94 244.984 565.864 240.989 562.164 238.769L557.02 247.344L551.875 255.919C551.474 255.679 550.672 255.095 549.98 253.988C549.246 252.814 548.94 251.533 548.94 250.416H558.94ZM557.02 247.344L562.666 239.091C560.199 237.402 557.375 236.325 554.659 235.584L552.028 245.232L549.396 254.88C550.108 255.074 550.618 255.256 550.963 255.402C551.313 255.55 551.422 255.631 551.373 255.597L557.02 247.344ZM552.028 245.232L554.735 235.605C552.508 234.979 550.08 234.365 547.46 233.76L545.212 243.504L542.963 253.248C545.335 253.795 547.451 254.333 549.32 254.859L552.028 245.232ZM545.212 243.504L547.695 233.817C545.51 233.257 543.313 232.582 541.102 231.788L537.724 241.2L534.345 250.612C537.126 251.61 539.921 252.471 542.728 253.191L545.212 243.504ZM537.724 241.2L541.395 231.898C539.674 231.219 538.09 230.369 536.625 229.348L530.908 237.552L525.19 245.756C527.949 247.679 530.909 249.261 534.052 250.502L537.724 241.2ZM530.908 237.552L536.907 229.552C536.018 228.885 535.275 228.048 534.657 226.936L525.916 231.792L517.174 236.648C519.116 240.144 521.701 243.147 524.908 245.552L530.908 237.552ZM525.916 231.792L534.759 227.124C534.51 226.652 534.092 225.492 534.092 223.152H524.092H514.092C514.092 227.724 514.889 232.324 517.072 236.46L525.916 231.792ZM524.092 223.152H534.092C534.092 220.442 534.763 218.588 535.791 217.142L527.644 211.344L519.496 205.546C515.788 210.756 514.092 216.774 514.092 223.152H524.092ZM527.644 211.344L535.791 217.142C536.934 215.536 538.675 214.064 541.483 212.891L537.628 203.664L533.772 194.437C528.004 196.848 523.089 200.496 519.496 205.546L527.644 211.344ZM537.628 203.664L541.435 212.911C544.329 211.719 548.073 210.976 552.892 210.976V200.976V190.976C546.062 190.976 539.63 192.025 533.82 194.417L537.628 203.664ZM552.892 200.976V210.976C557.266 210.976 561.596 211.58 565.904 212.804L568.636 203.184L571.367 193.564C565.307 191.844 559.141 190.976 552.892 190.976V200.976ZM568.636 203.184L565.935 212.812C570.42 214.07 573.976 215.656 576.757 217.447L582.172 209.04L587.586 200.633C582.815 197.56 577.347 195.242 571.336 193.556L568.636 203.184ZM582.172 209.04L573.137 204.753L565.073 221.745L574.108 226.032L583.142 230.319L591.206 213.327L582.172 209.04ZM584.577 202.704V192.704H574.577V202.704H584.577ZM641.505 202.704H651.505V192.704H641.505V202.704ZM641.505 219.6V229.6H651.505V219.6H641.505ZM606.849 219.6V209.6H596.849V219.6H606.849ZM606.849 227.856H596.849V237.856H606.849V227.856ZM638.337 227.856H648.337V217.856H638.337V227.856ZM638.337 244.752V254.752H648.337V244.752H638.337ZM606.849 244.752V234.752H596.849V244.752H606.849ZM606.849 253.104H596.849V263.104H606.849V253.104ZM642.369 253.104H652.369V243.104H642.369V253.104ZM642.369 270V280H652.369V270H642.369ZM584.577 270H574.577V280H584.577V270ZM584.577 202.704V212.704H641.505V202.704V192.704H584.577V202.704ZM641.505 202.704H631.505V219.6H641.505H651.505V202.704H641.505ZM641.505 219.6V209.6H606.849V219.6V229.6H641.505V219.6ZM606.849 219.6H596.849V227.856H606.849H616.849V219.6H606.849ZM606.849 227.856V237.856H638.337V227.856V217.856H606.849V227.856ZM638.337 227.856H628.337V244.752H638.337H648.337V227.856H638.337ZM638.337 244.752V234.752H606.849V244.752V254.752H638.337V244.752ZM606.849 244.752H596.849V253.104H606.849H616.849V244.752H606.849ZM606.849 253.104V263.104H642.369V253.104V243.104H606.849V253.104ZM642.369 253.104H632.369V270H642.369H652.369V253.104H642.369ZM642.369 270V260H584.577V270V280H642.369V270ZM584.577 270H594.577V202.704H584.577H574.577V270H584.577Z" fill="white" mask="url(#path-4-outside-1_3_870)"/>
<mask id="path-6-outside-2_3_870" maskUnits="userSpaceOnUse" x="114" y="49" width="350" height="154" fill="black">
<rect fill="white" x="114" y="49" width="350" height="154"/>
<path d="M124.6 191V61.4H180.6V80.76H153.24V113.4H177.08V133.4H153.24V191H124.6ZM187.735 191V61.4H216.375V191H187.735ZM229.3 191V61.4H264.98C273.727 61.4 281.3 62.36 287.7 64.28C294.1 66.2 299.06 69.6667 302.58 74.68C306.207 79.5867 308.02 86.5733 308.02 95.64C308.02 100.973 307.593 105.72 306.74 109.88C305.887 114.04 304.287 117.667 301.94 120.76C299.7 123.747 296.447 126.253 292.18 128.28L309.94 191H280.34L266.1 132.92H257.94V191H229.3ZM257.94 116.44H265.94C269.993 116.44 273.14 115.747 275.38 114.36C277.62 112.867 279.167 110.787 280.02 108.12C280.98 105.347 281.46 102.04 281.46 98.2C281.46 92.6533 280.447 88.3333 278.42 85.24C276.393 82.1467 272.66 80.6 267.22 80.6H257.94V116.44ZM352.613 192.92C344.506 192.92 337.733 191.48 332.293 188.6C326.853 185.72 322.746 181.293 319.973 175.32C317.199 169.24 315.653 161.4 315.333 151.8L339.813 148.12C339.919 153.667 340.399 158.147 341.253 161.56C342.213 164.973 343.493 167.427 345.093 168.92C346.799 170.413 348.826 171.16 351.173 171.16C354.159 171.16 356.079 170.147 356.933 168.12C357.893 166.093 358.373 163.96 358.373 161.72C358.373 156.387 357.093 151.907 354.533 148.28C351.973 144.547 348.506 140.813 344.133 137.08L332.933 127.32C328.026 123.16 323.866 118.467 320.453 113.24C317.146 107.907 315.493 101.347 315.493 93.56C315.493 82.5733 318.746 74.2 325.253 68.44C331.759 62.5733 340.613 59.64 351.813 59.64C358.746 59.64 364.293 60.8133 368.453 63.16C372.719 65.5067 375.919 68.6 378.053 72.44C380.293 76.1733 381.786 80.1733 382.533 84.44C383.386 88.6 383.866 92.6 383.973 96.44L359.333 99.48C359.226 95.64 358.959 92.3333 358.533 89.56C358.213 86.68 357.466 84.4933 356.293 83C355.119 81.4 353.306 80.6 350.853 80.6C348.186 80.6 346.213 81.72 344.933 83.96C343.759 86.2 343.173 88.44 343.173 90.68C343.173 95.48 344.293 99.4267 346.533 102.52C348.879 105.507 351.919 108.653 355.653 111.96L366.373 121.4C372.026 126.2 376.773 131.64 380.613 137.72C384.559 143.8 386.533 151.32 386.533 160.28C386.533 166.36 385.146 171.907 382.373 176.92C379.599 181.827 375.653 185.72 370.533 188.6C365.519 191.48 359.546 192.92 352.613 192.92ZM405.68 191V82.68H386.16V61.4H453.84V82.68H434.48V191H405.68Z"/>
</mask>
<path d="M124.6 191V61.4H180.6V80.76H153.24V113.4H177.08V133.4H153.24V191H124.6ZM187.735 191V61.4H216.375V191H187.735ZM229.3 191V61.4H264.98C273.727 61.4 281.3 62.36 287.7 64.28C294.1 66.2 299.06 69.6667 302.58 74.68C306.207 79.5867 308.02 86.5733 308.02 95.64C308.02 100.973 307.593 105.72 306.74 109.88C305.887 114.04 304.287 117.667 301.94 120.76C299.7 123.747 296.447 126.253 292.18 128.28L309.94 191H280.34L266.1 132.92H257.94V191H229.3ZM257.94 116.44H265.94C269.993 116.44 273.14 115.747 275.38 114.36C277.62 112.867 279.167 110.787 280.02 108.12C280.98 105.347 281.46 102.04 281.46 98.2C281.46 92.6533 280.447 88.3333 278.42 85.24C276.393 82.1467 272.66 80.6 267.22 80.6H257.94V116.44ZM352.613 192.92C344.506 192.92 337.733 191.48 332.293 188.6C326.853 185.72 322.746 181.293 319.973 175.32C317.199 169.24 315.653 161.4 315.333 151.8L339.813 148.12C339.919 153.667 340.399 158.147 341.253 161.56C342.213 164.973 343.493 167.427 345.093 168.92C346.799 170.413 348.826 171.16 351.173 171.16C354.159 171.16 356.079 170.147 356.933 168.12C357.893 166.093 358.373 163.96 358.373 161.72C358.373 156.387 357.093 151.907 354.533 148.28C351.973 144.547 348.506 140.813 344.133 137.08L332.933 127.32C328.026 123.16 323.866 118.467 320.453 113.24C317.146 107.907 315.493 101.347 315.493 93.56C315.493 82.5733 318.746 74.2 325.253 68.44C331.759 62.5733 340.613 59.64 351.813 59.64C358.746 59.64 364.293 60.8133 368.453 63.16C372.719 65.5067 375.919 68.6 378.053 72.44C380.293 76.1733 381.786 80.1733 382.533 84.44C383.386 88.6 383.866 92.6 383.973 96.44L359.333 99.48C359.226 95.64 358.959 92.3333 358.533 89.56C358.213 86.68 357.466 84.4933 356.293 83C355.119 81.4 353.306 80.6 350.853 80.6C348.186 80.6 346.213 81.72 344.933 83.96C343.759 86.2 343.173 88.44 343.173 90.68C343.173 95.48 344.293 99.4267 346.533 102.52C348.879 105.507 351.919 108.653 355.653 111.96L366.373 121.4C372.026 126.2 376.773 131.64 380.613 137.72C384.559 143.8 386.533 151.32 386.533 160.28C386.533 166.36 385.146 171.907 382.373 176.92C379.599 181.827 375.653 185.72 370.533 188.6C365.519 191.48 359.546 192.92 352.613 192.92ZM405.68 191V82.68H386.16V61.4H453.84V82.68H434.48V191H405.68Z" fill="#FF1821"/>
<path d="M124.6 191H114.6V201H124.6V191ZM124.6 61.4V51.4H114.6V61.4H124.6ZM180.6 61.4H190.6V51.4H180.6V61.4ZM180.6 80.76V90.76H190.6V80.76H180.6ZM153.24 80.76V70.76H143.24V80.76H153.24ZM153.24 113.4H143.24V123.4H153.24V113.4ZM177.08 113.4H187.08V103.4H177.08V113.4ZM177.08 133.4V143.4H187.08V133.4H177.08ZM153.24 133.4V123.4H143.24V133.4H153.24ZM153.24 191V201H163.24V191H153.24ZM124.6 191H134.6V61.4H124.6H114.6V191H124.6ZM124.6 61.4V71.4H180.6V61.4V51.4H124.6V61.4ZM180.6 61.4H170.6V80.76H180.6H190.6V61.4H180.6ZM180.6 80.76V70.76H153.24V80.76V90.76H180.6V80.76ZM153.24 80.76H143.24V113.4H153.24H163.24V80.76H153.24ZM153.24 113.4V123.4H177.08V113.4V103.4H153.24V113.4ZM177.08 113.4H167.08V133.4H177.08H187.08V113.4H177.08ZM177.08 133.4V123.4H153.24V133.4V143.4H177.08V133.4ZM153.24 133.4H143.24V191H153.24H163.24V133.4H153.24ZM153.24 191V181H124.6V191V201H153.24V191ZM187.735 191H177.735V201H187.735V191ZM187.735 61.4V51.4H177.735V61.4H187.735ZM216.375 61.4H226.375V51.4H216.375V61.4ZM216.375 191V201H226.375V191H216.375ZM187.735 191H197.735V61.4H187.735H177.735V191H187.735ZM187.735 61.4V71.4H216.375V61.4V51.4H187.735V61.4ZM216.375 61.4H206.375V191H216.375H226.375V61.4H216.375ZM216.375 191V181H187.735V191V201H216.375V191ZM229.3 191H219.3V201H229.3V191ZM229.3 61.4V51.4H219.3V61.4H229.3ZM302.58 74.68L294.396 80.4263L294.466 80.526L294.538 80.6239L302.58 74.68ZM306.74 109.88L296.944 107.871L296.944 107.871L306.74 109.88ZM301.94 120.76L293.973 114.716L293.956 114.738L293.94 114.76L301.94 120.76ZM292.18 128.28L287.889 119.247L280.256 122.873L282.558 131.005L292.18 128.28ZM309.94 191V201H323.165L319.562 188.275L309.94 191ZM280.34 191L270.628 193.381L272.496 201H280.34V191ZM266.1 132.92L275.812 130.539L273.944 122.92H266.1V132.92ZM257.94 132.92V122.92H247.94V132.92H257.94ZM257.94 191V201H267.94V191H257.94ZM257.94 116.44H247.94V126.44H257.94V116.44ZM275.38 114.36L280.644 122.863L280.787 122.774L280.927 122.68L275.38 114.36ZM280.02 108.12L270.57 104.849L270.532 104.96L270.496 105.072L280.02 108.12ZM278.42 85.24L270.055 90.7203L270.055 90.7203L278.42 85.24ZM257.94 80.6V70.6H247.94V80.6H257.94ZM229.3 191H239.3V61.4H229.3H219.3V191H229.3ZM229.3 61.4V71.4H264.98V61.4V51.4H229.3V61.4ZM264.98 61.4V71.4C273.036 71.4 279.595 72.2889 284.827 73.8583L287.7 64.28L290.573 54.7017C283.005 52.4311 274.418 51.4 264.98 51.4V61.4ZM287.7 64.28L284.827 73.8583C289.284 75.1955 292.285 77.4201 294.396 80.4263L302.58 74.68L310.764 68.9337C305.835 61.9132 298.916 57.2044 290.573 54.7017L287.7 64.28ZM302.58 74.68L294.538 80.6239C296.409 83.1551 298.02 87.7228 298.02 95.64H308.02H318.02C318.02 85.4239 316.004 76.0182 310.622 68.7361L302.58 74.68ZM308.02 95.64H298.02C298.02 100.461 297.632 104.514 296.944 107.871L306.74 109.88L316.536 111.889C317.554 106.926 318.02 101.485 318.02 95.64H308.02ZM306.74 109.88L296.944 107.871C296.363 110.705 295.334 112.922 293.973 114.716L301.94 120.76L309.907 126.804C313.239 122.411 315.411 117.375 316.536 111.889L306.74 109.88ZM301.94 120.76L293.94 114.76C292.896 116.151 291.071 117.736 287.889 119.247L292.18 128.28L296.471 137.313C301.822 134.771 306.504 131.342 309.94 126.76L301.94 120.76ZM292.18 128.28L282.558 131.005L300.318 193.725L309.94 191L319.562 188.275L301.802 125.555L292.18 128.28ZM309.94 191V181H280.34V191V201H309.94V191ZM280.34 191L290.052 188.619L275.812 130.539L266.1 132.92L256.388 135.301L270.628 193.381L280.34 191ZM266.1 132.92V122.92H257.94V132.92V142.92H266.1V132.92ZM257.94 132.92H247.94V191H257.94H267.94V132.92H257.94ZM257.94 191V181H229.3V191V201H257.94V191ZM257.94 116.44V126.44H265.94V116.44V106.44H257.94V116.44ZM265.94 116.44V126.44C270.929 126.44 276.188 125.621 280.644 122.863L275.38 114.36L270.116 105.857C270.142 105.842 269.898 105.998 269.188 106.154C268.475 106.311 267.419 106.44 265.94 106.44V116.44ZM275.38 114.36L280.927 122.68C285.132 119.877 288.03 115.898 289.544 111.168L280.02 108.12L270.496 105.072C270.303 105.675 270.108 105.856 269.833 106.039L275.38 114.36ZM280.02 108.12L289.47 111.391C290.887 107.298 291.46 102.829 291.46 98.2H281.46H271.46C271.46 101.251 271.073 103.396 270.57 104.849L280.02 108.12ZM281.46 98.2H291.46C291.46 91.6179 290.287 85.1057 286.785 79.7597L278.42 85.24L270.055 90.7203C270.606 91.561 271.46 93.6888 271.46 98.2H281.46ZM278.42 85.24L286.785 79.7597C282.14 72.6706 274.332 70.6 267.22 70.6V80.6V90.6C269.055 90.6 269.961 90.8693 270.273 90.9986C270.407 91.0541 270.394 91.0678 270.307 90.9975C270.213 90.9224 270.121 90.8205 270.055 90.7203L278.42 85.24ZM267.22 80.6V70.6H257.94V80.6V90.6H267.22V80.6ZM257.94 80.6H247.94V116.44H257.94H267.94V80.6H257.94ZM332.293 188.6L327.614 197.438L327.614 197.438L332.293 188.6ZM319.973 175.32L310.874 179.47L310.888 179.501L310.902 179.531L319.973 175.32ZM315.333 151.8L313.846 141.911L305.041 143.235L305.338 152.133L315.333 151.8ZM339.813 148.12L349.811 147.928L349.592 136.538L338.326 138.231L339.813 148.12ZM341.253 161.56L331.551 163.985L331.586 164.127L331.626 164.267L341.253 161.56ZM345.093 168.92L338.269 176.231L338.387 176.34L338.507 176.446L345.093 168.92ZM356.933 168.12L347.895 163.839L347.801 164.037L347.716 164.239L356.933 168.12ZM354.533 148.28L346.285 153.935L346.324 153.991L346.363 154.047L354.533 148.28ZM344.133 137.08L337.563 144.619L337.601 144.653L337.64 144.686L344.133 137.08ZM332.933 127.32L339.502 119.781L339.451 119.736L339.399 119.692L332.933 127.32ZM320.453 113.24L311.953 118.509L312.015 118.609L312.08 118.708L320.453 113.24ZM325.253 68.44L331.881 75.9276L331.915 75.8974L331.949 75.8669L325.253 68.44ZM368.453 63.16L363.539 71.8698L363.586 71.8962L363.633 71.9222L368.453 63.16ZM378.053 72.44L369.311 77.2964L369.392 77.4421L369.478 77.5849L378.053 72.44ZM382.533 84.44L372.682 86.1638L372.707 86.307L372.736 86.4494L382.533 84.44ZM383.973 96.44L385.197 106.365L394.221 105.251L393.969 96.1623L383.973 96.44ZM359.333 99.48L349.336 99.7577L349.642 110.751L360.557 109.405L359.333 99.48ZM358.533 89.56L348.594 90.6643L348.617 90.873L348.649 91.0806L358.533 89.56ZM356.293 83L348.228 88.9136L348.327 89.0476L348.429 89.1782L356.293 83ZM344.933 83.96L336.25 78.9986L336.159 79.1577L336.074 79.3199L344.933 83.96ZM346.533 102.52L338.433 108.385L338.548 108.544L338.669 108.698L346.533 102.52ZM355.653 111.96L349.022 119.446L349.033 119.455L349.044 119.465L355.653 111.96ZM366.373 121.4L359.764 128.905L359.831 128.965L359.9 129.023L366.373 121.4ZM380.613 137.72L372.158 143.06L372.191 143.113L372.225 143.165L380.613 137.72ZM382.373 176.92L391.078 181.841L391.101 181.801L391.123 181.761L382.373 176.92ZM370.533 188.6L365.63 179.884L365.59 179.906L365.551 179.929L370.533 188.6ZM352.613 192.92V182.92C345.638 182.92 340.586 181.676 336.971 179.762L332.293 188.6L327.614 197.438C334.879 201.284 343.373 202.92 352.613 202.92V192.92ZM332.293 188.6L336.971 179.762C333.6 177.977 330.965 175.249 329.043 171.109L319.973 175.32L310.902 179.531C314.527 187.337 320.105 193.463 327.614 197.438L332.293 188.6ZM319.973 175.32L329.071 171.17C327.029 166.694 325.621 160.279 325.327 151.467L315.333 151.8L305.338 152.133C305.684 162.521 307.369 171.786 310.874 179.47L319.973 175.32ZM315.333 151.8L316.819 161.689L341.299 158.009L339.813 148.12L338.326 138.231L313.846 141.911L315.333 151.8ZM339.813 148.12L329.814 148.312C329.928 154.234 330.442 159.548 331.551 163.985L341.253 161.56L350.954 159.135C350.357 156.745 349.91 153.1 349.811 147.928L339.813 148.12ZM341.253 161.56L331.626 164.267C332.805 168.458 334.741 172.938 338.269 176.231L345.093 168.92L351.916 161.609C352.13 161.809 352.047 161.81 351.798 161.334C351.552 160.862 351.222 160.071 350.879 158.853L341.253 161.56ZM345.093 168.92L338.507 176.446C342.105 179.594 346.496 181.16 351.173 181.16V171.16V161.16C351.077 161.16 351.164 161.148 351.35 161.217C351.434 161.248 351.512 161.286 351.577 161.325C351.642 161.364 351.675 161.392 351.678 161.394L345.093 168.92ZM351.173 171.16V181.16C353.712 181.16 356.684 180.741 359.52 179.244C362.553 177.643 364.838 175.114 366.149 172.001L356.933 168.12L347.716 164.239C347.914 163.768 348.232 163.229 348.705 162.71C349.179 162.191 349.7 161.812 350.185 161.556C351.102 161.072 351.619 161.16 351.173 161.16V171.16ZM356.933 168.12L365.97 172.401C367.563 169.038 368.373 165.442 368.373 161.72H358.373H348.373C348.373 162.478 348.222 163.149 347.895 163.839L356.933 168.12ZM358.373 161.72H368.373C368.373 154.746 366.677 148.144 362.702 142.513L354.533 148.28L346.363 154.047C347.508 155.67 348.373 158.027 348.373 161.72H358.373ZM354.533 148.28L362.78 142.625C359.61 138.003 355.496 133.632 350.625 129.474L344.133 137.08L337.64 144.686C341.516 147.994 344.335 151.091 346.285 153.935L354.533 148.28ZM344.133 137.08L350.702 129.541L339.502 119.781L332.933 127.32L326.363 134.859L337.563 144.619L344.133 137.08ZM332.933 127.32L339.399 119.692C335.206 116.137 331.695 112.166 328.825 107.772L320.453 113.24L312.08 118.708C316.037 124.767 320.845 130.183 326.466 134.948L332.933 127.32ZM320.453 113.24L328.952 107.971C326.838 104.561 325.493 99.9318 325.493 93.56H315.493H305.493C305.493 102.762 307.454 111.252 311.953 118.509L320.453 113.24ZM315.493 93.56H325.493C325.493 84.6245 328.059 79.3105 331.881 75.9276L325.253 68.44L318.624 60.9524C309.432 69.0895 305.493 80.5221 305.493 93.56H315.493ZM325.253 68.44L331.949 75.8669C336.151 72.0778 342.375 69.64 351.813 69.64V59.64V49.64C338.85 49.64 327.367 53.0689 318.556 61.0131L325.253 68.44ZM351.813 59.64V69.64C357.752 69.64 361.405 70.6661 363.539 71.8698L368.453 63.16L373.366 54.4502C367.18 50.9606 359.74 49.64 351.813 49.64V59.64ZM368.453 63.16L363.633 71.9222C366.436 73.4636 368.189 75.2766 369.311 77.2964L378.053 72.44L386.794 67.5836C383.65 61.9234 379.002 57.5498 373.272 54.3978L368.453 63.16ZM378.053 72.44L369.478 77.5849C371.089 80.2714 372.148 83.1125 372.682 86.1638L382.533 84.44L392.383 82.7162C391.423 77.2342 389.496 72.0753 386.627 67.295L378.053 72.44ZM382.533 84.44L372.736 86.4494C373.485 90.098 373.887 93.5168 373.976 96.7177L383.973 96.44L393.969 96.1623C393.844 91.6832 393.287 87.102 392.329 82.4306L382.533 84.44ZM383.973 96.44L382.748 86.5152L358.108 89.5552L359.333 99.48L360.557 109.405L385.197 106.365L383.973 96.44ZM359.333 99.48L369.329 99.2023C369.214 95.0863 368.924 91.3429 368.416 88.0394L358.533 89.56L348.649 91.0806C348.994 93.3238 349.237 96.1937 349.336 99.7577L359.333 99.48ZM358.533 89.56L368.471 88.4557C368.046 84.6251 366.935 80.3586 364.156 76.8218L356.293 83L348.429 89.1782C348.188 88.8716 348.183 88.7403 348.269 88.9914C348.356 89.2472 348.495 89.7745 348.594 90.6643L358.533 89.56ZM356.293 83L364.357 77.0864C360.852 72.3067 355.649 70.6 350.853 70.6V80.6V90.6C351.011 90.6 350.646 90.6269 350.016 90.3492C349.318 90.0412 348.677 89.5247 348.228 88.9136L356.293 83ZM350.853 80.6V70.6C344.746 70.6 339.383 73.5155 336.25 78.9986L344.933 83.96L353.615 88.9214C353.489 89.1424 353.088 89.6944 352.309 90.1368C351.546 90.5699 350.945 90.6 350.853 90.6V80.6ZM344.933 83.96L336.074 79.3199C334.249 82.805 333.173 86.6254 333.173 90.68H343.173H353.173C353.173 90.2545 353.27 89.595 353.791 88.6001L344.933 83.96ZM343.173 90.68H333.173C333.173 97.0406 334.672 103.191 338.433 108.385L346.533 102.52L354.632 96.6549C353.913 95.6622 353.173 93.9194 353.173 90.68H343.173ZM346.533 102.52L338.669 108.698C341.481 112.277 344.97 115.857 349.022 119.446L355.653 111.96L362.283 104.474C358.868 101.45 356.277 98.7366 354.396 96.3418L346.533 102.52ZM355.653 111.96L349.044 119.465L359.764 128.905L366.373 121.4L372.981 113.895L362.261 104.455L355.653 111.96ZM366.373 121.4L359.9 129.023C364.805 133.188 368.876 137.864 372.158 143.06L380.613 137.72L389.067 132.38C384.669 125.416 379.246 119.212 372.845 113.777L366.373 121.4ZM380.613 137.72L372.225 143.165C374.895 147.278 376.533 152.795 376.533 160.28H386.533H396.533C396.533 149.845 394.223 140.322 389 132.275L380.613 137.72ZM386.533 160.28H376.533C376.533 164.774 375.525 168.639 373.622 172.079L382.373 176.92L391.123 181.761C394.766 175.175 396.533 167.946 396.533 160.28H386.533ZM382.373 176.92L373.667 171.999C371.83 175.249 369.23 177.859 365.63 179.884L370.533 188.6L375.435 197.316C382.075 193.581 387.368 188.404 391.078 181.841L382.373 176.92ZM370.533 188.6L365.551 179.929C362.33 181.78 358.146 182.92 352.613 182.92V192.92V202.92C360.945 202.92 368.709 201.18 375.514 197.271L370.533 188.6ZM405.68 191H395.68V201H405.68V191ZM405.68 82.68H415.68V72.68H405.68V82.68ZM386.16 82.68H376.16V92.68H386.16V82.68ZM386.16 61.4V51.4H376.16V61.4H386.16ZM453.84 61.4H463.84V51.4H453.84V61.4ZM453.84 82.68V92.68H463.84V82.68H453.84ZM434.48 82.68V72.68H424.48V82.68H434.48ZM434.48 191V201H444.48V191H434.48ZM405.68 191H415.68V82.68H405.68H395.68V191H405.68ZM405.68 82.68V72.68H386.16V82.68V92.68H405.68V82.68ZM386.16 82.68H396.16V61.4H386.16H376.16V82.68H386.16ZM386.16 61.4V71.4H453.84V61.4V51.4H386.16V61.4ZM453.84 61.4H443.84V82.68H453.84H463.84V61.4H453.84ZM453.84 82.68V72.68H434.48V82.68V92.68H453.84V82.68ZM434.48 82.68H424.48V191H434.48H444.48V82.68H434.48ZM434.48 191V181H405.68V191V201H434.48V191Z" fill="white" mask="url(#path-6-outside-2_3_870)"/>
<path d="M757.394 106.058C752.403 90.4969 748.38 87.8881 735.013 91.346C730.877 90.6357 723.596 93.8603 727.558 112.441C732.51 135.667 732.227 170.78 726.488 200.48C721.896 224.241 708.127 229.292 701.817 228.847L689.71 228.686C684.35 231.388 669.934 238.97 655.153 247.683C556.164 299.726 443.286 295.043 387.715 295.088C332.143 295.134 197.146 285.373 169.21 284.411C141.274 283.449 83.755 279.963 53.599 288.209C23.443 296.455 26.7385 299.578 27.1065 308.591C27.4744 317.605 26.0204 318.634 35.9942 331.215C45.968 343.796 53.6647 336.167 64.8704 330.42C76.076 324.673 103.169 308.23 140.944 307.685C178.718 307.141 174.57 308.985 315.644 324.265C456.719 339.544 481.572 336.141 528.866 335.953C576.159 335.764 626.739 320.158 660.297 314.414C693.856 308.671 695.978 318.625 691.818 342.843C687.659 367.061 669.492 398.463 653.052 416.097C636.611 433.731 648.311 432.544 663.52 433.238C756.914 443.525 779.752 429.547 796.667 420.305C813.582 411.064 804.596 407.603 800.506 397.95C789.429 358.329 785.369 322.47 783.605 302.988C792.824 301.375 793.803 291.954 792.834 279.002C791.866 266.049 789.502 242.628 788.145 224.495C786.789 206.362 781.7 209.963 774.876 208.791C771.612 138.547 762.385 121.619 757.394 106.058Z" fill="black"/>
</g>
<defs>
<clipPath id="clip0_3_870">
<rect width="836" height="486" fill="white"/>
</clipPath>
</defs>
</svg>
