<svg width="836" height="486" viewBox="0 0 836 486" fill="none" xmlns="http://www.w3.org/2000/svg">
<g clip-path="url(#clip0_2_869)">
<rect x="651" y="294" width="68" height="91" fill="white"/>
<rect x="93" y="31" width="587" height="420" rx="30" fill="white"/>
<path d="M734.703 86.7851C741.077 85.2039 746.932 84.6059 751.813 87.8074C754.299 89.4386 756.131 91.8014 757.628 94.566C759.115 97.3128 760.403 100.706 761.679 104.684C764.052 112.082 767.778 120.722 771.174 135.939C774.458 150.649 777.493 171.637 779.178 204.648C779.427 204.663 779.692 204.68 779.977 204.702C781.607 204.826 783.893 205.112 786.038 206.526C788.267 207.995 789.728 210.253 790.71 213.08C791.671 215.848 792.282 219.468 792.633 224.159C793.308 233.186 794.235 243.54 795.117 253.285C795.996 263.005 796.834 272.146 797.322 278.666C797.807 285.156 797.889 291.504 796.344 296.562C795.545 299.178 794.252 301.656 792.182 303.634C791.074 304.693 789.814 305.537 788.423 306.179C790.335 326.102 794.494 359.634 804.758 396.444C805.592 398.343 806.655 399.975 807.816 401.812C808.881 403.5 810.364 405.83 810.876 408.402C811.49 411.483 810.686 414.438 808.442 417.144C806.414 419.587 803.195 421.866 798.825 424.254C790.263 428.932 779.792 435.034 759.538 438.529C739.487 441.988 710.012 442.875 663.19 437.728C659.632 437.568 655.825 437.498 652.762 437.229C651.17 437.089 649.584 436.883 648.136 436.534C646.727 436.195 645.152 435.653 643.789 434.672C642.313 433.61 641.101 432.03 640.705 429.912C640.338 427.947 640.777 426.048 641.451 424.407C642.76 421.221 645.606 417.485 649.76 413.029C657.677 404.537 666.118 392.602 673.088 379.789C680.073 366.949 685.417 353.528 687.383 342.081C688.416 336.064 688.992 331.284 688.87 327.522C688.747 323.762 687.943 321.641 686.818 320.359C685.735 319.123 683.714 317.941 679.5 317.504C675.249 317.062 669.296 317.44 661.056 318.85C644.311 321.716 623.748 326.959 600.632 331.676C577.787 336.338 552.976 340.357 528.884 340.453C481.542 340.642 456.488 344.046 315.16 328.739C173.723 313.42 178.416 311.646 141.008 312.185C104.471 312.712 78.3283 328.576 66.9237 334.425C64.1066 335.87 61.9433 337.199 59.1748 338.696C56.6548 340.059 53.8874 341.406 50.9806 342.076C47.9489 342.774 44.7167 342.748 41.3977 341.356C38.1709 340.003 35.2516 337.521 32.4683 334.01C27.4952 327.737 24.8611 323.753 23.6549 319.915C23.0307 317.929 22.8332 316.138 22.7522 314.364C22.713 313.504 22.6998 312.601 22.6852 311.708C22.6703 310.795 22.6538 309.842 22.6103 308.775C22.5677 307.732 22.4873 306.85 22.4132 305.775C22.3448 304.782 22.2834 303.634 22.3595 302.47C22.5283 299.89 23.3708 297.315 25.7029 294.952C27.8022 292.825 30.8889 291.101 34.9934 289.435C39.1664 287.742 44.8158 285.945 52.4118 283.868C68.1229 279.572 90.5768 278.396 112.229 278.357C133.979 278.318 155.501 279.437 169.365 279.914C197.779 280.893 332.153 290.633 387.711 290.588C443.556 290.543 555.172 295.125 652.973 243.744C667.814 235 682.263 227.4 687.685 224.668L688.669 224.172L689.77 224.186L701.877 224.348L702.006 224.35L702.133 224.359C705.703 224.61 717.814 221.647 722.069 199.627C727.719 170.389 727.958 135.898 723.157 113.379C721.091 103.694 721.668 96.8368 724.4 92.3272C727.06 87.9377 731.259 86.5541 734.703 86.7851Z" fill="black" stroke="white" stroke-width="9"/>
<path d="M156.344 202.704C165.496 202.704 172.568 204.816 177.56 209.04C182.552 213.2 185.048 219.12 185.048 226.8C185.048 234.928 182.552 241.264 177.56 245.808C172.568 250.288 165.496 252.528 156.344 252.528H146.072V270H123.8V202.704H156.344ZM156.344 235.632C158.776 235.632 160.632 234.928 161.912 233.52C163.256 232.048 163.928 230.032 163.928 227.472C163.928 224.976 163.256 223.056 161.912 221.712C160.632 220.304 158.776 219.6 156.344 219.6H146.072V235.632H156.344ZM150.68 244.56H172.184L187.64 270H162.488L150.68 244.56ZM190.483 202.704H247.411V219.6H212.755V227.856H244.243V244.752H212.755V253.104H248.275V270H190.483V202.704ZM304.284 226.032C302.044 224.688 299.484 223.408 296.604 222.192C293.724 220.976 290.908 219.984 288.156 219.216C285.468 218.448 283.132 218.064 281.148 218.064C279.932 218.064 278.94 218.288 278.172 218.736C277.404 219.184 277.02 219.952 277.02 221.04C277.02 222.32 277.628 223.376 278.844 224.208C280.124 224.976 281.788 225.648 283.836 226.224C285.948 226.8 288.252 227.44 290.748 228.144C293.244 228.784 295.708 229.616 298.14 230.64C300.636 231.6 302.908 232.848 304.956 234.384C307.068 235.92 308.732 237.904 309.948 240.336C311.228 242.768 311.868 245.744 311.868 249.264C311.868 254.32 310.556 258.48 307.932 261.744C305.308 264.944 301.852 267.344 297.564 268.944C293.276 270.48 288.604 271.248 283.548 271.248C279.644 271.248 275.644 270.832 271.548 270C267.516 269.104 263.644 267.856 259.932 266.256C256.22 264.592 252.86 262.608 249.852 260.304L258.108 243.504C260.412 245.488 263.132 247.28 266.268 248.88C269.404 250.48 272.54 251.76 275.676 252.72C278.812 253.68 281.5 254.16 283.74 254.16C285.404 254.16 286.716 253.872 287.676 253.296C288.636 252.656 289.116 251.696 289.116 250.416C289.116 249.136 288.476 248.112 287.196 247.344C285.98 246.512 284.316 245.808 282.204 245.232C280.156 244.656 277.884 244.08 275.388 243.504C272.892 242.864 270.396 242.096 267.9 241.2C265.468 240.24 263.196 239.024 261.084 237.552C259.036 236.016 257.372 234.096 256.092 231.792C254.876 229.488 254.268 226.608 254.268 223.152C254.268 218.608 255.452 214.672 257.82 211.344C260.188 208.016 263.516 205.456 267.804 203.664C272.156 201.872 277.244 200.976 283.068 200.976C288.38 200.976 293.628 201.712 298.812 203.184C304.06 204.656 308.572 206.608 312.348 209.04L304.284 226.032ZM346.338 202.704C355.106 202.704 361.89 204.816 366.69 209.04C371.49 213.2 373.89 219.12 373.89 226.8C373.89 234.928 371.49 241.264 366.69 245.808C361.89 250.288 355.106 252.528 346.338 252.528H327.33L337.026 242.832V270H314.754V202.704H346.338ZM345.186 235.632C347.618 235.632 349.474 234.928 350.754 233.52C352.098 232.048 352.77 230.032 352.77 227.472C352.77 224.976 352.098 223.056 350.754 221.712C349.474 220.304 347.618 219.6 345.186 219.6H327.33L337.026 209.904V245.328L327.33 235.632H345.186ZM411.286 201.264C416.662 201.264 421.59 202.128 426.07 203.856C430.55 205.584 434.454 208.016 437.782 211.152C441.11 214.288 443.67 218 445.462 222.288C447.318 226.512 448.246 231.152 448.246 236.208C448.246 241.264 447.318 245.968 445.462 250.32C443.67 254.608 441.11 258.352 437.782 261.552C434.454 264.688 430.55 267.152 426.07 268.944C421.59 270.672 416.662 271.536 411.286 271.536C405.91 271.536 400.982 270.672 396.502 268.944C392.022 267.152 388.118 264.688 384.79 261.552C381.462 258.352 378.87 254.608 377.014 250.32C375.222 246.032 374.326 241.328 374.326 236.208C374.326 231.088 375.222 226.416 377.014 222.192C378.87 217.904 381.462 214.224 384.79 211.152C388.118 208.016 392.022 205.584 396.502 203.856C400.982 202.128 405.91 201.264 411.286 201.264ZM411.574 219.792C409.654 219.792 407.798 220.208 406.006 221.04C404.278 221.808 402.742 222.96 401.398 224.496C400.118 225.968 399.094 227.696 398.326 229.68C397.558 231.664 397.174 233.872 397.174 236.304C397.174 238.672 397.558 240.88 398.326 242.928C399.094 244.976 400.15 246.768 401.494 248.304C402.838 249.776 404.374 250.928 406.102 251.76C407.83 252.592 409.654 253.008 411.574 253.008C413.494 253.008 415.286 252.592 416.95 251.76C418.614 250.928 420.086 249.776 421.366 248.304C422.646 246.768 423.638 244.976 424.342 242.928C425.046 240.88 425.398 238.672 425.398 236.304C425.398 233.872 425.046 231.664 424.342 229.68C423.638 227.696 422.646 225.968 421.366 224.496C420.086 222.96 418.614 221.808 416.95 221.04C415.286 220.208 413.494 219.792 411.574 219.792ZM451.588 202.704H470.212L502.756 244.944L496.804 246.96V202.704H516.964V270H498.34L465.892 227.952L471.844 225.936V270H451.588V202.704ZM574.108 226.032C571.868 224.688 569.308 223.408 566.428 222.192C563.548 220.976 560.732 219.984 557.98 219.216C555.292 218.448 552.956 218.064 550.972 218.064C549.756 218.064 548.764 218.288 547.996 218.736C547.228 219.184 546.844 219.952 546.844 221.04C546.844 222.32 547.452 223.376 548.668 224.208C549.948 224.976 551.612 225.648 553.66 226.224C555.772 226.8 558.076 227.44 560.572 228.144C563.068 228.784 565.532 229.616 567.964 230.64C570.46 231.6 572.732 232.848 574.78 234.384C576.892 235.92 578.556 237.904 579.772 240.336C581.052 242.768 581.692 245.744 581.692 249.264C581.692 254.32 580.38 258.48 577.756 261.744C575.132 264.944 571.676 267.344 567.388 268.944C563.1 270.48 558.428 271.248 553.372 271.248C549.468 271.248 545.468 270.832 541.372 270C537.34 269.104 533.468 267.856 529.756 266.256C526.044 264.592 522.684 262.608 519.676 260.304L527.932 243.504C530.236 245.488 532.956 247.28 536.092 248.88C539.228 250.48 542.364 251.76 545.5 252.72C548.636 253.68 551.324 254.16 553.564 254.16C555.228 254.16 556.54 253.872 557.5 253.296C558.46 252.656 558.94 251.696 558.94 250.416C558.94 249.136 558.3 248.112 557.02 247.344C555.804 246.512 554.14 245.808 552.028 245.232C549.98 244.656 547.708 244.08 545.212 243.504C542.716 242.864 540.22 242.096 537.724 241.2C535.292 240.24 533.02 239.024 530.908 237.552C528.86 236.016 527.196 234.096 525.916 231.792C524.7 229.488 524.092 226.608 524.092 223.152C524.092 218.608 525.276 214.672 527.644 211.344C530.012 208.016 533.34 205.456 537.628 203.664C541.98 201.872 547.068 200.976 552.892 200.976C558.204 200.976 563.452 201.712 568.636 203.184C573.884 204.656 578.396 206.608 582.172 209.04L574.108 226.032ZM584.577 202.704H641.505V219.6H606.849V227.856H638.337V244.752H606.849V253.104H642.369V270H584.577V202.704Z" fill="black"/>
<path d="M124.6 191V61.4H180.6V80.76H153.24V113.4H177.08V133.4H153.24V191H124.6ZM187.735 191V61.4H216.375V191H187.735ZM229.3 191V61.4H264.98C273.727 61.4 281.3 62.36 287.7 64.28C294.1 66.2 299.06 69.6667 302.58 74.68C306.207 79.5867 308.02 86.5733 308.02 95.64C308.02 100.973 307.593 105.72 306.74 109.88C305.887 114.04 304.287 117.667 301.94 120.76C299.7 123.747 296.447 126.253 292.18 128.28L309.94 191H280.34L266.1 132.92H257.94V191H229.3ZM257.94 116.44H265.94C269.993 116.44 273.14 115.747 275.38 114.36C277.62 112.867 279.167 110.787 280.02 108.12C280.98 105.347 281.46 102.04 281.46 98.2C281.46 92.6533 280.447 88.3333 278.42 85.24C276.393 82.1467 272.66 80.6 267.22 80.6H257.94V116.44ZM352.613 192.92C344.506 192.92 337.733 191.48 332.293 188.6C326.853 185.72 322.746 181.293 319.973 175.32C317.199 169.24 315.653 161.4 315.333 151.8L339.813 148.12C339.919 153.667 340.399 158.147 341.253 161.56C342.213 164.973 343.493 167.427 345.093 168.92C346.799 170.413 348.826 171.16 351.173 171.16C354.159 171.16 356.079 170.147 356.933 168.12C357.893 166.093 358.373 163.96 358.373 161.72C358.373 156.387 357.093 151.907 354.533 148.28C351.973 144.547 348.506 140.813 344.133 137.08L332.933 127.32C328.026 123.16 323.866 118.467 320.453 113.24C317.146 107.907 315.493 101.347 315.493 93.56C315.493 82.5733 318.746 74.2 325.253 68.44C331.759 62.5733 340.613 59.64 351.813 59.64C358.746 59.64 364.293 60.8133 368.453 63.16C372.719 65.5067 375.919 68.6 378.053 72.44C380.293 76.1733 381.786 80.1733 382.533 84.44C383.386 88.6 383.866 92.6 383.973 96.44L359.333 99.48C359.226 95.64 358.959 92.3333 358.533 89.56C358.213 86.68 357.466 84.4933 356.293 83C355.119 81.4 353.306 80.6 350.853 80.6C348.186 80.6 346.213 81.72 344.933 83.96C343.759 86.2 343.173 88.44 343.173 90.68C343.173 95.48 344.293 99.4267 346.533 102.52C348.879 105.507 351.919 108.653 355.653 111.96L366.373 121.4C372.026 126.2 376.773 131.64 380.613 137.72C384.559 143.8 386.533 151.32 386.533 160.28C386.533 166.36 385.146 171.907 382.373 176.92C379.599 181.827 375.653 185.72 370.533 188.6C365.519 191.48 359.546 192.92 352.613 192.92ZM405.68 191V82.68H386.16V61.4H453.84V82.68H434.48V191H405.68Z" fill="#FF1821"/>
<path d="M129.355 372.229H174.156V385.222H159.956V422H143.484V385.222H129.355V372.229ZM199.973 372.229C206.742 372.229 211.972 373.791 215.664 376.915C219.356 379.992 221.202 384.37 221.202 390.05C221.202 396.061 219.356 400.747 215.664 404.108C211.972 407.421 206.742 409.078 199.973 409.078H192.376V422H175.904V372.229H199.973ZM199.973 396.582C201.772 396.582 203.145 396.061 204.091 395.02C205.085 393.931 205.582 392.44 205.582 390.547C205.582 388.701 205.085 387.281 204.091 386.287C203.145 385.246 201.772 384.725 199.973 384.725H192.376V396.582H199.973ZM195.784 403.185H211.688L223.119 422H204.517L195.784 403.185ZM225.222 372.229H267.325V384.725H241.694V390.831H264.982V403.327H241.694V409.504H267.964V422H225.222V372.229ZM272.112 372.229H314.215V384.725H288.584V390.831H311.872V403.327H288.584V409.504H314.854V422H272.112V372.229ZM373.284 389.482C371.628 388.488 369.734 387.541 367.604 386.642C365.474 385.743 363.392 385.009 361.356 384.441C359.368 383.873 357.641 383.589 356.173 383.589C355.274 383.589 354.54 383.755 353.972 384.086C353.404 384.417 353.12 384.985 353.12 385.79C353.12 386.737 353.57 387.518 354.469 388.133C355.416 388.701 356.647 389.198 358.161 389.624C359.723 390.05 361.427 390.523 363.273 391.044C365.119 391.517 366.942 392.133 368.74 392.89C370.586 393.6 372.267 394.523 373.781 395.659C375.343 396.795 376.574 398.262 377.473 400.061C378.42 401.86 378.893 404.061 378.893 406.664C378.893 410.403 377.923 413.48 375.982 415.894C374.042 418.261 371.486 420.036 368.314 421.219C365.143 422.355 361.688 422.923 357.948 422.923C355.061 422.923 352.103 422.615 349.073 422C346.091 421.337 343.228 420.414 340.482 419.231C337.737 418 335.252 416.533 333.027 414.829L339.133 402.404C340.837 403.871 342.849 405.197 345.168 406.38C347.488 407.563 349.807 408.51 352.126 409.22C354.446 409.93 356.434 410.285 358.09 410.285C359.321 410.285 360.291 410.072 361.001 409.646C361.711 409.173 362.066 408.463 362.066 407.516C362.066 406.569 361.593 405.812 360.646 405.244C359.747 404.629 358.516 404.108 356.954 403.682C355.44 403.256 353.759 402.83 351.913 402.404C350.067 401.931 348.221 401.363 346.375 400.7C344.577 399.99 342.896 399.091 341.334 398.002C339.82 396.866 338.589 395.446 337.642 393.742C336.743 392.038 336.293 389.908 336.293 387.352C336.293 383.991 337.169 381.08 338.92 378.619C340.672 376.158 343.133 374.264 346.304 372.939C349.523 371.614 353.286 370.951 357.593 370.951C361.522 370.951 365.403 371.495 369.237 372.584C373.119 373.673 376.456 375.116 379.248 376.915L373.284 389.482ZM381.028 372.229H423.131V384.725H397.5V390.831H420.788V403.327H397.5V409.504H423.77V422H381.028V372.229ZM451.987 372.229C458.756 372.229 463.986 373.791 467.678 376.915C471.37 379.992 473.216 384.37 473.216 390.05C473.216 396.061 471.37 400.747 467.678 404.108C463.986 407.421 458.756 409.078 451.987 409.078H444.39V422H427.918V372.229H451.987ZM451.987 396.582C453.786 396.582 455.159 396.061 456.105 395.02C457.099 393.931 457.596 392.44 457.596 390.547C457.596 388.701 457.099 387.281 456.105 386.287C455.159 385.246 453.786 384.725 451.987 384.725H444.39V396.582H451.987ZM447.798 403.185H463.702L475.133 422H456.531L447.798 403.185ZM472.984 372.229H490.592L500.887 404.889L511.111 372.229H527.938L508.91 422H491.87L472.984 372.229ZM528.98 372.229H545.452V422H528.98V372.229ZM586.421 391.683C584.954 389.6 583.179 387.944 581.096 386.713C579.061 385.482 577.073 384.867 575.132 384.867C573.665 384.867 572.292 385.175 571.014 385.79C569.783 386.358 568.695 387.186 567.748 388.275C566.801 389.316 566.068 390.571 565.547 392.038C565.074 393.458 564.837 395.02 564.837 396.724C564.837 398.475 565.074 400.085 565.547 401.552C566.068 403.019 566.801 404.297 567.748 405.386C568.695 406.427 569.783 407.256 571.014 407.871C572.292 408.439 573.665 408.723 575.132 408.723C576.931 408.723 578.848 408.202 580.883 407.161C582.966 406.072 584.812 404.652 586.421 402.901L595.935 413.054C594.089 415.089 591.959 416.864 589.545 418.379C587.178 419.894 584.67 421.077 582.019 421.929C579.416 422.734 576.836 423.136 574.28 423.136C570.446 423.136 566.92 422.497 563.701 421.219C560.53 419.894 557.761 418.071 555.394 415.752C553.027 413.385 551.181 410.616 549.856 407.445C548.578 404.226 547.939 400.724 547.939 396.937C547.939 393.198 548.602 389.766 549.927 386.642C551.252 383.518 553.122 380.796 555.536 378.477C557.997 376.158 560.861 374.359 564.127 373.081C567.44 371.803 571.038 371.164 574.919 371.164C577.475 371.164 580.031 371.543 582.587 372.3C585.19 373.057 587.628 374.122 589.9 375.495C592.219 376.868 594.231 378.501 595.935 380.394L586.421 391.683ZM597.176 372.229H639.279V384.725H613.648V390.831H636.936V403.327H613.648V409.504H639.918V422H597.176V372.229Z" fill="url(#paint0_linear_2_869)"/>
<rect x="119" y="295" width="532" height="62" rx="6" fill="black"/>
<path d="M137.4 342V309.6H151.4V314.44H144.56V322.6H150.52V327.6H144.56V342H137.4ZM153.184 342V309.6H160.344V342H153.184ZM163.575 342V309.6H172.495C174.682 309.6 176.575 309.84 178.175 310.32C179.775 310.8 181.015 311.667 181.895 312.92C182.802 314.147 183.255 315.893 183.255 318.16C183.255 319.493 183.148 320.68 182.935 321.72C182.722 322.76 182.322 323.667 181.735 324.44C181.175 325.187 180.362 325.813 179.295 326.32L183.735 342H176.335L172.775 327.48H170.735V342H163.575ZM170.735 323.36H172.735C173.748 323.36 174.535 323.187 175.095 322.84C175.655 322.467 176.042 321.947 176.255 321.28C176.495 320.587 176.615 319.76 176.615 318.8C176.615 317.413 176.362 316.333 175.855 315.56C175.348 314.787 174.415 314.4 173.055 314.4H170.735V323.36ZM185.959 342V309.6H200.519V314.48H193.119V322.52H198.759V327.48H193.119V337.16H200.599V342H185.959ZM202.25 342V309.6H216.25V314.44H209.41V322.6H215.37V327.6H209.41V342H202.25ZM218.034 342V309.6H225.194V342H218.034ZM236.865 342.48C234.625 342.48 232.852 342.013 231.545 341.08C230.265 340.147 229.345 338.84 228.785 337.16C228.252 335.453 227.985 333.493 227.985 331.28V320.4C227.985 318.107 228.278 316.12 228.865 314.44C229.452 312.76 230.452 311.467 231.865 310.56C233.305 309.627 235.252 309.16 237.705 309.16C240.105 309.16 241.985 309.56 243.345 310.36C244.732 311.16 245.718 312.267 246.305 313.68C246.892 315.093 247.185 316.747 247.185 318.64V320.72H240.185V318.08C240.185 317.387 240.132 316.747 240.025 316.16C239.945 315.573 239.732 315.107 239.385 314.76C239.065 314.387 238.532 314.2 237.785 314.2C237.012 314.2 236.452 314.413 236.105 314.84C235.758 315.24 235.532 315.747 235.425 316.36C235.345 316.973 235.305 317.613 235.305 318.28V333.28C235.305 334 235.372 334.68 235.505 335.32C235.665 335.933 235.932 336.44 236.305 336.84C236.705 337.213 237.265 337.4 237.985 337.4C238.732 337.4 239.305 337.2 239.705 336.8C240.105 336.4 240.385 335.88 240.545 335.24C240.705 334.6 240.785 333.92 240.785 333.2V329.4H237.865V325.2H247.225V342H242.505L242.105 339.32C241.678 340.227 241.052 340.987 240.225 341.6C239.398 342.187 238.278 342.48 236.865 342.48ZM250.226 342V309.6H257.386V322.72H262.426V309.6H269.586V342H262.426V327.84H257.386V342H250.226ZM275.84 342V314.92H270.96V309.6H287.88V314.92H283.04V342H275.84ZM289.133 342V309.6H303.693V314.48H296.293V322.52H301.933V327.48H296.293V337.16H303.773V342H289.133ZM305.423 342V309.6H314.343C316.53 309.6 318.423 309.84 320.023 310.32C321.623 310.8 322.863 311.667 323.743 312.92C324.65 314.147 325.103 315.893 325.103 318.16C325.103 319.493 324.997 320.68 324.783 321.72C324.57 322.76 324.17 323.667 323.583 324.44C323.023 325.187 322.21 325.813 321.143 326.32L325.583 342H318.183L314.623 327.48H312.583V342H305.423ZM312.583 323.36H314.583C315.597 323.36 316.383 323.187 316.943 322.84C317.503 322.467 317.89 321.947 318.103 321.28C318.343 320.587 318.463 319.76 318.463 318.8C318.463 317.413 318.21 316.333 317.703 315.56C317.197 314.787 316.263 314.4 314.903 314.4H312.583V323.36ZM345.722 342.48C343.296 342.48 341.376 342.053 339.962 341.2C338.549 340.347 337.536 339.12 336.922 337.52C336.309 335.92 336.002 334.013 336.002 331.8V319.76C336.002 317.52 336.309 315.613 336.922 314.04C337.536 312.467 338.549 311.267 339.962 310.44C341.376 309.587 343.296 309.16 345.722 309.16C348.176 309.16 350.109 309.587 351.522 310.44C352.962 311.267 353.989 312.467 354.602 314.04C355.216 315.613 355.522 317.52 355.522 319.76V331.8C355.522 334.013 355.216 335.92 354.602 337.52C353.989 339.12 352.962 340.347 351.522 341.2C350.109 342.053 348.176 342.48 345.722 342.48ZM345.722 337.4C346.469 337.4 347.016 337.213 347.362 336.84C347.709 336.467 347.936 335.987 348.042 335.4C348.149 334.813 348.202 334.213 348.202 333.6V318C348.202 317.36 348.149 316.76 348.042 316.2C347.936 315.613 347.709 315.133 347.362 314.76C347.016 314.387 346.469 314.2 345.722 314.2C345.029 314.2 344.509 314.387 344.162 314.76C343.816 315.133 343.589 315.613 343.482 316.2C343.376 316.76 343.322 317.36 343.322 318V333.6C343.322 334.213 343.362 334.813 343.442 335.4C343.549 335.987 343.762 336.467 344.082 336.84C344.429 337.213 344.976 337.4 345.722 337.4ZM360.88 342L356.96 309.6H363.04L364.96 328.48L367.4 309.64H372.16L374.72 328.36L376.68 309.6H382.68L378.8 342H372.56L369.8 322.44L367.2 342H360.88ZM384.57 342V309.6H389.61L396.25 325.2V309.6H402.17V342H397.33L390.69 325.2V342H384.57ZM405.392 342V309.6H419.952V314.48H412.552V322.52H418.192V327.48H412.552V337.16H420.032V342H405.392ZM421.683 342V309.6H429.883C432.709 309.6 434.909 309.96 436.483 310.68C438.056 311.373 439.163 312.48 439.803 314C440.443 315.493 440.763 317.44 440.763 319.84V331.6C440.763 334.027 440.443 336.013 439.803 337.56C439.163 339.08 438.056 340.2 436.483 340.92C434.936 341.64 432.763 342 429.963 342H421.683ZM428.843 337.04H429.963C431.056 337.04 431.843 336.88 432.323 336.56C432.803 336.24 433.096 335.76 433.203 335.12C433.336 334.48 433.403 333.68 433.403 332.72V318.6C433.403 317.64 433.323 316.867 433.163 316.28C433.029 315.693 432.723 315.267 432.243 315C431.763 314.733 430.989 314.6 429.923 314.6H428.843V337.04ZM458.995 342.48C457.501 342.48 456.168 342.173 454.995 341.56C453.848 340.92 452.941 340.027 452.275 338.88C451.635 337.707 451.315 336.32 451.315 334.72C451.315 332.667 451.741 330.867 452.595 329.32C453.475 327.773 454.581 326.307 455.915 324.92C455.381 323.96 454.861 323 454.355 322.04C453.848 321.053 453.435 320.08 453.115 319.12C452.821 318.133 452.675 317.173 452.675 316.24C452.675 314.907 452.941 313.707 453.475 312.64C454.035 311.573 454.835 310.72 455.875 310.08C456.941 309.44 458.235 309.12 459.755 309.12C461.141 309.12 462.355 309.413 463.395 310C464.435 310.56 465.248 311.36 465.835 312.4C466.448 313.44 466.755 314.64 466.755 316C466.755 317.493 466.448 318.813 465.835 319.96C465.248 321.107 464.528 322.147 463.675 323.08C462.848 323.987 462.048 324.867 461.275 325.72L465.075 332.84C465.315 332.413 465.515 331.813 465.675 331.04C465.861 330.24 465.995 329.387 466.075 328.48C466.181 327.573 466.248 326.773 466.275 326.08H470.675C470.675 327.653 470.568 329.04 470.355 330.24C470.168 331.44 469.888 332.533 469.515 333.52C469.168 334.507 468.741 335.467 468.235 336.4C468.501 336.747 468.875 337.04 469.355 337.28C469.861 337.52 470.368 337.667 470.875 337.72V342.48C470.688 342.507 470.501 342.533 470.315 342.56C470.128 342.587 469.941 342.6 469.755 342.6C469.088 342.6 468.435 342.453 467.795 342.16C467.181 341.893 466.621 341.547 466.115 341.12C465.608 340.667 465.168 340.213 464.795 339.76C464.128 340.613 463.301 341.28 462.315 341.76C461.355 342.24 460.248 342.48 458.995 342.48ZM459.235 338.12C459.821 338.12 460.355 337.973 460.835 337.68C461.341 337.36 461.768 336.947 462.115 336.44L458.155 329.12C457.568 330.053 457.141 330.96 456.875 331.84C456.608 332.693 456.475 333.56 456.475 334.44C456.475 335.133 456.581 335.76 456.795 336.32C457.008 336.88 457.315 337.32 457.715 337.64C458.141 337.96 458.648 338.12 459.235 338.12ZM459.435 322.28C459.808 321.773 460.168 321.147 460.515 320.4C460.861 319.653 461.141 318.88 461.355 318.08C461.595 317.253 461.715 316.52 461.715 315.88C461.715 315.187 461.528 314.653 461.155 314.28C460.781 313.907 460.341 313.72 459.835 313.72C459.275 313.72 458.821 313.947 458.475 314.4C458.128 314.853 457.955 315.467 457.955 316.24C457.955 317.333 458.115 318.413 458.435 319.48C458.755 320.52 459.088 321.453 459.435 322.28ZM491.282 342.48C488.855 342.48 486.935 342.053 485.522 341.2C484.108 340.347 483.095 339.12 482.482 337.52C481.868 335.92 481.562 334.013 481.562 331.8V319.76C481.562 317.52 481.868 315.613 482.482 314.04C483.095 312.467 484.108 311.267 485.522 310.44C486.935 309.587 488.855 309.16 491.282 309.16C493.735 309.16 495.668 309.587 497.082 310.44C498.522 311.267 499.548 312.467 500.162 314.04C500.775 315.613 501.082 317.52 501.082 319.76V331.8C501.082 334.013 500.775 335.92 500.162 337.52C499.548 339.12 498.522 340.347 497.082 341.2C495.668 342.053 493.735 342.48 491.282 342.48ZM491.282 337.4C492.028 337.4 492.575 337.213 492.922 336.84C493.268 336.467 493.495 335.987 493.602 335.4C493.708 334.813 493.762 334.213 493.762 333.6V318C493.762 317.36 493.708 316.76 493.602 316.2C493.495 315.613 493.268 315.133 492.922 314.76C492.575 314.387 492.028 314.2 491.282 314.2C490.588 314.2 490.068 314.387 489.722 314.76C489.375 315.133 489.148 315.613 489.042 316.2C488.935 316.76 488.882 317.36 488.882 318V333.6C488.882 334.213 488.922 334.813 489.002 335.4C489.108 335.987 489.322 336.467 489.642 336.84C489.988 337.213 490.535 337.4 491.282 337.4ZM503.839 342V309.6H514.719C516.666 309.6 518.266 309.973 519.519 310.72C520.772 311.44 521.706 312.507 522.319 313.92C522.932 315.307 523.239 317 523.239 319C523.239 321.507 522.826 323.427 521.999 324.76C521.172 326.067 520.052 326.973 518.639 327.48C517.226 327.987 515.639 328.24 513.879 328.24H510.999V342H503.839ZM510.999 323.24H513.399C514.279 323.24 514.946 323.08 515.399 322.76C515.852 322.44 516.146 321.96 516.279 321.32C516.439 320.68 516.519 319.867 516.519 318.88C516.519 318.053 516.452 317.333 516.319 316.72C516.212 316.08 515.932 315.573 515.479 315.2C515.026 314.827 514.319 314.64 513.359 314.64H510.999V323.24ZM525.091 342V309.6H539.651V314.48H532.251V322.52H537.891V327.48H532.251V337.16H539.731V342H525.091ZM541.381 342V309.6H550.301C552.488 309.6 554.381 309.84 555.981 310.32C557.581 310.8 558.821 311.667 559.701 312.92C560.608 314.147 561.061 315.893 561.061 318.16C561.061 319.493 560.955 320.68 560.741 321.72C560.528 322.76 560.128 323.667 559.541 324.44C558.981 325.187 558.168 325.813 557.101 326.32L561.541 342H554.141L550.581 327.48H548.541V342H541.381ZM548.541 323.36H550.541C551.555 323.36 552.341 323.187 552.901 322.84C553.461 322.467 553.848 321.947 554.061 321.28C554.301 320.587 554.421 319.76 554.421 318.8C554.421 317.413 554.168 316.333 553.661 315.56C553.155 314.787 552.221 314.4 550.861 314.4H548.541V323.36ZM562.206 342L568.326 309.6H576.486L582.526 342H575.926L574.846 335.16H570.086L568.966 342H562.206ZM570.726 330.88H574.166L572.446 318.24L570.726 330.88ZM585.32 342V314.92H580.44V309.6H597.36V314.92H592.52V342H585.32ZM598.612 342V309.6H613.172V314.48H605.772V322.52H611.412V327.48H605.772V337.16H613.252V342H598.612ZM614.903 342V309.6H623.103C625.93 309.6 628.13 309.96 629.703 310.68C631.276 311.373 632.383 312.48 633.023 314C633.663 315.493 633.983 317.44 633.983 319.84V331.6C633.983 334.027 633.663 336.013 633.023 337.56C632.383 339.08 631.276 340.2 629.703 340.92C628.156 341.64 625.983 342 623.183 342H614.903ZM622.063 337.04H623.183C624.276 337.04 625.063 336.88 625.543 336.56C626.023 336.24 626.316 335.76 626.423 335.12C626.556 334.48 626.623 333.68 626.623 332.72V318.6C626.623 317.64 626.543 316.867 626.383 316.28C626.25 315.693 625.943 315.267 625.463 315C624.983 314.733 624.21 314.6 623.143 314.6H622.063V337.04Z" fill="white"/>
<path d="M579.089 80.4043C577.661 81.6284 566.764 92.4748 561.494 97.745C561.494 98.085 561.647 98.816 562.259 99.02C563.024 99.275 569.654 109.475 569.909 122.991C570.164 136.506 563.024 145.687 562.259 146.707C561.494 147.727 561.494 148.492 562.259 149.257C563.024 150.022 578.069 164.557 579.089 165.322C580.109 166.087 581.129 165.832 582.404 165.322C583.679 164.812 584.189 163.282 584.699 161.497C585.209 159.712 585.209 159.202 587.505 154.612C589.8 150.022 588.797 151.015 591.585 146.707C594.373 142.398 600 137.291 600 122.226C600 106.925 589.79 95.7859 588.015 91.8798C586.74 89.0747 584.699 85.2495 584.699 83.7195C584.699 82.1894 584.189 81.1694 583.169 80.4043C582.149 79.6393 580.874 78.8743 579.089 80.4043Z" fill="black"/>
<path d="M480.911 80.4043C482.339 81.6284 493.236 92.4748 498.506 97.745C498.506 98.085 498.353 98.816 497.741 99.02C496.976 99.275 490.346 109.475 490.091 122.991C489.836 136.506 496.976 145.687 497.741 146.707C498.506 147.727 498.506 148.492 497.741 149.257C496.976 150.022 481.931 164.557 480.911 165.322C479.891 166.087 478.871 165.832 477.596 165.322C476.321 164.812 475.811 163.282 475.301 161.497C474.791 159.712 474.791 159.202 472.495 154.612C470.2 150.022 471.203 151.015 468.415 146.707C465.627 142.398 460 137.291 460 122.226C460 106.925 470.21 95.7859 471.985 91.8798C473.26 89.0747 475.301 85.2495 475.301 83.7195C475.301 82.1894 475.811 81.1694 476.831 80.4043C477.851 79.6393 479.126 78.8743 480.911 80.4043Z" fill="black"/>
<path d="M487.914 172.089C489.138 170.661 499.985 159.764 505.255 154.494C505.595 154.494 506.326 154.647 506.53 155.259C506.785 156.024 516.985 162.654 530.501 162.909C544.016 163.164 553.197 156.024 554.217 155.259C555.237 154.494 556.002 154.494 556.767 155.259C557.532 156.024 572.067 171.069 572.832 172.089C573.597 173.109 573.342 174.129 572.832 175.404C572.322 176.679 570.792 177.189 569.007 177.699C567.222 178.209 566.712 178.209 562.122 180.505C557.532 182.8 558.525 181.797 554.217 184.585C549.908 187.373 544.801 193 529.736 193C514.435 193 503.296 182.79 499.39 181.015C496.585 179.74 492.759 177.699 491.229 177.699C489.699 177.699 488.679 177.189 487.914 176.169C487.149 175.149 486.384 173.874 487.914 172.089Z" fill="black"/>
<path d="M487.914 73.9107C489.138 75.3388 499.985 86.2362 505.255 91.5064C505.595 91.5064 506.326 91.3534 506.53 90.7413C506.785 89.9763 516.985 83.3461 530.501 83.0911C544.016 82.8361 553.197 89.9763 554.217 90.7413C555.237 91.5064 556.002 91.5064 556.767 90.7413C557.532 89.9763 572.067 74.9308 572.832 73.9107C573.597 72.8907 573.342 71.8707 572.832 70.5956C572.322 69.3206 570.792 68.8106 569.007 68.3005C567.222 67.7905 566.712 67.7905 562.122 65.4954C557.532 63.2004 558.525 64.2032 554.217 61.4153C549.908 58.6274 544.801 53 529.736 53C514.435 53 503.296 63.2099 499.39 64.9854C496.585 66.2605 492.759 68.3005 491.229 68.3005C489.699 68.3005 488.679 68.8106 487.914 69.8306C487.149 70.8506 486.384 72.1257 487.914 73.9107Z" fill="black"/>
<circle cx="530.127" cy="122.618" r="35.4463" fill="black"/>
</g>
<defs>
<linearGradient id="paint0_linear_2_869" x1="129" y1="396.5" x2="643" y2="396.5" gradientUnits="userSpaceOnUse">
<stop stop-color="#F97316"/>
<stop offset="1" stop-color="#FBBF24"/>
</linearGradient>
<clipPath id="clip0_2_869">
<rect width="836" height="486" fill="white"/>
</clipPath>
</defs>
</svg>
